<svg xmlns="http://www.w3.org/2000/svg" viewBox="0 0 100.32 90.78"><defs><style>.cls-1,.cls-5{fill:#fff;}.cls-1,.cls-2{stroke:gray;}.cls-1,.cls-2,.cls-3{stroke-miterlimit:10;stroke-width:0.25px;}.cls-2{fill:none;}.cls-3{fill:#eee;stroke:#1a1a1a;}.cls-4{fill:#6a0000;}</style></defs><g id="Layer_2" data-name="Layer 2"><g id="Layer_2-2" data-name="Layer 2"><path class="cls-1" d="M81.22,18.89c0,.17,0,.35,0,.52s0,.24,0,.37,0,.19,0,.29c-.06.68-.16,1.42-.31,2.24L80,26.18l0,.1,0,.1,0,.17-.09.44-.1.46-.06.31c-.06.26-.13.57-.2.92,0,.15-.07.31-.1.47s-.07.34-.11.52l-.06.28c0,.2-.09.4-.13.61-.14.63-.29,1.36-.47,2.2-.37,1.74-.84,4-1.45,6.77-.27,1.3-.58,2.73-.91,4.3-.17.79-.32,1.6-.46,2.43-.36,2.14-.62,4.42-.81,6.77-.17,2.11-.28,4.27-.33,6.45s-.08,4.54,0,6.77.1,4.6.2,6.77c.11,2.41.25,4.7.41,6.77.19,2.66.4,5,.58,6.77.26,2.56.45,4.09.45,4.09H24.2s.11-1.62.27-4.09c.13-1.88.28-4.25.43-6.77.12-2.23.25-4.57.35-6.77.12-2.5.21-4.82.24-6.62v-.15c0-1.86,0-4.24-.15-6.77-.09-2.11-.22-4.34-.35-6.45-.17-2.53-.34-4.91-.48-6.77,0-.09,0-.18,0-.26s0-.19,0-.27c-.16-2-.27-3.31-.27-3.31l-.71-2.68-.06-.21-.1-.39c-.45-1.75-1-4-1.67-6.38-.56-2.1-1.13-4.28-1.64-6.21-.45-1.71-.85-3.23-1.15-4.35a7.35,7.35,0,0,1-.24-2.42,8.36,8.36,0,0,1,1.07-3.59h0A11.34,11.34,0,0,1,22.31,13h0l.05,0H40.15A25.88,25.88,0,0,0,50,17.13h.08l.79-.14a28,28,0,0,0,9.24-3.28l.09-.05.49-.27.65-.38H79.18l0,0,.18.17.18.18a1.8,1.8,0,0,1,.19.2A8.41,8.41,0,0,1,81.22,18.89Z"/><path class="cls-1" d="M100.15,43.36l-16.35,10-1.6-2-2.26-2.86-2.34-3-1.33-1.68c1.4-6.58,2.28-10.69,2.83-13.27,0-.21.09-.41.13-.61l.06-.28c0-.18.07-.36.11-.52s.07-.32.1-.47l.2-.92.06-.31.1-.46c.07-.34.11-.52.13-.61l0-.1,0-.1.82-3.87c.15-.82.25-1.56.31-2.24,0-.23,0-.45,0-.66s0-.35,0-.52a9.76,9.76,0,0,0-.66-4.13,4,4,0,0,0-.8-1.18,1.8,1.8,0,0,0-.19-.2l-.18-.18L79.21,13l0,0A33.86,33.86,0,0,0,72.9,9.76l-.17-.07-.19-.07h0c-.49-.19-1-.36-1.45-.52s-1.16-.36-1.72-.51-1.18-.3-1.73-.42-.91-.19-1.34-.26l-.14,0-.1,0L66.4,4l1.23.39,1.73.57,1.72.54L72.81,6l1.71.54,1.73.55.49.15L78,7.68a23,23,0,0,1,4.2,1.94,7.92,7.92,0,0,1,2.45,2L85.3,13,95.76,34.39l1.65,3.36L99,41Z"/><path class="cls-2" d="M40.27,1.5l-.12,0a.29.29,0,0,1,.1,0Z"/><path class="cls-2" d="M40.43,1.46l-.15,0a0,0,0,0,1,0,0Z"/><path class="cls-2" d="M48.77.21h-.09c-1.09.07-2.13.18-3.12.31l-.89.13L43.28.87c-.72.13-1.38.26-2,.39l-.44.1H40.8l-.29.07h-.09l-.14,0h0l-.11,0-.46.11c-.44.1-.82.2-1.13.29l-.2.06L38.19,2l-.13,0c2.2-.58,12-2.95,20.06-1.27A33.41,33.41,0,0,0,48.77.21Z"/><path class="cls-1" d="M34.78,8.09l-.21.08-.32.12-.42.16-.24.09L32,9.14l-1.26.48C28,10.67,24.5,12.05,22.37,13l-.05,0h0a11.34,11.34,0,0,0-2.61,3.14h0a8.36,8.36,0,0,0-1.07,3.59,7.35,7.35,0,0,0,.24,2.42c.3,1.12.7,2.64,1.15,4.35.51,1.93,1.08,4.11,1.64,6.21.62,2.36,1.22,4.63,1.67,6.38l.1.39.06.21.71,2.68L22.73,44.7l-2.17,3.36-2.12,3.28-1.3,2-17-10.7c.23-.61.45-1.21.68-1.8.48-1.28,1-2.5,1.43-3.68s1-2.56,1.54-3.75c1.07-2.53,2.11-4.81,3.1-6.87,1.25-2.61,2.42-4.85,3.51-6.77A64.51,64.51,0,0,1,14.71,13a27.84,27.84,0,0,1,2.84-3.39A8.61,8.61,0,0,1,18.2,9l1.73-.48L21.66,8l1.73-.53L25.11,7l1.71-.57c1.33-.45,2.49-.86,3.46-1.21C31,5,31.53,4.73,32,4.54c1.11-.43,1.71-.68,1.71-.68Z"/><path class="cls-1" d="M66.4,4l-.35,3.88v0a5.21,5.21,0,0,1-.88,1.74c-.2.27-.44.57-.73.89l-.23.24-.18.18-.25.24-.08.08-.46.4-.3.24-.32.25-.35.25a3.27,3.27,0,0,1-.36.25l-.39.26-.18.11-.63.38-.49.27-.09.05a13.32,13.32,0,0,1-1.31.65c-.28.14-.57.27-.88.4a42.9,42.9,0,0,1-7.84,2.37H50A25.88,25.88,0,0,1,40.15,13l-.64-.46a19.34,19.34,0,0,1-2.62-2c-.19-.18-.38-.35-.56-.54l-.39-.41a9.28,9.28,0,0,1-1-1.35.61.61,0,0,1-.07-.1.42.42,0,0,1-.06-.08L33.72,3.86l.08,0,.13-.06,2.48-1,.07,0,1.11-.48h0l.49,3.07c1,2.53,3.88,6,12,7.73l.09,0,.07,0c.9-.2,10.15-2.41,12-7.73l.41-3a1.89,1.89,0,0,1,.21.09A31.8,31.8,0,0,1,66.4,4Z"/><path class="cls-3" d="M62.2,5.28C60.28,10.87,50.15,13,50.15,13,42,11.29,39.1,7.82,38.09,5.28,48.74,1.71,61.75,5.16,62.2,5.28Z"/><path class="cls-1" d="M62.61,2.31l-.41,3c-.45-.12-13.46-3.57-24.11,0L37.6,2.21h0l.26-.08.15,0c2.2-.58,12-2.95,20.06-1.27.23,0,.45.09.68.15A21.4,21.4,0,0,1,62,2.05h0l0,0,.29.13v0Z"/><path class="cls-2" d="M62.61,2.31l-.21-.1"/><path class="cls-2" d="M62.11,2.08A18.15,18.15,0,0,0,58.8,1"/><path class="cls-2" d="M37.65,2.2h0"/><polygon class="cls-4" points="100.15 43.36 83.8 53.35 82.2 51.33 79.94 48.47 77.6 45.51 95.76 34.39 97.41 37.75 99.01 41.04 100.15 43.36"/><polygon class="cls-5" points="99.01 41.04 82.2 51.33 79.94 48.47 97.41 37.75 99.01 41.04"/><path class="cls-4" d="M3.8,33.42,22.73,44.7l-2.17,3.36-2.12,3.28-1.3,2-17-10.7c.23-.61.45-1.21.68-1.8.48-1.28,1-2.5,1.43-3.68S3.3,34.61,3.8,33.42Z"/><path class="cls-4" d="M24.6,45.81l-.11.19c0-.1,0-.19,0-.27Z"/><path class="cls-5" d="M20.56,48.06l-2.12,3.28L.83,40.85c.48-1.28,1-2.5,1.43-3.68Z"/><polyline class="cls-2" points="6.9 26.55 20.02 26.55 79.95 26.55 91.92 26.55"/><polyline class="cls-2" points="10.41 19.78 18.63 19.78 81.19 19.78 88.61 19.78"/><polyline class="cls-2" points="23.43 39.53 29.47 39.53 71.63 39.53 77.18 39.53"/><polyline class="cls-2" points="21.66 32.76 25.33 32.76 75.74 32.76 78.63 32.76"/><polyline class="cls-2" points="24.99 53.03 29.47 53.03 71.63 53.03 75 53.03"/><polyline class="cls-2" points="24.51 46.26 28.49 46.26 72.5 46.26 75.81 46.26"/><polyline class="cls-2" points="25.49 66.25 29.47 66.25 71.63 66.25 74.63 66.25"/><polyline class="cls-2" points="25.34 59.48 28.49 59.48 72.5 59.48 74.67 59.48"/><polyline class="cls-2" points="24.9 79.79 29.47 79.79 71.63 79.79 75.24 79.79"/><polyline class="cls-2" points="25.25 73.02 28.49 73.02 72.5 73.02 74.83 73.02"/><polyline class="cls-2" points="24.47 86.56 28.49 86.56 72.5 86.56 75.82 86.56"/><line class="cls-2" x1="50.22" y1="13.01" x2="50.06" y2="13.01"/><polyline class="cls-2" points="85.3 13.01 79.18 13.01 61.35 13.01 61.33 13.01"/><polyline class="cls-2" points="14.71 13.01 22.37 13.01 40.15 13.01"/><polyline class="cls-2" points="72.53 9.62 72.54 9.62 72.81 9.62 74.52 9.62 76.25 9.62 77.97 9.62 82.17 9.62"/><polyline class="cls-2" points="17.55 9.62 19.93 9.62 21.66 9.62 23.39 9.62 25.11 9.62 26.82 9.62 28.55 9.62 30.28 9.62 30.75 9.62 30.88 9.62"/><line class="cls-2" x1="21.66" y1="9.62" x2="21.66" y2="8.04"/><line class="cls-2" x1="25.11" y1="9.62" x2="25.11" y2="6.97"/><line class="cls-2" x1="28.55" y1="9.62" x2="28.55" y2="5.82"/><polyline class="cls-2" points="32.01 4.54 32.01 9.14 32.01 9.17"/><polyline class="cls-2" points="67.63 4.37 67.63 8.17 67.63 8.22"/><polyline class="cls-2" points="71.08 5.48 71.08 9.1 71.08 9.15"/><line class="cls-2" x1="74.52" y1="9.62" x2="74.52" y2="6.57"/><line class="cls-2" x1="77.97" y1="9.62" x2="77.97" y2="7.68"/></g></g></svg>