<svg viewBox="0 0 100 90.56" xmlns="http://www.w3.org/2000/svg"><path d="m81.07 18.8v.42.1.66c-.06.68-.16 1.42-.31 2.24l-.82 3.87v.1.1c0 .09-.06.27-.13.61l-.1.46v.24s0 0 0 .07c-.06.26-.13.57-.2.92 0 .15-.07.31-.1.47s-.07.34-.11.52l-.06.28c0 .2-.09.4-.13.61l-1.61 6.76a.36.36 0 0 1 0 .1c-.13.61-.26 1.25-.41 1.92-.28 1.35-.6 2.84-.95 4.49-.13.61-.25 1.23-.36 1.87a84.6 84.6 0 0 0 -1.07 9.63c-.16 2.76-.23 5.59-.23 8.38 0 3.32.09 6.59.24 9.64s.34 5.91.53 8.37c.44 5.38.89 8.93.89 8.93h-52.09s.28-4 .58-8.93c.16-2.66.33-5.61.46-8.37s.22-5.07.25-7c0-.81 0-1.71 0-2.69 0-2.5-.18-5.47-.35-8.38-.22-3.64-.47-7.18-.66-9.63-.16-2-.27-3.28-.27-3.28l-.71-2.68-.16-.6c-.15-.56-.31-1.17-.47-1.82v-.1l-.28-1.06-.75-2.85c-.1-.39-.21-.78-.31-1.18-.4-1.5-.79-3-1.17-4.44l-.21-.63c0-.14-.08-.28-.11-.42-.12-.45-.23-.89-.35-1.32 0-.17-.08-.33-.13-.5l-.06-.22-.13-.46q-.06-.24-.12-.45a2.81 2.81 0 0 0 -.08-.31l-.3-1.13a8 8 0 0 1 -.26-2c0-.17 0-.34 0-.51s0-.26 0-.38a2.7 2.7 0 0 1 .06-.41 3.87 3.87 0 0 1 .13-.59 2.68 2.68 0 0 1 .07-.27 3.84 3.84 0 0 1 .2-.6 4.35 4.35 0 0 1 .22-.54c.11-.25.23-.49.35-.71a11.34 11.34 0 0 1 2.67-3.1l8.41-3.35 2.86-1.14.24-.09.42-.16.32-.12.22-.14a.42.42 0 0 0 .06.08.61.61 0 0 0 .07.1 8.66 8.66 0 0 0 .79 1.07c.09.11.19.23.3.34a14.43 14.43 0 0 0 2 1.8c.13.1.26.21.4.3.36.27.74.52 1.12.77a25.83 25.83 0 0 0 10.49 4.54h.08l.79-.14a28 28 0 0 0 9.27-3.24h.09l.89-.51a16.25 16.25 0 0 0 2.22-1.58c.14-.12.28-.24.4-.36a5.5 5.5 0 0 0 .49-.47l.25-.26a8.19 8.19 0 0 0 .65-.8 5.2 5.2 0 0 0 .93-1.8 0 0 0 0 0 0 0h.1.14a56.68 56.68 0 0 1 6.41 1.77l.17.07a33.54 33.54 0 0 1 6.31 3.27l.18.17.18.18a1.8 1.8 0 0 1 .19.2 8.41 8.41 0 0 1 1.47 5.3z" fill="#0b1c60"/><path d="m100 43.27-3.83 2.34-12.52 7.65-6.05-7.65-1.48-1.87c.35-1.65.67-3.14.95-4.49.15-.67.28-1.31.41-1.92a.36.36 0 0 0 0-.1l1.52-6.76c0-.21.09-.41.13-.61l.06-.28c0-.18.07-.36.11-.52s.07-.32.1-.47l.2-.92s0-.05 0-.07 0-.16 0-.24l.1-.46c.07-.34.11-.52.13-.61v-.1-.1l.82-3.87c.15-.82.25-1.56.31-2.24 0-.23 0-.45 0-.66v-.1c0-.14 0-.28 0-.42a9.76 9.76 0 0 0 -.66-4.13 4 4 0 0 0 -.8-1.18 1.8 1.8 0 0 0 -.19-.2l-.18-.18-.18-.17a33.54 33.54 0 0 0 -6.31-3.27l-.17-.07a34.26 34.26 0 0 0 -6.41-1.77h-.14-.1l.35-3.88s4 1.29 10.34 3.29a25.11 25.11 0 0 1 5.54 2.41 7.77 7.77 0 0 1 2.34 1.94l3.76 7.69 4.1 8.38 4.75 9.57z" fill="#0b1c60"/><path d="m40.12 1.4h-.12a.29.29 0 0 1 .1 0z" fill="none"/><path d="m40.28 1.36h-.15a0 0 0 0 1 0 0z" fill="none"/><path d="m48.62.12h-.09c-1.09.07-2.13.18-3.12.31l-.89.13-1.39.22c-.72.13-1.38.26-2 .39l-.44.1h-.05l-.29.07h-.08-.15-.12l-.46.11c-.44.1-.82.2-1.13.29l-.2.06-.21.2h-.13c2.24-.59 12.03-3 20.13-1.28a33.41 33.41 0 0 0 -9.38-.6z" fill="none"/><g fill="#0b1c60"><path d="m34.63 8-.21.08-.32.12-.42.16-.24.09c-.75.28-1.81.68-3 1.14-2.74 1.05-6.19 2.41-8.28 3.35a11.34 11.34 0 0 0 -2.61 3.14c-.12.22-.24.46-.35.71a4.35 4.35 0 0 0 -.22.54 3.84 3.84 0 0 0 -.2.6 2.68 2.68 0 0 0 -.07.27 3.87 3.87 0 0 0 -.13.59 2.7 2.7 0 0 0 -.06.41v.38s0 .34 0 .51a8 8 0 0 0 .26 2l.3 1.13a2.81 2.81 0 0 1 .08.31q.06.21.12.45l.12.46.06.22c.05.17.09.33.13.5.12.43.23.87.35 1.32 0 .14.07.28.11.42l.18.68c.38 1.42.77 2.94 1.17 4.44.1.4.21.79.31 1.18l.75 2.85.28 1.06v.1c.16.65.32 1.26.47 1.82l.16.6.71 2.68-2.12 3.28-4.96 7.67-12.16-7.65-4.84-3.05c.7-1.88 1.38-3.65 2.05-5.33 1.45-3.64 2.84-6.84 4.15-9.63 1.56-3.33 3-6.09 4.32-8.38 3.28-5.73 5.69-8.5 6.82-9.63a8 8 0 0 1 .71-.65 135.83 135.83 0 0 0 15.52-5.17z"/><path d="m66.25 3.89-.35 3.88a0 0 0 0 1 0 0 5.2 5.2 0 0 1 -.9 1.82 8.19 8.19 0 0 1 -.65.8l-.25.26a5.5 5.5 0 0 1 -.49.47c-.12.12-.26.24-.4.36a16.25 16.25 0 0 1 -2.21 1.58l-.89.51h-.09a13.32 13.32 0 0 1 -1.31.65c-.28.14-.57.27-.88.4a42.9 42.9 0 0 1 -7.89 2.38h-.08a25.83 25.83 0 0 1 -10.5-4.58c-.38-.25-.76-.5-1.12-.77-.14-.09-.27-.2-.4-.3a14.43 14.43 0 0 1 -2-1.8c-.11-.11-.21-.23-.3-.34a8.66 8.66 0 0 1 -.79-1.07.61.61 0 0 1 -.07-.1.42.42 0 0 1 -.05-.04l-1.06-4.23h.08l.13-.06 2.48-1h.07l1.12-.48.49 3.07a9.9 9.9 0 0 0 3.65 4.4 22.57 22.57 0 0 0 8.41 3.24 27.49 27.49 0 0 0 8.21-3.35 9 9 0 0 0 3.84-4.4l.41-3a1.89 1.89 0 0 1 .21.09 31.8 31.8 0 0 1 3.58 1.61z" stroke="#8080af" stroke-miterlimit="10" stroke-width=".25"/><path d="m62.46 2.22-.41 3c-.45-.12-13.46-3.57-24.11 0l-.49-3.07.31-.15h.15c2.2-.59 11.99-3 20.09-1.28.23 0 .45.09.68.15a21.4 21.4 0 0 1 3.19 1.13h.13l.29.13z" stroke="#8080af" stroke-miterlimit="10" stroke-width=".25"/></g><path d="m62.46 2.21-.21-.1" fill="none"/><path d="m62 2a18.15 18.15 0 0 0 -3.35-1.14" fill="none"/><path d="m62.05 5.19a9 9 0 0 1 -3.84 4.4 27.49 27.49 0 0 1 -8.21 3.35 22.57 22.57 0 0 1 -8.41-3.35 9.9 9.9 0 0 1 -3.65-4.4c10.65-3.57 23.66-.12 24.11 0z" fill="#0b1c60" opacity=".7"/><path d="m81.07 19.8v.42h-62.55a2.7 2.7 0 0 1 .06-.41 3.87 3.87 0 0 1 .13-.59 2.68 2.68 0 0 1 .07-.27 3.84 3.84 0 0 1 .2-.6 4.35 4.35 0 0 1 .22-.54c.11-.25.23-.49.35-.71a11.34 11.34 0 0 1 2.61-3.1c2.09-.94 5.54-2.3 8.28-3.35h5.4a14.43 14.43 0 0 0 2 1.8c.13.1.26.21.4.3.36.27.74.52 1.12.77a25.83 25.83 0 0 0 10.5 4.48h.08a42.9 42.9 0 0 0 7.84-2.37c.31-.13.6-.26.88-.4a13.32 13.32 0 0 0 1.34-.61h.09l.89-.51a16.25 16.25 0 0 0 2.22-1.58c.14-.12.28-.24.4-.36a5.5 5.5 0 0 0 .49-.47l.25-.26a8.19 8.19 0 0 0 .65-.8h7.62l.17.07a33.54 33.54 0 0 1 6.31 3.27l.18.17.18.18a1.8 1.8 0 0 1 .19.2 4 4 0 0 1 .8 1.18 9.76 9.76 0 0 1 .63 4.09z"/><path d="m79.56 27.6s0 0 0 .07l-.2.92c0 .15-.07.31-.1.47s-.07.34-.11.52l-.06.28c0 .2-.09.4-.13.61l-1.46 6.76h-54.79v-.1l-.28-1.06-.75-2.85c-.1-.39-.21-.78-.31-1.18-.4-1.5-.79-3-1.17-4.44z"/><path d="m24.32 45.61h51.44a84.6 84.6 0 0 0 -1.07 9.63h-49.69c-.24-3.64-.49-7.18-.68-9.63z"/><path d="m25.34 66.31c0-.81 0-1.71 0-2.69h49.12c0 3.32.09 6.59.24 9.64h-49.61c.13-2.62.22-5.07.25-6.95z"/><path d="m76.12 90.56h-52.07s.28-4 .58-8.93h50.6c.44 5.37.89 8.93.89 8.93z"/></svg>