<svg xmlns="http://www.w3.org/2000/svg" viewBox="0 0 100 90.56"><defs><style>.cls-1,.cls-3,.cls-4{fill:#0b1c60;}.cls-2{fill:none;}.cls-3{stroke:#8080af;stroke-miterlimit:10;stroke-width:0.25px;}.cls-4{opacity:0.7;}</style></defs><g id="Layer_2" data-name="Layer 2"><g id="Layer_2-2" data-name="Layer 2"><path class="cls-1" d="M81.07,18.8c0,.14,0,.28,0,.42v.1c0,.21,0,.43,0,.66-.06.68-.16,1.42-.31,2.24l-.82,3.87,0,.1,0,.1c0,.09-.06.27-.13.61l-.1.46c0,.08,0,.15,0,.24s0,0,0,.07c-.06.26-.13.57-.2.92,0,.15-.07.31-.1.47s-.07.34-.11.52l-.06.28c0,.2-.09.4-.13.61L77.5,37.23a.36.36,0,0,1,0,.1c-.13.61-.26,1.25-.41,1.92-.28,1.35-.6,2.84-.95,4.49-.13.61-.25,1.23-.36,1.87a84.6,84.6,0,0,0-1.07,9.63c-.16,2.76-.23,5.59-.23,8.38,0,3.32.09,6.59.24,9.64s.34,5.91.53,8.37c.44,5.38.89,8.93.89,8.93H24.05s.28-4,.58-8.93c.16-2.66.33-5.61.46-8.37s.22-5.07.25-7c0-.81,0-1.71,0-2.69,0-2.5-.18-5.47-.35-8.38-.22-3.64-.47-7.18-.66-9.63-.16-2-.27-3.28-.27-3.28l-.71-2.68-.16-.6c-.15-.56-.31-1.17-.47-1.82l0-.1-.28-1.06-.75-2.85c-.1-.39-.21-.78-.31-1.18-.4-1.5-.79-3-1.17-4.44L20,26.92c0-.14-.08-.28-.11-.42-.12-.45-.23-.89-.35-1.32,0-.17-.08-.33-.13-.5l-.06-.22L19.22,24q-.06-.24-.12-.45a2.81,2.81,0,0,0-.08-.31l-.3-1.13a8,8,0,0,1-.26-2c0-.17,0-.34,0-.51s0-.26,0-.38a2.7,2.7,0,0,1,.06-.41,3.87,3.87,0,0,1,.13-.59,2.68,2.68,0,0,1,.07-.27,3.84,3.84,0,0,1,.2-.6,4.35,4.35,0,0,1,.22-.54c.11-.25.23-.49.35-.71h0A11.34,11.34,0,0,1,22.16,13h0l8.41-3.35,2.86-1.14.24-.09.42-.16.32-.12L34.63,8a.42.42,0,0,0,.06.08.61.61,0,0,0,.07.1,8.66,8.66,0,0,0,.79,1.07c.09.11.19.23.3.34a14.43,14.43,0,0,0,2,1.8c.13.1.26.21.4.3.36.27.74.52,1.12.77A25.83,25.83,0,0,0,49.86,17h.08l.79-.14A28,28,0,0,0,60,13.62l.09,0,.89-.51a16.25,16.25,0,0,0,2.22-1.58c.14-.12.28-.24.4-.36a5.5,5.5,0,0,0,.49-.47l.25-.26a8.19,8.19,0,0,0,.65-.8,5.2,5.2,0,0,0,.93-1.8,0,0,0,0,0,0,0l.1,0,.14,0a56.68,56.68,0,0,1,6.41,1.77h0l.17.07a33.54,33.54,0,0,1,6.31,3.27l.18.17.18.18a1.8,1.8,0,0,1,.19.2A8.41,8.41,0,0,1,81.07,18.8Z"/><path class="cls-1" d="M100,43.27l-3.83,2.34L83.65,53.26,77.6,45.61l-1.48-1.87c.35-1.65.67-3.14.95-4.49.15-.67.28-1.31.41-1.92a.36.36,0,0,0,0-.1L79,30.47c0-.21.09-.41.13-.61l.06-.28c0-.18.07-.36.11-.52s.07-.32.1-.47l.2-.92s0-.05,0-.07,0-.16,0-.24l.1-.46c.07-.34.11-.52.13-.61l0-.1,0-.1.82-3.87c.15-.82.25-1.56.31-2.24,0-.23,0-.45,0-.66v-.1c0-.14,0-.28,0-.42a9.76,9.76,0,0,0-.66-4.13,4,4,0,0,0-.8-1.18,1.8,1.8,0,0,0-.19-.2l-.18-.18-.18-.17a33.54,33.54,0,0,0-6.31-3.27l-.17-.07h0a34.26,34.26,0,0,0-6.41-1.77l-.14,0-.1,0,.35-3.88s4,1.29,10.34,3.29a25.11,25.11,0,0,1,5.54,2.41,7.77,7.77,0,0,1,2.34,1.94l3.76,7.69,4.1,8.38L97,37.23Z"/><path class="cls-2" d="M40.12,1.4l-.12,0a.29.29,0,0,1,.1,0Z"/><path class="cls-2" d="M40.28,1.36l-.15,0a0,0,0,0,1,0,0Z"/><path class="cls-2" d="M48.62.12h-.09C47.44.19,46.4.3,45.41.43l-.89.13L43.13.78c-.72.13-1.38.26-2,.39l-.44.1h-.05l-.29.07h-.08l-.15,0h0l-.12,0-.46.11c-.44.1-.82.2-1.13.29l-.2.06L38,2l-.13,0C40.11,1.41,49.9-1,58,.72A33.41,33.41,0,0,0,48.62.12Z"/><path class="cls-1" d="M34.63,8l-.21.08-.32.12-.42.16-.24.09c-.75.28-1.81.68-3,1.14-2.74,1.05-6.19,2.41-8.28,3.35h0a11.34,11.34,0,0,0-2.61,3.14h0c-.12.22-.24.46-.35.71a4.35,4.35,0,0,0-.22.54,3.84,3.84,0,0,0-.2.6,2.68,2.68,0,0,0-.07.27,3.87,3.87,0,0,0-.13.59,2.7,2.7,0,0,0-.06.41c0,.12,0,.25,0,.38s0,.34,0,.51a8,8,0,0,0,.26,2l.3,1.13a2.81,2.81,0,0,1,.08.31q.06.21.12.45l.12.46.06.22c.05.17.09.33.13.5.12.43.23.87.35,1.32,0,.14.07.28.11.42l.18.68c.38,1.42.77,2.94,1.17,4.44.1.4.21.79.31,1.18l.75,2.85.28,1.06,0,.1c.16.65.32,1.26.47,1.82l.16.6.71,2.68-2.12,3.28L17,53.26,4.84,45.61,0,42.56c.7-1.88,1.38-3.65,2.05-5.33C3.5,33.59,4.89,30.39,6.2,27.6c1.56-3.33,3-6.09,4.32-8.38,3.28-5.73,5.69-8.5,6.82-9.63a8,8,0,0,1,.71-.65A135.83,135.83,0,0,0,33.57,3.77Z"/><path class="cls-3" d="M66.25,3.89,65.9,7.77a0,0,0,0,1,0,0A5.2,5.2,0,0,1,65,9.59a8.19,8.19,0,0,1-.65.8l-.25.26a5.5,5.5,0,0,1-.49.47c-.12.12-.26.24-.4.36A16.25,16.25,0,0,1,61,13.06l-.89.51-.09,0a13.32,13.32,0,0,1-1.31.65c-.28.14-.57.27-.88.4A42.9,42.9,0,0,1,49.94,17h-.08a25.83,25.83,0,0,1-10.5-4.58c-.38-.25-.76-.5-1.12-.77-.14-.09-.27-.2-.4-.3a14.43,14.43,0,0,1-2-1.8c-.11-.11-.21-.23-.3-.34a8.66,8.66,0,0,1-.79-1.07.61.61,0,0,1-.07-.1A.42.42,0,0,1,34.63,8L33.57,3.77l.08,0,.13-.06,2.48-1,.07,0,1.12-.48.49,3.07a9.9,9.9,0,0,0,3.65,4.4A22.57,22.57,0,0,0,50,12.94a27.49,27.49,0,0,0,8.21-3.35,9,9,0,0,0,3.84-4.4l.41-3a1.89,1.89,0,0,1,.21.09A31.8,31.8,0,0,1,66.25,3.89Z"/><path class="cls-3" d="M62.46,2.22l-.41,3c-.45-.12-13.46-3.57-24.11,0l-.49-3.07h0L37.76,2l.15,0C40.11,1.41,49.9-1,58,.72c.23,0,.45.09.68.15A21.4,21.4,0,0,1,61.87,2h0L62,2l.29.13v0Z"/><path class="cls-2" d="M62.46,2.21l-.21-.1"/><path class="cls-2" d="M62,2A18.15,18.15,0,0,0,58.65.86"/><path class="cls-2" d="M37.5,2.1h0"/><path class="cls-4" d="M62.05,5.19a9,9,0,0,1-3.84,4.4A27.49,27.49,0,0,1,50,12.94a22.57,22.57,0,0,1-8.41-3.35,9.9,9.9,0,0,1-3.65-4.4C48.59,1.62,61.6,5.07,62.05,5.19Z"/><path d="M81.07,19.8c0,.14,0,.28,0,.42H18.52a2.7,2.7,0,0,1,.06-.41,3.87,3.87,0,0,1,.13-.59,2.68,2.68,0,0,1,.07-.27,3.84,3.84,0,0,1,.2-.6,4.35,4.35,0,0,1,.22-.54c.11-.25.23-.49.35-.71h0A11.34,11.34,0,0,1,22.16,14h0c2.09-.94,5.54-2.3,8.28-3.35h5.4a14.43,14.43,0,0,0,2,1.8c.13.1.26.21.4.3.36.27.74.52,1.12.77A25.83,25.83,0,0,0,49.86,18h.08a42.9,42.9,0,0,0,7.84-2.37c.31-.13.6-.26.88-.4A13.32,13.32,0,0,0,60,14.62l.09,0,.89-.51a16.25,16.25,0,0,0,2.22-1.58c.14-.12.28-.24.4-.36a5.5,5.5,0,0,0,.49-.47l.25-.26a8.19,8.19,0,0,0,.65-.8h7.62l.17.07a33.54,33.54,0,0,1,6.31,3.27l.18.17.18.18a1.8,1.8,0,0,1,.19.2,4,4,0,0,1,.8,1.18A9.76,9.76,0,0,1,81.07,19.8Z"/><path d="M79.56,27.6s0,0,0,.07l-.2.92c0,.15-.07.31-.1.47s-.07.34-.11.52l-.06.28c0,.2-.09.4-.13.61L77.5,37.23H22.71l0-.1-.28-1.06-.75-2.85c-.1-.39-.21-.78-.31-1.18-.4-1.5-.79-3-1.17-4.44Z"/><path d="M24.32,45.61H75.76a84.6,84.6,0,0,0-1.07,9.63H25C24.76,51.6,24.51,48.06,24.32,45.61Z"/><path d="M25.34,66.31c0-.81,0-1.71,0-2.69H74.46c0,3.32.09,6.59.24,9.64H25.09C25.22,70.64,25.31,68.19,25.34,66.31Z"/><path d="M76.12,90.56H24.05s.28-4,.58-8.93h50.6C75.67,87,76.12,90.56,76.12,90.56Z"/></g></g></svg>