<svg xmlns="http://www.w3.org/2000/svg" viewBox="0 0 100.32 90.78"><defs><style>.cls-1,.cls-2{fill:#f1ed1f;}.cls-1,.cls-2,.cls-3{stroke:gray;stroke-width:0.25px;}.cls-1,.cls-2,.cls-3,.cls-5{stroke-miterlimit:10;}.cls-2{opacity:0.7;}.cls-3{fill:none;}.cls-4{fill:#ee0304;}.cls-5{stroke:#f1ed1f;stroke-width:0.1px;}</style></defs><g id="Layer_2" data-name="Layer 2"><g id="Layer_2-2" data-name="Layer 2"><path class="cls-1" d="M100.15,43.36l-16.35,10-7.53-9.52c1.4-6.58,2.28-10.69,2.83-13.27,0-.21.09-.41.13-.61l.06-.28c0-.18.07-.36.11-.52s.07-.32.1-.47l.2-.92.06-.31.1-.46c.07-.34.11-.52.13-.61l0-.1,0-.1a27.59,27.59,0,0,0,1.13-6.11c0-.23,0-.45,0-.66s0-.35,0-.52a9.76,9.76,0,0,0-.66-4.13,4,4,0,0,0-.8-1.18,1.8,1.8,0,0,0-.19-.2l-.18-.18L79.21,13A20.77,20.77,0,0,0,72.9,9.76l-.17-.07a33.84,33.84,0,0,0-6.44-1.78l-.14,0-.1,0L66.4,4s4,1.29,10.34,3.29,7.88,4.35,7.88,4.35Z"/><path class="cls-1" d="M79.21,13A33.54,33.54,0,0,0,72.9,9.76,20.77,20.77,0,0,1,79.21,13Z"/><path class="cls-1" d="M81.17,20.07A27.59,27.59,0,0,1,80,26.18l.82-3.87C81,21.49,81.11,20.75,81.17,20.07Z"/><path class="cls-1" d="M81.22,18.89c0,.17,0,.35,0,.52s0,.43,0,.66c-.06.68-.16,1.42-.31,2.24L80,26.18l0,.1,0,.1c0,.09-.06.27-.13.61l-.1.46-.06.31c-.06.26-.13.57-.2.92,0,.15-.07.31-.1.47s-.07.34-.11.52l-.06.28c0,.2-.09.4-.13.61-.55,2.58-1.43,6.69-2.83,13.27-2.08,9.74-1.85,23.08-1.23,33l.09,1.34c.06,1,.13,1.88.19,2.76,0,.47.08.92.11,1.36,0,.63.11,1.24.16,1.81s.08.94.12,1.38c.11,1.08.21,2,.29,2.78.06.58.12,1.06.16,1.43.07.61.11.93.11.93H24.2c0-.07,0-.47.08-1.13s.1-1.53.16-2.6c0-.09,0-.19,0-.28.06-.78.11-1.65.17-2.58,0-.38.05-.77.07-1.17.05-.83.11-1.69.16-2.57.13-2.25.27-4.64.38-6.9h0c.06-1.32.12-2.58.16-3.76s.07-2,.09-2.92v-.26c0-1.07,0-2.32,0-3.68v-.05c-.05-1.8-.14-3.8-.25-5.82l-.06-1.16c-.06-1-.11-1.94-.17-2.89,0-.4-.05-.79-.08-1.18,0-.68-.09-1.33-.14-2,0-.41-.05-.8-.08-1.19-.08-1.07-.15-2-.22-2.89,0-.45-.07-.85-.1-1.22l-.16-2-.71-2.68-.16-.6C22.1,34.45,19.88,26,18.87,22.2a8,8,0,0,1,.83-6h0A11.34,11.34,0,0,1,22.31,13h0L33.59,8.54l.24-.09.42-.16.32-.12.21-.08a.42.42,0,0,0,.06.08.61.61,0,0,0,.07.1,14.86,14.86,0,0,0,4.6,4.28A25.83,25.83,0,0,0,50,17.13h.08l.79-.14a28,28,0,0,0,9.24-3.28l.09-.05C65.23,11,66,8.13,66,7.88v0l.1,0,.14,0a55.75,55.75,0,0,1,6.44,1.78l.17.07A33.54,33.54,0,0,1,79.21,13l.18.17.18.18a1.8,1.8,0,0,1,.19.2A8.41,8.41,0,0,1,81.22,18.89Z"/><path class="cls-1" d="M79.21,13A33.54,33.54,0,0,0,72.9,9.76,20.77,20.77,0,0,1,79.21,13Z"/><path class="cls-1" d="M81.17,20.07A27.59,27.59,0,0,1,80,26.18l.82-3.87C81,21.49,81.11,20.75,81.17,20.07Z"/><path class="cls-1" d="M40.27,1.5l-.12,0a.29.29,0,0,1,.1,0Z"/><path class="cls-1" d="M40.43,1.46l-.15,0a0,0,0,0,1,0,0Z"/><path class="cls-1" d="M48.77.21h-.09c-1.09.07-2.13.18-3.12.31l-.89.13L43.28.87c-.72.13-1.38.26-2,.39l-.44.1H40.8l-.29.07h-.08l-.15,0h0l-.12,0-.46.11c-.44.1-.82.2-1.13.29l-.2.06L38.19,2l-.13,0c2.2-.58,12-2.95,20.06-1.27A33.41,33.41,0,0,0,48.77.21Z"/><path class="cls-1" d="M34.78,8.09l-.21.08-.32.12-.42.16-.24.09c-2.51.94-8.28,3.14-11.27,4.49h0a11.34,11.34,0,0,0-2.61,3.14h0a8,8,0,0,0-.83,6c1,3.8,3.23,12.25,4.46,16.94l.16.6.71,2.68-.85,1.31-.56.87-.25.38-.95,1.49-1.36,2.1L18.46,51.3l-1.32,2.05-17-10.7C10.43,14.91,18.2,9,18.2,9A135.83,135.83,0,0,0,33.72,3.86Z"/><path class="cls-1" d="M66.4,4l-.35,3.88v0c-.05.25-.81,3.07-5.83,5.78l-.09.05a13.32,13.32,0,0,1-1.31.65c-.28.14-.57.27-.88.4a42.9,42.9,0,0,1-7.84,2.37H50a25.83,25.83,0,0,1-10.5-4.58,14.86,14.86,0,0,1-4.6-4.28.61.61,0,0,1-.07-.1.42.42,0,0,1-.06-.08L33.72,3.86l.08,0,.13-.06,2.48-1,.07,0,1.12-.48.49,3.07c1,2.54,3.9,6,12.06,7.75,0,0,10.13-2.16,12.05-7.75l.41-3a1.89,1.89,0,0,1,.21.09A31.8,31.8,0,0,1,66.4,4Z"/><path class="cls-2" d="M62.2,5.28C60.28,10.87,50.15,13,50.15,13,42,11.29,39.1,7.82,38.09,5.28,48.74,1.71,61.75,5.16,62.2,5.28Z"/><path class="cls-1" d="M62.61,2.31l-.41,3c-.45-.12-13.46-3.57-24.11,0L37.6,2.21h0l.26-.08.15,0c2.2-.58,12-2.95,20.06-1.27.23,0,.45.09.68.15A21.4,21.4,0,0,1,62,2.05h0l0,0,.29.13v0Z"/><path class="cls-3" d="M62.61,2.31l-.21-.1"/><path class="cls-1" d="M62.11,2.08A18.15,18.15,0,0,0,58.8,1"/><path class="cls-3" d="M37.65,2.2h0"/><path class="cls-3" d="M22.49,44.41l.3.19-.25.38C22.52,44.78,22.51,44.59,22.49,44.41Z"/><path class="cls-4" d="M75.33,81.12c-16.63-6.53-33.95-17-50.57-31.34,0-.41-.05-.81-.08-1.21-.08-1.09-.15-2.07-.22-2.94C41.09,60,58.41,70.52,75.06,77.08c0,.45,0,.89.08,1.32C75.2,79.35,75.27,80.25,75.33,81.12Z"/><path class="cls-4" d="M76,88.29c-16.69-6.45-34.08-16.85-50.8-31.2l-.06-1.18c-.06-1-.11-2-.16-2.93C41.62,67.32,59,77.73,75.6,84.23q.06.7.12,1.35C75.83,86.63,75.92,87.54,76,88.29Z"/><path class="cls-5" d="M75.6,84.23C59,77.73,41.62,67.32,25,53c0-.4-.05-.8-.08-1.2,0-.69-.09-1.35-.14-2C41.38,64.14,58.7,74.59,75.33,81.12c0,.46.08.9.11,1.34C75.49,83.07,75.55,83.67,75.6,84.23Z"/><path class="cls-4" d="M67.41,90.65h-20A169.58,169.58,0,0,1,25.24,73.41h0c.06-1.32.12-2.58.16-3.76s.07-2,.09-2.92v-.26c0-1.07,0-2.32,0-3.68C39.25,75.36,53.62,84.65,67.41,90.65Z"/><path class="cls-5" d="M25.49,66.72A161.21,161.21,0,0,0,59.22,90.65H53.8a164.76,164.76,0,0,1-28.4-21C25.44,68.58,25.47,67.59,25.49,66.72Z"/><path class="cls-4" d="M40.18,90.65h-16c0-.07,0-.47.08-1.13s.1-1.53.16-2.6c0-.09,0-.19,0-.28.06-.78.11-1.65.17-2.58,0-.38.05-.77.07-1.17.05-.83.11-1.69.16-2.57A154.44,154.44,0,0,0,40.18,90.65Z"/><path class="cls-5" d="M33.91,90.65h-4.4c-1.69-1.2-3.39-2.45-5.07-3.74,0-.09,0-.19,0-.28.06-.78.11-1.65.17-2.58Q29.25,87.61,33.91,90.65Z"/></g></g></svg>