<svg xmlns="http://www.w3.org/2000/svg" viewBox="0 0 100.31 90.78"><defs><style>.cls-1{fill:#fff;}.cls-1,.cls-2,.cls-4{stroke:gray;}.cls-1,.cls-2,.cls-3,.cls-4{stroke-miterlimit:10;stroke-width:0.25px;}.cls-2{fill:none;}.cls-3{fill:#eee;stroke:#1a1a1a;}.cls-5{fill:#c9d5ff;}</style></defs><g id="Layer_2" data-name="Layer 2"><g id="Layer_2-2" data-name="Layer 2"><path class="cls-1" d="M81.22,18.89c0,.17,0,.35,0,.52s0,.43,0,.66c-.06.68-.16,1.42-.31,2.24L80,26.18l0,.1,0,.1c0,.09-.06.27-.13.61l-.1.46-.06.31c-.06.26-.13.57-.2.92,0,.15-.07.31-.1.47s-.07.34-.11.52l-.06.28c0,.2-.09.4-.13.61-.55,2.58-1.43,6.69-2.83,13.27a91.83,91.83,0,0,0-1.63,17c0,.67,0,1.35,0,2,0,1.34,0,2.67,0,4,0,.39,0,.78,0,1.17s0,.53,0,.8c0,1.24.07,2.46.12,3.65,0,.09,0,.17,0,.26,0,.65.06,1.3.09,1.93,0,.79.09,1.57.14,2.33,0,.51.06,1,.1,1.51,0,.65.09,1.29.14,1.9,0,.38,0,.76.08,1.13.08.94.15,1.82.23,2.64.06.67.12,1.29.17,1.87a.17.17,0,0,1,0,.07c.16,1.6.3,2.85.39,3.63.07.61.11.94.11.94H24.2s0-.09,0-.26,0-.5.06-.9.09-1.27.15-2.12c0-.39,0-.81.07-1.25.06-.9.12-1.9.19-3,0-.42,0-.86.08-1.31,0-.26,0-.53.05-.8.06-1.12.14-2.29.2-3.48,0-.24,0-.49,0-.73,0-.7.08-1.4.11-2.09,0-.49,0-1,.07-1.47.05-.92.09-1.82.12-2.68,0-.56,0-1.11.06-1.63,0-.15,0-.29,0-.43q0-1.16.06-2.13t0-1.92c0-.62,0-1.28,0-2-.24-8.2-1.26-20.09-1.26-20.09l-.71-2.68-.16-.6C22.1,34.45,19.88,26,18.87,22.2a8,8,0,0,1,.83-6h0A11.34,11.34,0,0,1,22.31,13h0L33.59,8.54l.24-.09.42-.16.32-.12.21-.08a.42.42,0,0,0,.06.08.61.61,0,0,0,.07.1,14.86,14.86,0,0,0,4.6,4.28A25.83,25.83,0,0,0,50,17.13h.08l.79-.14a28,28,0,0,0,9.24-3.28l.09-.05C65.23,11,66,8.13,66,7.88v0l.1,0,.14,0a55.75,55.75,0,0,1,6.44,1.78l.17.07A33.54,33.54,0,0,1,79.21,13l.18.17.18.18a1.8,1.8,0,0,1,.19.2A8.41,8.41,0,0,1,81.22,18.89Z"/><path class="cls-1" d="M100.15,43.36l-16.35,10-1.21-1.53L82,51.11l-5.76-7.28c1.4-6.58,2.28-10.69,2.83-13.27,0-.21.09-.41.13-.61l.06-.28c0-.18.07-.36.11-.52s.07-.32.1-.47l.2-.92.06-.31.1-.46c.07-.34.11-.52.13-.61l0-.1,0-.1.82-3.87c.15-.82.25-1.56.31-2.24,0-.23,0-.45,0-.66s0-.35,0-.52a9.76,9.76,0,0,0-.66-4.13,4,4,0,0,0-.8-1.18,1.8,1.8,0,0,0-.19-.2l-.18-.18L79.21,13A33.54,33.54,0,0,0,72.9,9.76l-.17-.07a33.84,33.84,0,0,0-6.44-1.78l-.14,0-.1,0L66.4,4s4,1.29,10.34,3.29,7.88,4.35,7.88,4.35l14.5,29.63.39.8Z"/><path class="cls-2" d="M40.27,1.5l-.12,0a.29.29,0,0,1,.1,0Z"/><path class="cls-2" d="M40.43,1.46l-.15,0a0,0,0,0,1,0,0Z"/><path class="cls-2" d="M48.77.21h-.09c-1.09.07-2.13.18-3.12.31l-.89.13L43.28.87c-.72.13-1.38.26-2,.39l-.44.1H40.8l-.29.07h-.08l-.15,0h0l-.12,0-.46.11c-.44.1-.82.2-1.13.29l-.2.06L38.19,2l-.13,0c2.2-.58,12-2.95,20.06-1.27A33.41,33.41,0,0,0,48.77.21Z"/><path class="cls-1" d="M34.78,8.09l-.21.08-.32.12-.42.16-.24.09c-2.51.94-8.28,3.14-11.27,4.49h0a11.34,11.34,0,0,0-2.61,3.14h0a8,8,0,0,0-.83,6c1,3.8,3.23,12.25,4.46,16.94l.16.6.71,2.68-6.09,9.43-1,1.5-17-10.7c.22-.59.44-1.18.66-1.75C10.76,14.66,18.2,9,18.2,9A135.83,135.83,0,0,0,33.72,3.86Z"/><path class="cls-1" d="M66.4,4l-.35,3.87h0v0a2.22,2.22,0,0,1-.12.38,5,5,0,0,1-.42.83,8.86,8.86,0,0,1-1.25,1.61,16.32,16.32,0,0,1-4,3l-.09.05-.24.13c-.34.18-.69.36-1.07.52s-.57.27-.88.4a42.39,42.39,0,0,1-7.62,2.32l-.22.05H50a25.71,25.71,0,0,1-9.51-3.89c-.34-.23-.68-.46-1-.69A17.87,17.87,0,0,1,36.33,10a10.09,10.09,0,0,1-1.42-1.75.61.61,0,0,1-.07-.1l-.06-.08h0L33.72,3.87l.08,0,.13-.06,2.48-1,.07,0,1.12-.48.49,3.07c1,2.54,3.9,6,12.06,7.75,0,0,10.13-2.16,12.05-7.75l.41-3,.21.09A31.8,31.8,0,0,1,66.4,4Z"/><path class="cls-3" d="M62.2,5.29C60.28,10.88,50.15,13,50.15,13,42,11.3,39.1,7.83,38.09,5.29,48.74,1.72,61.75,5.17,62.2,5.29Z"/><path class="cls-1" d="M62.61,2.32l-.41,3c-.45-.12-13.46-3.57-24.11,0L37.6,2.22h0l.26-.08.15,0c2.2-.58,12-2.95,20.06-1.27.23,0,.45.09.68.15A21.4,21.4,0,0,1,62,2.06h0l0,0,.29.13v0Z"/><path class="cls-2" d="M62.61,2.31l-.21-.1"/><path class="cls-2" d="M62.11,2.08A18.15,18.15,0,0,0,58.8,1"/><path class="cls-2" d="M37.65,2.2h0"/><polygon class="cls-4" points="100.15 43.36 83.8 53.35 82.59 51.82 99.51 42.05 100.15 43.36"/><path class="cls-4" d="M18.11,51.85l-1,1.5-17-10.7c.22-.59.44-1.18.66-1.75Z"/><path class="cls-5" d="M49,90.65H42.52c-4.42-1.16-7.61-1.32-10.92,0H27.93C34.32,86.31,38.75,87.2,49,90.65Z"/><path class="cls-5" d="M76.27,90.65H74.88c.42-.29.84-.61,1.28-.94C76.23,90.32,76.27,90.65,76.27,90.65Z"/><path class="cls-5" d="M75.76,86c-8.46,6.33-13.35,5.26-25,1.25-13.44-4.61-17.41-5.54-26.46,2.23,0-.55.09-1.27.15-2.12,9-7.64,13-6.7,26.31-2.11,11.59,4,16.49,5.06,24.85-1.12C75.65,84.81,75.71,85.43,75.76,86Z"/><path class="cls-5" d="M75.28,80.37c-8.17,5.93-13.09,4.83-24.54.89-13.23-4.54-17.29-5.52-26,1.89,0-.42,0-.86.08-1.31,0-.26,0-.53.05-.8,8.67-7.29,12.75-6.3,25.92-1.78,11.38,3.91,16.32,5,24.4-.79C75.18,79.12,75.23,79.76,75.28,80.37Z"/><path class="cls-5" d="M74.9,74.63C67,80.26,62,79.13,50.74,75.26c-13-4.48-17.17-5.49-25.68,1.57,0-.7.08-1.4.11-2.09,8.44-7,12.58-5.94,25.57-1.48,11.22,3.86,16.18,5,24.07-.56C74.84,73.35,74.87,74,74.9,74.63Z"/><path class="cls-5" d="M74.68,68.79c-7.82,5.45-12.78,4.31-23.94.47-12.89-4.43-17.07-5.46-25.38,1.33,0-.56,0-1.11.06-1.63,0-.15,0-.29,0-.43,8.26-6.73,12.46-5.68,25.31-1.27,11.14,3.83,16.11,5,23.9-.44,0,.39,0,.78,0,1.17S74.67,68.52,74.68,68.79Z"/><path class="cls-5" d="M74.64,60.82c0,.67,0,1.35,0,2-7.78,5.4-12.75,4.25-23.88.42-12.82-4.4-17-5.45-25.25,1.22,0-.62,0-1.28,0-2,8.24-6.7,12.44-5.66,25.28-1.25C61.88,65.09,66.85,66.24,74.64,60.82Z"/></g></g></svg>