<svg viewBox="0 0 100.31 90.78" xmlns="http://www.w3.org/2000/svg"><g stroke-miterlimit="10" stroke-width=".25"><path d="m81.22 18.89v.52s0 .43 0 .66c-.06.68-.16 1.42-.31 2.24l-.91 3.87v.1.1c0 .09-.06.27-.13.61l-.1.46-.06.31c-.06.26-.13.57-.2.92 0 .15-.07.31-.1.47s-.07.34-.11.52l-.06.28c0 .2-.09.4-.13.61-.55 2.58-1.43 6.69-2.83 13.27a91.83 91.83 0 0 0 -1.63 17v2 4 1.17s0 .53 0 .8c0 1.24.07 2.46.12 3.65v.26c0 .65.06 1.3.09 1.93 0 .79.09 1.57.14 2.33 0 .51.06 1 .1 1.51 0 .65.09 1.29.14 1.9 0 .38 0 .76.08 1.13.08.94.15 1.82.23 2.64.06.67.12 1.29.17 1.87a.17.17 0 0 1 0 .07c.16 1.6.3 2.85.39 3.63.07.61.11.94.11.94h-52.02s0-.09 0-.26 0-.5.06-.9.09-1.27.15-2.12c0-.39 0-.81.07-1.25.06-.9.12-1.9.19-3 0-.42 0-.86.08-1.31 0-.26 0-.53.05-.8.06-1.12.14-2.29.2-3.48 0-.24 0-.49 0-.73 0-.7.08-1.4.11-2.09 0-.49 0-1 .07-1.47.05-.92.09-1.82.12-2.68 0-.56 0-1.11.06-1.63 0-.15 0-.29 0-.43q0-1.16.06-2.13t0-1.92c0-.62 0-1.28 0-2-.24-8.2-1.26-20.09-1.26-20.09l-.71-2.68-.16-.6c-1.19-4.64-3.41-13.09-4.42-16.89a8 8 0 0 1 .83-6 11.34 11.34 0 0 1 2.61-3.2l11.28-4.46.24-.09.42-.16.32-.12.21-.08a.42.42 0 0 0 .06.08.61.61 0 0 0 .07.1 14.86 14.86 0 0 0 4.6 4.28 25.83 25.83 0 0 0 10.49 4.58h.08l.79-.14a28 28 0 0 0 9.24-3.28l.09-.05c5.03-2.66 5.8-5.53 5.8-5.78h.1.14a55.75 55.75 0 0 1 6.44 1.78l.17.07a33.54 33.54 0 0 1 6.36 3.27l.18.17.18.18a1.8 1.8 0 0 1 .19.2 8.41 8.41 0 0 1 1.46 5.34z" fill="#fff" stroke="#808080"/><path d="m100.15 43.36-16.35 10-1.21-1.53-.59-.72-5.76-7.28c1.4-6.58 2.28-10.69 2.83-13.27 0-.21.09-.41.13-.61l.06-.28c0-.18.07-.36.11-.52s.07-.32.1-.47l.2-.92.06-.31.1-.46c.07-.34.11-.52.13-.61v-.1-.1l.82-3.87c.15-.82.25-1.56.31-2.24 0-.23 0-.45 0-.66s0-.35 0-.52a9.76 9.76 0 0 0 -.66-4.13 4 4 0 0 0 -.8-1.18 1.8 1.8 0 0 0 -.19-.2l-.18-.18-.05-.2a33.54 33.54 0 0 0 -6.31-3.24l-.17-.07a33.84 33.84 0 0 0 -6.44-1.78h-.14-.1l.35-3.91s4 1.29 10.34 3.29 7.88 4.35 7.88 4.35l14.5 29.63.39.8z" fill="#fff" stroke="#808080"/><path d="m40.27 1.5h-.12a.29.29 0 0 1 .1 0z" fill="none" stroke="#808080"/><path d="m40.43 1.46h-.15a0 0 0 0 1 0 0z" fill="none" stroke="#808080"/><path d="m48.77.21h-.09c-1.09.07-2.13.18-3.12.31l-.89.13-1.39.22c-.72.13-1.38.26-2 .39l-.44.1h-.04l-.29.07h-.08-.15-.12l-.46.11c-.44.1-.82.2-1.13.29l-.2.06-.18.11h-.13c2.2-.58 12-2.95 20.06-1.27a33.41 33.41 0 0 0 -9.35-.52z" fill="none" stroke="#808080"/><path d="m34.78 8.09-.21.08-.32.12-.42.16-.24.09c-2.51.94-8.28 3.14-11.27 4.49a11.34 11.34 0 0 0 -2.61 3.14 8 8 0 0 0 -.83 6c1 3.8 3.23 12.25 4.46 16.94l.16.6.71 2.68-6.09 9.43-1 1.5-17-10.7c.22-.59.44-1.18.66-1.75 9.98-26.21 17.42-31.87 17.42-31.87a135.83 135.83 0 0 0 15.52-5.14z" fill="#fff" stroke="#808080"/><path d="m66.4 4-.35 3.87a2.22 2.22 0 0 1 -.12.38 5 5 0 0 1 -.42.83 8.86 8.86 0 0 1 -1.25 1.61 16.32 16.32 0 0 1 -4 3l-.09.05-.24.13c-.34.18-.69.36-1.07.52s-.57.27-.88.4a42.39 42.39 0 0 1 -7.62 2.32l-.22.05h-.14a25.71 25.71 0 0 1 -9.51-3.89c-.34-.23-.68-.46-1-.69a17.87 17.87 0 0 1 -3.16-2.58 10.09 10.09 0 0 1 -1.42-1.75.61.61 0 0 1 -.07-.1l-.06-.08-1.06-4.2h.08l.13-.06 2.48-1h.07l1.12-.48.49 3.07c1 2.54 3.9 6 12.06 7.75 0 0 10.13-2.16 12.05-7.75l.41-3 .21.09a31.8 31.8 0 0 1 3.58 1.51z" fill="#fff" stroke="#808080"/><path d="m62.2 5.29c-1.92 5.59-12.05 7.71-12.05 7.71-8.15-1.7-11.05-5.17-12.06-7.71 10.65-3.57 23.66-.12 24.11 0z" fill="#eee" stroke="#1a1a1a"/><path d="m62.61 2.32-.41 3c-.45-.12-13.46-3.57-24.11 0l-.49-3.1.26-.08h.15c2.2-.58 12-2.95 20.06-1.27.23 0 .45.09.68.15a21.4 21.4 0 0 1 3.25 1.04l.29.13z" fill="#fff" stroke="#808080"/><path d="m62.61 2.31-.21-.1" fill="none" stroke="#808080"/><path d="m62.11 2.08a18.15 18.15 0 0 0 -3.31-1.08" fill="none" stroke="#808080"/><path d="m100.15 43.36-16.35 9.99-1.21-1.53 16.92-9.77z" stroke="#808080"/><path d="m18.11 51.85-1 1.5-17-10.7c.22-.59.44-1.18.66-1.75z" stroke="#808080"/></g><path d="m49 90.65h-6.48c-4.42-1.16-7.61-1.32-10.92 0h-3.67c6.39-4.34 10.82-3.45 21.07 0z" fill="#c9d5ff"/><path d="m76.27 90.65h-1.39c.42-.29.84-.61 1.28-.94.07.61.11.94.11.94z" fill="#c9d5ff"/><path d="m75.76 86c-8.46 6.33-13.35 5.26-25 1.25-13.44-4.61-17.41-5.54-26.46 2.23 0-.55.09-1.27.15-2.12 9-7.64 13-6.7 26.31-2.11 11.59 4 16.49 5.06 24.85-1.12.04.68.1 1.3.15 1.87z" fill="#c9d5ff"/><path d="m75.28 80.37c-8.17 5.93-13.09 4.83-24.54.89-13.23-4.54-17.29-5.52-26 1.89 0-.42 0-.86.08-1.31 0-.26 0-.53.05-.8 8.67-7.29 12.75-6.3 25.92-1.78 11.38 3.91 16.32 5 24.4-.79-.01.65.04 1.29.09 1.9z" fill="#c9d5ff"/><path d="m74.9 74.63c-7.9 5.63-12.9 4.5-24.16.63-13-4.48-17.17-5.49-25.68 1.57 0-.7.08-1.4.11-2.09 8.44-7 12.58-5.94 25.57-1.48 11.22 3.86 16.18 5 24.07-.56.03.65.06 1.3.09 1.93z" fill="#c9d5ff"/><path d="m74.68 68.79c-7.82 5.45-12.78 4.31-23.94.47-12.89-4.43-17.07-5.46-25.38 1.33 0-.56 0-1.11.06-1.63 0-.15 0-.29 0-.43 8.26-6.73 12.46-5.68 25.31-1.27 11.14 3.83 16.11 5 23.9-.44v1.17s.04.53.05.8z" fill="#c9d5ff"/><path d="m74.64 60.82v2c-7.78 5.4-12.75 4.25-23.88.42-12.82-4.4-17-5.45-25.25 1.22 0-.62 0-1.28 0-2 8.24-6.7 12.44-5.66 25.28-1.25 11.09 3.88 16.06 5.03 23.85-.39z" fill="#c9d5ff"/></svg>