<svg viewBox="0 0 100.16 90.87" xmlns="http://www.w3.org/2000/svg" xmlns:xlink="http://www.w3.org/1999/xlink"><pattern id="a" height="7.66" patternTransform="translate(-11.66 2.19)" patternUnits="userSpaceOnUse" viewBox="0 0 7.66 7.66" width="7.66"><path d="m0 0h7.66v7.66h-7.66z" fill="none"/><path d="m3.83 0h3.83v3.83h-3.83z" fill="#fff"/><path d="m0 0h3.83v3.83h-3.83z" fill="#e87b30"/><path d="m3.83 3.83h3.83v3.83h-3.83z" fill="#e87b30"/><path d="m0 3.83h3.83v3.83h-3.83z" fill="#fff"/></pattern><pattern id="b" height="7.66" patternTransform="translate(-6.04 3.6)" patternUnits="userSpaceOnUse" viewBox="0 0 7.66 7.66" width="7.66"><path d="m0 0h7.66v7.66h-7.66z" fill="none"/><path d="m3.83 0h3.83v3.83h-3.83z" fill="#fff"/><path d="m0 0h3.83v3.83h-3.83z" fill="#e87b30"/><path d="m3.83 3.83h3.83v3.83h-3.83z" fill="#e87b30"/><path d="m0 3.83h3.83v3.83h-3.83z" fill="#fff"/></pattern><g stroke="#808080" stroke-miterlimit="10" stroke-width=".25"><path d="m84.47 11.62s-1.53-2.35-7.88-4.35-10.34-3.27-10.34-3.27l-.35 3.86c0 .25-.81 3.07-5.83 5.78l-.09.05a28 28 0 0 1 -9.25 3.31l-.79.14h-.08c-.66-.12-1.3-.27-1.92-.44s-1.47-.43-2.15-.68c-.17.48-.35.95-.53 1.42s-.26.66-.4 1-.36.9-.55 1.34c-.25.6-.51 1.19-.78 1.76-.5 1.1-1 2.15-1.56 3.16-.61 1.14-1.23 2.3-1.87 3.3-.27.46-.54.9-.82 1.34-.29.47-.59.92-.89 1.37a61.21 61.21 0 0 1 -8.25 9.94l-.5.48-.14.14-.72.66-.54.48-.13.12-.63.54c-.44.36-.84.69-1.2 1-.14.12-.28.22-.41.32-.53.4-.94.69-1.21.88l-.26.17-.09.06c.35 4.42.94 12.65 1 18.37v2.55c-.12 7.52-1.29 24.25-1.29 24.25s40.39-21.5 52.1-46.84l2.88 3.64 17.59-11.09z" fill="#e87b30"/><path d="m100 43.36-16.35 9.99-4.65-5.88 17.59-11.09z" fill="#fff"/><path d="m40.12 1.5h-.12a.29.29 0 0 1 .1 0z" fill="none"/><path d="m40.28 1.46h-.15a0 0 0 0 1 0 0z" fill="none"/><path d="m48.62.21h-.09c-1.09.07-2.13.18-3.12.31l-.89.13-1.39.22c-.72.13-1.38.26-2 .39l-.44.1h-.05l-.29.07h-.08-.15-.12l-.46.11c-.44.1-.82.2-1.13.29l-.2.06-.21.11h-.13c2.24-.5 12.03-2.87 20.13-1.19a33.41 33.41 0 0 0 -9.38-.6z" fill="none"/><path d="m66.25 4-.35 3.86c0 .25-.81 3.07-5.83 5.78l-.09.05a13.32 13.32 0 0 1 -1.31.65c-.28.14-.57.27-.88.4a42.9 42.9 0 0 1 -7.84 2.37h-.08c-.66-.12-1.3-.27-1.92-.44s-1.47-.43-2.15-.68a26.26 26.26 0 0 1 -6.43-3.46 14.86 14.86 0 0 1 -4.6-4.28.61.61 0 0 1 -.07-.1.42.42 0 0 1 -.06-.08l-1.07-4.21h.08l.13-.06 2.48-1h.07l1.12-.48.49 3.07c.06.16.13.32.21.49l.21.41a8.74 8.74 0 0 0 .66 1c.09.13.19.25.29.38a10.12 10.12 0 0 0 1 1.07l.3.27a12.82 12.82 0 0 0 1.81 1.31c.27.17.55.33.85.49a21.56 21.56 0 0 0 3.29 1.39l.6.19c.86.27 1.8.51 2.82.73 0 0 10.13-2.16 12-7.75l.41-3a1.89 1.89 0 0 1 .21.09 31.8 31.8 0 0 1 3.65 1.54z" fill="#fff"/><path d="m62.05 5.28c-1.92 5.59-12.05 7.72-12.05 7.72-1-.22-2-.46-2.82-.73l-.6-.19a21.56 21.56 0 0 1 -3.29-1.39l-.85-.49a12.82 12.82 0 0 1 -1.81-1.31l-.3-.27a10.12 10.12 0 0 1 -1-1.07c-.1-.13-.2-.25-.29-.38a8.74 8.74 0 0 1 -.66-1l-.21-.41c-.08-.17-.15-.33-.21-.49 10.63-3.56 23.64-.11 24.09.01z" fill="#e87b30" opacity=".7"/><path d="m62.46 2.31-.41 3c-.45-.12-13.46-3.57-24.11 0l-.49-3.07.26-.08h.15c2.25-.66 12.04-3.03 20.14-1.35.23 0 .45.09.68.15a21.4 21.4 0 0 1 3.22 1.09h.05l.29.13z" fill="#fff"/><path d="m62.46 2.31-.21-.1" fill="none"/><path d="m62 2.08a18.15 18.15 0 0 0 -3.35-1.08" fill="none"/></g><path d="m76.12 90.65h-52.07s40.36-21.48 52.07-46.82c-3.74 17.54 0 46.82 0 46.82z" fill="url(#a)"/><path d="m45.79 16c-.17.48-.35.95-.53 1.42s-.26.66-.4 1-.36.9-.55 1.34c-.25.6-.52 1.19-.78 1.76-.51 1.1-1 2.15-1.56 3.16-.61 1.16-1.23 2.32-1.87 3.32-.27.46-.55.91-.82 1.34-.3.47-.59.92-.89 1.37a61.21 61.21 0 0 1 -8.25 9.94l-.5.48-.14.14-.72.66-.54.48-.13.12-.63.54c-.44.36-.84.69-1.2 1l-.41.32c-.53.4-.94.69-1.21.88l-.26.17-.09.06c-.15-1.88-.25-3.06-.25-3.06l-7.06 10.91-17-10.7c10.28-27.74 18.05-33.65 18.05-33.65a135.83 135.83 0 0 0 15.52-5.14l1.06 4.23a.42.42 0 0 0 .06.08.61.61 0 0 0 .07.1 14.86 14.86 0 0 0 4.6 4.28 26.26 26.26 0 0 0 6.43 3.45z" fill="url(#b)"/></svg>