<svg xmlns="http://www.w3.org/2000/svg" xmlns:xlink="http://www.w3.org/1999/xlink" viewBox="0 0 100.16 90.87"><defs><style>.cls-1,.cls-6{fill:none;}.cls-2,.cls-5{fill:#fff;}.cls-3,.cls-4,.cls-7{fill:#e87b30;}.cls-4,.cls-5,.cls-6,.cls-7{stroke:gray;stroke-miterlimit:10;stroke-width:0.25px;}.cls-7{opacity:0.7;}.cls-8{fill:url(#New_Pattern);}.cls-9{fill:url(#New_Pattern-3);}</style><pattern id="New_Pattern" data-name="New Pattern" width="7.66" height="7.66" patternTransform="translate(-11.66 2.19)" patternUnits="userSpaceOnUse" viewBox="0 0 7.66 7.66"><rect class="cls-1" width="7.66" height="7.66"/><rect class="cls-2" x="3.83" width="3.83" height="3.83"/><rect class="cls-3" width="3.83" height="3.83"/><rect class="cls-3" x="3.83" y="3.83" width="3.83" height="3.83"/><rect class="cls-2" y="3.83" width="3.83" height="3.83"/></pattern><pattern id="New_Pattern-3" data-name="New Pattern" width="7.66" height="7.66" patternTransform="translate(-6.04 3.6)" patternUnits="userSpaceOnUse" viewBox="0 0 7.66 7.66"><rect class="cls-1" width="7.66" height="7.66"/><rect class="cls-2" x="3.83" width="3.83" height="3.83"/><rect class="cls-3" width="3.83" height="3.83"/><rect class="cls-3" x="3.83" y="3.83" width="3.83" height="3.83"/><rect class="cls-2" y="3.83" width="3.83" height="3.83"/></pattern></defs><g id="Layer_2" data-name="Layer 2"><g id="Layer_2-2" data-name="Layer 2"><path class="cls-4" d="M84.47,11.62s-1.53-2.35-7.88-4.35S66.25,4,66.25,4L65.9,7.86v0c0,.25-.81,3.07-5.83,5.78l-.09.05A28,28,0,0,1,50.73,17l-.79.14h-.08c-.66-.12-1.3-.27-1.92-.44s-1.47-.43-2.15-.68c-.17.48-.35.95-.53,1.42s-.26.66-.4,1-.36.9-.55,1.34c-.25.6-.51,1.19-.78,1.76-.5,1.1-1,2.15-1.56,3.16C41.36,25.84,40.74,27,40.1,28c-.27.46-.54.9-.82,1.34h0c-.29.47-.59.92-.89,1.37a61.21,61.21,0,0,1-8.25,9.94l-.5.48-.14.14-.72.66-.54.48-.13.12-.63.54c-.44.36-.84.69-1.2,1-.14.12-.28.22-.41.32-.53.4-.94.69-1.21.88l-.26.17-.09.06c.35,4.42.94,12.65,1,18.37,0,.93,0,1.78,0,2.55-.12,7.52-1.29,24.25-1.29,24.25S64.41,69.17,76.12,43.83L79,47.47,96.59,36.38Z"/><polygon class="cls-5" points="100 43.36 83.65 53.35 79 47.47 96.59 36.38 100 43.36"/><path class="cls-6" d="M40.12,1.5l-.12,0a.29.29,0,0,1,.1,0Z"/><path class="cls-6" d="M40.28,1.46l-.15,0a0,0,0,0,1,0,0Z"/><path class="cls-6" d="M48.62.21h-.09c-1.09.07-2.13.18-3.12.31l-.89.13L43.13.87c-.72.13-1.38.26-2,.39l-.44.1h-.05l-.29.07h-.08l-.15,0h0l-.12,0-.46.11c-.44.1-.82.2-1.13.29l-.2.06L38,2l-.13,0C40.11,1.5,49.9-.87,58,.81A33.41,33.41,0,0,0,48.62.21Z"/><path class="cls-5" d="M66.25,4,65.9,7.86v0c0,.25-.81,3.07-5.83,5.78l-.09.05a13.32,13.32,0,0,1-1.31.65c-.28.14-.57.27-.88.4a42.9,42.9,0,0,1-7.84,2.37h-.08c-.66-.12-1.3-.27-1.92-.44s-1.47-.43-2.15-.68a26.26,26.26,0,0,1-6.43-3.46,14.86,14.86,0,0,1-4.6-4.28.61.61,0,0,1-.07-.1.42.42,0,0,1-.06-.08L33.57,3.86l.08,0,.13-.06,2.48-1,.07,0,1.12-.48.49,3.07c.06.16.13.32.21.49l.21.41a8.74,8.74,0,0,0,.66,1c.09.13.19.25.29.38a10.12,10.12,0,0,0,1,1.07l.3.27a12.82,12.82,0,0,0,1.81,1.31c.27.17.55.33.85.49a21.56,21.56,0,0,0,3.29,1.39l.6.19c.86.27,1.8.51,2.82.73,0,0,10.13-2.16,12-7.75l.41-3a1.89,1.89,0,0,1,.21.09A31.8,31.8,0,0,1,66.25,4Z"/><path class="cls-7" d="M62.05,5.28C60.13,10.87,50,13,50,13c-1-.22-2-.46-2.82-.73l-.6-.19a21.56,21.56,0,0,1-3.29-1.39l-.85-.49a12.82,12.82,0,0,1-1.81-1.31l-.3-.27a10.12,10.12,0,0,1-1-1.07c-.1-.13-.2-.25-.29-.38a8.74,8.74,0,0,1-.66-1l-.21-.41c-.08-.17-.15-.33-.21-.49C48.59,1.71,61.6,5.16,62.05,5.28Z"/><path class="cls-5" d="M62.46,2.31l-.41,3c-.45-.12-13.46-3.57-24.11,0l-.49-3.07h0l.26-.08.15,0C40.11,1.5,49.9-.87,58,.81c.23,0,.45.09.68.15a21.4,21.4,0,0,1,3.22,1.09h0l.05,0,.29.13v0Z"/><path class="cls-6" d="M62.46,2.31l-.21-.1"/><path class="cls-6" d="M62,2.08A18.15,18.15,0,0,0,58.65,1"/><path class="cls-6" d="M37.5,2.2h0"/><path class="cls-8" d="M76.12,90.65H24.05S64.41,69.17,76.12,43.83C72.38,61.37,76.12,90.65,76.12,90.65Z"/><path class="cls-9" d="M45.79,16c-.17.48-.35.95-.53,1.42s-.26.66-.4,1-.36.9-.55,1.34c-.25.6-.52,1.19-.78,1.76-.51,1.1-1,2.15-1.56,3.16C41.36,25.84,40.74,27,40.1,28c-.27.46-.55.91-.82,1.34h0c-.3.47-.59.92-.89,1.37a61.21,61.21,0,0,1-8.25,9.94l-.5.48-.14.14-.72.66-.54.48-.13.12-.63.54c-.44.36-.84.69-1.2,1l-.41.32c-.53.4-.94.69-1.21.88l-.26.17-.09.06c-.15-1.88-.25-3.06-.25-3.06L17,53.35,0,42.65C10.28,14.91,18.05,9,18.05,9A135.83,135.83,0,0,0,33.57,3.86l1.06,4.23a.42.42,0,0,0,.06.08.61.61,0,0,0,.07.1,14.86,14.86,0,0,0,4.6,4.28A26.26,26.26,0,0,0,45.79,16Z"/></g></g></svg>