<svg viewBox="0 0 100.31 90.78" xmlns="http://www.w3.org/2000/svg"><g stroke-miterlimit="10" stroke-width=".25"><path d="m39.58 1.69c-.72.2-1.38.41-2 .61v.55a4.68 4.68 0 0 1 0-.54.65.65 0 0 1 0-.1h.18c.63-.21 1.24-.37 1.82-.52z" fill="none" stroke="#b3b3b3"/><path d="m62.4 2.21c-1-.38-2.07-.7-3.09-1 .75.18 1.37.35 1.86.5l.6.2a.34.34 0 0 1 .12 0l.28.1z" fill="none" stroke="#b3b3b3"/><path d="m62.35 4.76a12.23 12.23 0 0 0 0-2.52 5.6 5.6 0 0 1 0 2.52z" fill="none" stroke="#b3b3b3"/><path d="m34.78 8.09-.21.08-.32.12-.42.16-.24.09c-2.51.94-8.28 3.14-11.27 4.49a5.29 5.29 0 0 0 -2.61 3.14 8 8 0 0 0 -.83 6c1 3.8 3.23 12.25 4.46 16.94l.16.6.71 2.68-7.07 10.96-17-10.7c10.29-27.74 18.06-33.65 18.06-33.65a135.83 135.83 0 0 0 15.52-5.14z" fill="#7f242a" stroke="#b3b3b3"/><path d="m100.15 43.36-16.35 10-7.53-9.52c1.4-6.58 2.28-10.69 2.83-13.27 0-.21.09-.41.13-.61l.06-.28.11-.52c0-.16.07-.32.1-.47l.2-.92.06-.31.1-.46c.07-.34.11-.52.13-.61v-.1-.1a27.59 27.59 0 0 0 1.13-6.11c0-.23 0-.45 0-.66s0-.35 0-.52a9.76 9.76 0 0 0 -.66-4.13 4 4 0 0 0 -.8-1.18 1.8 1.8 0 0 0 -.19-.2l-.18-.18-.08-.21a20.77 20.77 0 0 0 -6.31-3.24l-.17-.07a33.84 33.84 0 0 0 -6.44-1.78h-.14-.1l.35-3.91s4 1.29 10.34 3.29 7.88 4.35 7.88 4.35z" fill="#7f242a" stroke="#b3b3b3"/><path d="m62.4 2.21-.17-.07a.61.61 0 0 0 -.23-.09h-.11a.34.34 0 0 0 -.12 0l-.6-.2a29 29 0 0 0 -4.61-1.16 40.45 40.45 0 0 0 -11-.16l-.89.13-1.39.21c-.41.06-.82.14-1.24.22a3 3 0 0 0 -.43.09l-.32.08-.44.1h-.05-.15-.14-.08-.14a0 0 0 0 0 0 0 .29.29 0 0 0 -.1 0l-.46.11c-.44.1-.82.2-1.13.29l-.2.06-.21.18-.3.08h-.11-.18l-1.12.48 1.1-.38a4.68 4.68 0 0 0 0 .54c0-.17 0-.36 0-.55.6-.2 1.26-.41 2-.61h.07a43.7 43.7 0 0 1 18.87-.58l.4.09.39.09c1 .27 2 .59 3.09 1l.21.07zm0 2.55a5.6 5.6 0 0 0 0-2.52 12.23 12.23 0 0 1 -.05 2.52zm-.14.52s0-.08 0-.12zm-11.38 11.72a36.17 36.17 0 0 0 7-2.23 42.9 42.9 0 0 1 -7.84 2.37zm-2.73-.43-.45-.16-1-.36-.62-.24c-3.34-1.35-8.08-3.81-11.24-7.64a.61.61 0 0 0 .07.1 24.23 24.23 0 0 0 4.6 4.28 25.83 25.83 0 0 0 10.49 4.58l-.27-.07c-.31-.06-.86-.26-1.58-.5zm-10.07-11.3a7.81 7.81 0 0 1 -.49-2c.05 1.54.41 1.96.49 2z" fill="none" stroke="#b3b3b3"/><path d="m72.9 9.76a20.77 20.77 0 0 1 6.31 3.24 33.54 33.54 0 0 0 -6.31-3.24z" fill="none" stroke="#b3b3b3"/><path d="m81.22 18.89v.52s0 .43 0 .66c-.06.68-.16 1.42-.31 2.24l-.91 3.87v.1.1c0 .09-.06.27-.13.61l-.1.46-.06.31c-.06.26-.13.57-.2.92 0 .15-.07.31-.1.47s-.07.34-.11.52l-.06.28c0 .2-.09.4-.13.61-.55 2.58-1.43 6.69-2.83 13.27l-.06.28c-2.46 6.23-4 15.72-4 26.35a88.79 88.79 0 0 0 2.14 20.19h-50c2.16-4.34 3.64-13.47 3.64-24 0-10.74-1.54-20-3.75-24.24l-.7-2.63-.16-.6c-1.29-4.73-3.51-13.18-4.52-16.98a8 8 0 0 1 .83-6 11.34 11.34 0 0 1 2.61-3.2l11.28-4.46.24-.09.42-.16.32-.12.21-.08a.42.42 0 0 0 .06.08.61.61 0 0 0 .07.1 14.86 14.86 0 0 0 4.6 4.28 25.83 25.83 0 0 0 10.49 4.58h.08l.79-.14a28 28 0 0 0 9.24-3.28l.09-.05c5.03-2.66 5.8-5.53 5.8-5.78h.1.14a55.75 55.75 0 0 1 6.44 1.78l.17.07a33.54 33.54 0 0 1 6.36 3.27l.18.17.18.18a1.8 1.8 0 0 1 .19.2 8.41 8.41 0 0 1 1.46 5.34z" fill="#7f242a" stroke="#ff9"/><path d="m50 17.13a25.83 25.83 0 0 1 -10.5-4.58 14.86 14.86 0 0 1 -4.6-4.28.61.61 0 0 1 -.07-.1c3.17 3.83 7.91 6.29 11.25 7.63l.62.24c.35.14.69.26 1 .36l.45.16c.72.24 1.27.41 1.59.5z" fill="none" stroke="#b3b3b3"/><path d="m66 7.88c-.05.25-.81 3.07-5.83 5.78.41-.24.81-.5 1.17-.76l.09-.05.57-.42a15.88 15.88 0 0 0 2.8-2.69c.13-.16.26-.32.38-.49s.33-.46.47-.71a.21.21 0 0 1 0-.06l.1-.18c.06-.1.1-.2.14-.27a.63.63 0 0 0 0-.09z" fill="none" stroke="#b3b3b3"/><path d="m79.21 13a33.54 33.54 0 0 0 -6.31-3.24 20.77 20.77 0 0 1 6.31 3.24z" fill="none" stroke="#b3b3b3"/><path d="m38.08 5.27s-.44-.46-.49-2a7.81 7.81 0 0 0 .49 2z" fill="none" stroke="#b3b3b3"/><path d="m62.25 5.16s0 .08 0 .12z" fill="none" stroke="#b3b3b3"/><path d="m62.4 2.21c-1-.38-2.07-.7-3.09-1l-.39-.09-.4-.09a43.7 43.7 0 0 0 -18.87.58h-.07c-.72.2-1.38.41-2 .61v-.01h.18.11l.3-.08.19-.13.2-.06c.31-.09.69-.19 1.13-.29l.46-.11a.29.29 0 0 1 .1 0 0 0 0 0 1 0 0h.14.08l.29-.07h.05l.44-.1c.61-.13 1.27-.26 2-.39l1.42-.33.89-.13c1-.13 2-.24 3.12-.31h.09c4.23-.27 9.09.03 13.23 1.84a.61.61 0 0 1 .17.07z" fill="none" stroke="#b3b3b3"/><path d="m62.2 5.28c-1.92 5.59-12.05 7.72-12.05 7.72-8.15-1.71-11.05-5.18-12.06-7.72 10.65-3.57 23.66-.12 24.11 0z" fill="#5c242a" stroke="#b3b3b3"/><path d="m56.56.69a35.9 35.9 0 0 0 -7.79-.48h-.09a39.58 39.58 0 0 0 -6.68.88 3 3 0 0 0 -.43.09l-.32.08-.44.1h-.01-.15-.14-.08-.15-.12l-.5.14a43.7 43.7 0 0 1 18.87-.58c-.67.01-1.32-.12-1.97-.23zm6.26 1.71 3.58 1.6a31.8 31.8 0 0 0 -3.58-1.6zm3.18 5.6c0 .07-.08.17-.14.27l-.1.18a.21.21 0 0 0 0 .06c-.14.25-.31.47-.47.71s-.25.33-.38.49a15.88 15.88 0 0 1 -2.91 2.72l-.57.42-.09.05a20.61 20.61 0 0 1 -2.57 1.46 13.32 13.32 0 0 0 1.31-.65l.09-.05c5.06-2.66 5.83-5.53 5.83-5.78v.06a.63.63 0 0 1 0 .06zm-3.6-5.76a12.23 12.23 0 0 1 0 2.52 5.6 5.6 0 0 0 0-2.52zm-.15 2.92v.12s-.01-.08 0-.12zm-27.41 3a.61.61 0 0 0 .07.1 14.86 14.86 0 0 0 4.6 4.28 37.27 37.27 0 0 0 6.57 3.25c-3.34-1.33-8.08-3.79-11.24-7.62zm3.24-2.9a7.81 7.81 0 0 1 -.49-2c.05 1.55.41 1.97.49 2.01zm-.48-3s0 0 0 0a4.68 4.68 0 0 0 0 .54c-.02-.12-.01-.31 0-.5zm-3.67 1.5 2.48-1c-1.25.42-2.1.82-2.48 1z" fill="none" stroke="#b3b3b3"/></g><path d="m66.4 4-.35 3.88v.06a.63.63 0 0 1 -.05.06c0 .07-.08.17-.14.27l-.1.18a.21.21 0 0 0 0 .06c-.14.25-.31.47-.47.71s-.25.33-.38.49a15.88 15.88 0 0 1 -2.91 2.72l-.57.42-.09.05a20.61 20.61 0 0 1 -2.57 1.46c-.28.14-.57.27-.88.4a42.9 42.9 0 0 1 -7.84 2.37h-.05l-.27-.07c-.32-.09-.87-.26-1.59-.5l-.45-.16-1-.36-.62-.24c-3.33-1.34-8.07-3.8-11.23-7.63a.42.42 0 0 1 -.06-.08l-1.06-4.23h.08l.13-.06 2.48-1h.07l1.1-.38a4.68 4.68 0 0 0 0 .54v.34c0 1.59.44 2 .49 2 1 2.54 3.9 6 12.06 7.75 0 0 10.13-2.16 12.05-7.75s0-.08 0-.12a1 1 0 0 1 0-.14 1.1 1.1 0 0 0 .06-.26 5.6 5.6 0 0 0 0-2.52l.21.07a1.89 1.89 0 0 1 .21.09z" fill="#f1f209"/><path d="m62.35 4.76a1.1 1.1 0 0 1 -.06.26 1 1 0 0 0 0 .14v.12c-.45-.12-13.46-3.57-24.11 0a7.81 7.81 0 0 1 -.49-2c0-.11 0-.22 0-.34s0-.36 0-.55c.6-.2 1.26-.41 2-.61h.07a43.7 43.7 0 0 1 18.87-.58l.4.09.39.09c1 .27 2 .59 3.09 1a12.23 12.23 0 0 1 -.16 2.38z" fill="#f1f209"/><path d="m73.71 70.46a88.79 88.79 0 0 0 2.14 20.19h-1.53a88.79 88.79 0 0 1 -2.14-20.19c0-10.63 1.57-20.12 4-26.35a79.68 79.68 0 0 0 -1.37 11.33 95.43 95.43 0 0 0 -1.1 15.02z" fill="#f1f209"/><path d="m27.94 66.62c0 10.56-1.48 19.69-3.64 24h-.1s1.17-16.73 1.29-24.25-1.29-24-1.29-24a.16.16 0 0 0 0 0c2.2 4.25 3.74 13.51 3.74 24.25z" fill="#f1f209"/></svg>