<svg xmlns="http://www.w3.org/2000/svg" viewBox="0 0 100.31 90.78"><defs><style>.cls-1{fill:none;}.cls-1,.cls-2,.cls-4{stroke:#b3b3b3;}.cls-1,.cls-2,.cls-3,.cls-4{stroke-miterlimit:10;stroke-width:0.25px;}.cls-2,.cls-3{fill:#7f242a;}.cls-3{stroke:#ff9;}.cls-4{fill:#5c242a;}.cls-5{fill:#f1f209;}</style></defs><g id="Layer_2" data-name="Layer 2"><g id="Layer_2-2" data-name="Layer 2"><path class="cls-1" d="M39.58,1.69c-.72.2-1.38.41-2,.61,0,.19,0,.38,0,.55a4.68,4.68,0,0,1,0-.54.65.65,0,0,1,0-.1l.18,0C38.39,2,39,1.84,39.58,1.69Z"/><path class="cls-1" d="M62.4,2.21v0c-1-.38-2.07-.7-3.09-1,.75.18,1.37.35,1.86.5l.6.2h0a.34.34,0,0,1,.12,0l.28.1,0,0Z"/><path class="cls-1" d="M62.35,4.76a12.23,12.23,0,0,0,0-2.52A5.6,5.6,0,0,1,62.35,4.76Z"/><path class="cls-2" d="M34.78,8.09l-.21.08-.32.12-.42.16-.24.09c-2.51.94-8.28,3.14-11.27,4.49h0a5.29,5.29,0,0,0-2.61,3.14h0a8,8,0,0,0-.83,6c1,3.8,3.23,12.25,4.46,16.94l.16.6.71,2.68L17.14,53.35l-17-10.7C10.43,14.91,18.2,9,18.2,9A135.83,135.83,0,0,0,33.72,3.86Z"/><path class="cls-2" d="M100.15,43.36l-16.35,10-7.53-9.52c1.4-6.58,2.28-10.69,2.83-13.27,0-.21.09-.41.13-.61l.06-.28.11-.52c0-.16.07-.32.1-.47l.2-.92.06-.31.1-.46c.07-.34.11-.52.13-.61l0-.1,0-.1a27.59,27.59,0,0,0,1.13-6.11c0-.23,0-.45,0-.66s0-.35,0-.52a9.76,9.76,0,0,0-.66-4.13,4,4,0,0,0-.8-1.18,1.8,1.8,0,0,0-.19-.2l-.18-.18L79.21,13A20.77,20.77,0,0,0,72.9,9.76l-.17-.07a33.84,33.84,0,0,0-6.44-1.78l-.14,0-.1,0L66.4,4s4,1.29,10.34,3.29,7.88,4.35,7.88,4.35Z"/><path class="cls-1" d="M62.4,2.21l-.17-.07,0,0A.61.61,0,0,0,62,2.05l-.11,0a.34.34,0,0,0-.12,0h0l-.6-.2A29,29,0,0,0,56.56.69h0a40.45,40.45,0,0,0-11-.16l-.89.13L43.28.87c-.41.06-.82.14-1.24.22a3,3,0,0,0-.43.09l-.32.08-.44.1H40.8l-.15,0-.14,0h-.08l-.14,0a0,0,0,0,0,0,0h0a.29.29,0,0,0-.1,0l-.46.11c-.44.1-.82.2-1.13.29l-.2.06L38.19,2l-.3.08-.11,0-.18,0-1.12.48,1.1-.38a4.68,4.68,0,0,0,0,.54c0-.17,0-.36,0-.55.6-.2,1.26-.41,2-.61l.07,0a43.7,43.7,0,0,1,18.87-.58l.4.09.39.09c1,.27,2,.59,3.09,1l.21.07Zm0,2.55a5.6,5.6,0,0,0,0-2.52A12.23,12.23,0,0,1,62.35,4.76Zm-.14.52s0-.08,0-.12l0,.12ZM50.88,17a36.17,36.17,0,0,0,7-2.23,42.9,42.9,0,0,1-7.84,2.37Zm-2.73-.43-.45-.16-1-.36-.62-.24C42.74,14.46,38,12,34.84,8.17a.61.61,0,0,0,.07.1,24.23,24.23,0,0,0,4.6,4.28A25.83,25.83,0,0,0,50,17.13l-.27-.07C49.42,17,48.87,16.8,48.15,16.56ZM38.08,5.27a7.81,7.81,0,0,1-.49-2C37.64,4.81,38,5.23,38.08,5.27Z"/><path class="cls-1" d="M72.9,9.76A20.77,20.77,0,0,1,79.21,13,33.54,33.54,0,0,0,72.9,9.76Z"/><path class="cls-3" d="M81.22,18.89c0,.17,0,.35,0,.52s0,.43,0,.66c-.06.68-.16,1.42-.31,2.24L80,26.18l0,.1,0,.1c0,.09-.06.27-.13.61l-.1.46-.06.31c-.06.26-.13.57-.2.92,0,.15-.07.31-.1.47s-.07.34-.11.52l-.06.28c0,.2-.09.4-.13.61-.55,2.58-1.43,6.69-2.83,13.27l-.06.28c-2.46,6.23-4,15.72-4,26.35a88.79,88.79,0,0,0,2.14,20.19h-50c2.16-4.34,3.64-13.47,3.64-24,0-10.74-1.54-20-3.75-24.24h0l-.7-2.63-.16-.6C22.1,34.45,19.88,26,18.87,22.2a8,8,0,0,1,.83-6h0A11.34,11.34,0,0,1,22.31,13h0L33.59,8.54l.24-.09.42-.16.32-.12.21-.08a.42.42,0,0,0,.06.08.61.61,0,0,0,.07.1,14.86,14.86,0,0,0,4.6,4.28A25.83,25.83,0,0,0,50,17.13h.08l.79-.14a28,28,0,0,0,9.24-3.28l.09-.05C65.23,11,66,8.13,66,7.88v0l.1,0,.14,0a55.75,55.75,0,0,1,6.44,1.78l.17.07A33.54,33.54,0,0,1,79.21,13l.18.17.18.18a1.8,1.8,0,0,1,.19.2A8.41,8.41,0,0,1,81.22,18.89Z"/><path class="cls-1" d="M50,17.13a25.83,25.83,0,0,1-10.5-4.58,14.86,14.86,0,0,1-4.6-4.28.61.61,0,0,1-.07-.1C38,12,42.74,14.46,46.08,15.8l.62.24c.35.14.69.26,1,.36l.45.16c.72.24,1.27.41,1.59.5Z"/><path class="cls-1" d="M66,7.88c-.05.25-.81,3.07-5.83,5.78.41-.24.81-.5,1.17-.76l.09-.05.57-.42a15.88,15.88,0,0,0,2.8-2.69c.13-.16.26-.32.38-.49s.33-.46.47-.71a.21.21,0,0,1,0-.06l.1-.18c.06-.1.1-.2.14-.27a.63.63,0,0,0,0-.09Z"/><path class="cls-1" d="M79.21,13A33.54,33.54,0,0,0,72.9,9.76,20.77,20.77,0,0,1,79.21,13Z"/><path class="cls-1" d="M38.08,5.27s-.44-.46-.49-2A7.81,7.81,0,0,0,38.08,5.27Z"/><path class="cls-1" d="M62.25,5.16s0,.08,0,.12h0Z"/><path class="cls-1" d="M62.4,2.21v0c-1-.38-2.07-.7-3.09-1l-.39-.09-.4-.09a43.7,43.7,0,0,0-18.87.58l-.07,0c-.72.2-1.38.41-2,.61V2.21l.18,0,.11,0,.3-.08L38.36,2l.2-.06c.31-.09.69-.19,1.13-.29l.46-.11a.29.29,0,0,1,.1,0h0a0,0,0,0,1,0,0l.14,0h.08l.29-.07h.05l.44-.1c.61-.13,1.27-.26,2-.39L44.67.65l.89-.13c1-.13,2-.24,3.12-.31h.09C53-.06,57.86.24,62,2.05a.61.61,0,0,1,.17.07l0,0Z"/><path class="cls-4" d="M62.2,5.28C60.28,10.87,50.15,13,50.15,13,42,11.29,39.1,7.82,38.09,5.28,48.74,1.71,61.75,5.16,62.2,5.28Z"/><path class="cls-1" d="M56.56.69h0A35.9,35.9,0,0,0,48.77.21h-.09A39.58,39.58,0,0,0,42,1.09a3,3,0,0,0-.43.09l-.32.08-.44.1H40.8l-.15,0-.14,0h-.08l-.15,0h0l-.12,0-.5.14a43.7,43.7,0,0,1,18.87-.58C57.86.93,57.21.8,56.56.69ZM62.82,2.4,66.4,4A31.8,31.8,0,0,0,62.82,2.4ZM66,8c0,.07-.08.17-.14.27l-.1.18a.21.21,0,0,0,0,.06c-.14.25-.31.47-.47.71s-.25.33-.38.49A15.88,15.88,0,0,1,62,12.43l-.57.42-.09.05a20.61,20.61,0,0,1-2.57,1.46,13.32,13.32,0,0,0,1.31-.65l.09-.05C65.23,11,66,8.13,66,7.88l0,.06A.63.63,0,0,1,66,8ZM62.4,2.24a12.23,12.23,0,0,1,0,2.52A5.6,5.6,0,0,0,62.4,2.24Zm-.15,2.92,0,.12h0S62.24,5.2,62.25,5.16Zm-27.41,3a.61.61,0,0,0,.07.1,14.86,14.86,0,0,0,4.6,4.28,37.27,37.27,0,0,0,6.57,3.25C42.74,14.46,38,12,34.84,8.17Zm3.24-2.9a7.81,7.81,0,0,1-.49-2C37.64,4.81,38,5.23,38.08,5.27Zm-.48-3s0,0,0,0a4.68,4.68,0,0,0,0,.54C37.58,2.68,37.59,2.49,37.6,2.3ZM33.93,3.76l2.48-1C35.16,3.18,34.31,3.58,33.93,3.76Z"/><path class="cls-5" d="M66.4,4l-.35,3.88v0l0,.06A.63.63,0,0,1,66,8c0,.07-.08.17-.14.27l-.1.18a.21.21,0,0,0,0,.06c-.14.25-.31.47-.47.71s-.25.33-.38.49A15.88,15.88,0,0,1,62,12.43l-.57.42-.09.05a20.61,20.61,0,0,1-2.57,1.46c-.28.14-.57.27-.88.4a42.9,42.9,0,0,1-7.84,2.37H50l-.27-.07c-.32-.09-.87-.26-1.59-.5l-.45-.16-1-.36-.62-.24C42.74,14.46,38,12,34.84,8.17a.42.42,0,0,1-.06-.08L33.72,3.86l.08,0,.13-.06,2.48-1,.07,0,1.1-.38a4.68,4.68,0,0,0,0,.54c0,.12,0,.23,0,.34v0c0,1.59.44,2,.49,2h0c1,2.54,3.9,6,12.06,7.75,0,0,10.13-2.16,12.05-7.75h0s0-.08,0-.12a1,1,0,0,1,0-.14,1.1,1.1,0,0,0,.06-.26,5.6,5.6,0,0,0,0-2.52l.21.07a1.89,1.89,0,0,1,.21.09Z"/><path class="cls-5" d="M62.35,4.76a1.1,1.1,0,0,1-.06.26,1,1,0,0,0,0,.14l0,.12c-.45-.12-13.46-3.57-24.11,0h0a7.81,7.81,0,0,1-.49-2v0c0-.11,0-.22,0-.34s0-.36,0-.55c.6-.2,1.26-.41,2-.61l.07,0a43.7,43.7,0,0,1,18.87-.58l.4.09.39.09c1,.27,2,.59,3.09,1A12.23,12.23,0,0,1,62.35,4.76Z"/><path class="cls-5" d="M73.71,70.46a88.79,88.79,0,0,0,2.14,20.19H74.32a88.79,88.79,0,0,1-2.14-20.19c0-10.63,1.57-20.12,4-26.35a79.68,79.68,0,0,0-1.37,11.33A95.43,95.43,0,0,0,73.71,70.46Z"/><path class="cls-5" d="M27.94,66.62c0,10.56-1.48,19.69-3.64,24h-.1s1.17-16.73,1.29-24.25-1.29-24-1.29-24a.16.16,0,0,0,0,0C26.4,46.62,27.94,55.88,27.94,66.62Z"/></g></g></svg>