<svg xmlns="http://www.w3.org/2000/svg" viewBox="0 0 100.31 90.78"><defs><style>.cls-1{fill:#fff;}.cls-1,.cls-2,.cls-3{stroke:#1a1a1a;stroke-miterlimit:10;stroke-width:0.25px;}.cls-2{fill:none;}.cls-3{fill:#eee;}.cls-4{fill:red;}</style></defs><g id="Layer_2" data-name="Layer 2"><g id="Layer_2-2" data-name="Layer 2"><path class="cls-1" d="M62.32,4.86s0,0,0,0a3.57,3.57,0,0,1-.1.35l0,0s-13.27-3.63-24.11,0h0a7.81,7.81,0,0,1-.49-2v0a6.63,6.63,0,0,1,0-.88.65.65,0,0,1,0-.1l.18,0c.61-.17,1.21-.32,1.8-.47l.07,0a43.7,43.7,0,0,1,18.87-.58l.4.09.39.09c.75.18,1.37.35,1.86.5l.6.2h0l.4.14,0,0,.17.07v0A5.73,5.73,0,0,1,62.32,4.86Z"/><path class="cls-1" d="M19.7,16.19a8,8,0,0,0-.83,6c1,3.8,3.23,12.25,4.46,16.93.06.21.11.41.16.6.43,1.64.71,2.68.71,2.68L17.14,53.35l-17-10.7C10.43,14.91,18.2,9,18.2,9A138.3,138.3,0,0,0,33.72,3.86l1.06,4.23-.11,0c-1,.37-8.73,3.25-12.35,4.9h0a5.29,5.29,0,0,0-2.61,3.14Z"/><path class="cls-2" d="M19.7,16.19a17,17,0,0,0-.83,6A8,8,0,0,1,19.7,16.19Z"/><path class="cls-1" d="M100.15,43.36l-16.36,10-7.52-9.52c1.4-6.58,2.28-10.69,2.83-13.27,0-.21.09-.41.13-.61l.06-.28.11-.52c0-.16.07-.32.1-.47l.2-.92.06-.31.1-.46c.07-.34.11-.52.13-.61l0-.1,0-.1a27.73,27.73,0,0,0,1.13-6.12c0-.22,0-.45,0-.66s0-.34,0-.51A12.88,12.88,0,0,0,81,16.31a7.55,7.55,0,0,0-.47-1.55,4,4,0,0,0-.8-1.18,1.8,1.8,0,0,0-.19-.2l-.18-.18L79.21,13A20.87,20.87,0,0,0,73,9.79l-.26-.1a33.2,33.2,0,0,0-6-1.7l-.41-.08-.14,0-.1,0,.27-3L66.4,4l.41.13c1.17.38,4.77,1.54,9.93,3.16,4.67,1.47,6.74,3.13,7.5,3.91a4,4,0,0,1,.38.44Z"/><path class="cls-2" d="M62.82,2.4l-.21-.09-.21-.1-.17-.07,0,0A.61.61,0,0,0,62,2.05l-.11,0-.12,0h0l-.6-.2A29,29,0,0,0,56.56.69h0a40.45,40.45,0,0,0-11-.16L44.38.69l-1.1.18c-.41.06-.82.14-1.24.22a3,3,0,0,0-.43.09c-.51.11-1,.23-1.57.37l-.43.1-.6.16-.45.12-.2.06L38.19,2l-.3.08-.11,0-.18,0-1.12.48-.07,0-2.48,1-.13.06-.08,0,1.06,4.23a.42.42,0,0,0,.06.08l.07.09.1.12.44.51,0,0a25,25,0,0,0,4,3.58A25.92,25.92,0,0,0,50,17.13h.08c.17,0,.34-.05.5-.09l.25-.05a36.18,36.18,0,0,0,7.09-2.23c.14-.06.27-.11.4-.18A21.52,21.52,0,0,0,61.23,13l.12-.07.12-.08.07,0A13.32,13.32,0,0,0,65,9.51c.09-.13.19-.25.27-.37s.32-.46.45-.7S66,8,66,7.94l0-.06v0l.27-3L66.4,4ZM50.15,13C42,11.29,39.1,7.82,38.09,5.28c10.84-3.63,24.11,0,24.11,0C60.28,10.87,50.15,13,50.15,13Z"/><path class="cls-2" d="M73,9.79A20.87,20.87,0,0,1,79.21,13,34.73,34.73,0,0,0,73,9.79Z"/><path class="cls-2" d="M80.86,22.31c.15-.82.25-1.56.31-2.25A27.73,27.73,0,0,1,80,26.18Z"/><path class="cls-1" d="M81.22,18.89c0,.17,0,.34,0,.51s0,.44,0,.66A27.73,27.73,0,0,1,80,26.18l0,.1,0,.1c0,.09-.06.27-.13.61l-.1.46-.06.31c-.06.26-.13.57-.2.92,0,.15-.07.31-.1.47s-.07.34-.11.52l-.06.28c0,.2-.09.4-.13.61-.55,2.58-1.43,6.69-2.83,13.27-3.74,17.54,0,46.82,0,46.82H24.2s.86-12.27,1.18-20.51c.05-1.39.09-2.66.11-3.74.12-7.53-1.29-24-1.29-24s-.28-1-.71-2.68l-.16-.6C22.1,34.45,19.88,26,18.87,22.2a8,8,0,0,1,.83-6h0A11.34,11.34,0,0,1,22.31,13h0L34.22,8.3l.19-.07.26-.1.11,0a.42.42,0,0,0,.06.08l.07.09.1.12.44.51,0,0a28.75,28.75,0,0,0,10.06,6.66L46.7,16l1,.36a0,0,0,0,1,0,0l.34.12.62.2.51.16.56.17.27.07h.08c.17,0,.34-.05.5-.09l.25-.05a27.49,27.49,0,0,0,9.36-3.32l.11-.06c.32-.19.62-.39.91-.59l.13-.09.12-.08.07,0A16.28,16.28,0,0,0,65,9.51c.09-.13.19-.25.27-.37s.32-.46.45-.7S66,8,66,7.94l0-.06v0l.1,0,.14,0,.41.08A53.32,53.32,0,0,1,73,9.79,20.87,20.87,0,0,1,79.21,13l.18.17.18.18a1.8,1.8,0,0,1,.19.2A6.2,6.2,0,0,1,81,16.38,12.14,12.14,0,0,1,81.22,18.89Z"/><path class="cls-1" d="M62.32,4.86s0,0,0,0a3.57,3.57,0,0,1-.1.35l0,0s-13.27-3.63-24.11,0h0s-.44-.46-.49-2v0c0-.26,0-.56,0-.89V2.21l.18,0,.11,0,.3-.08L38.36,2l.2-.06L39,1.81l.6-.16.43-.1.24-.05.2-.05.37-.09.44-.1c.61-.13,1.27-.26,2-.39l1.1-.18L45.56.52c1-.13,2-.24,3.12-.31h.09C53-.06,57.86.24,62,2.05a.61.61,0,0,1,.17.07l0,0,.17.07v0A11.1,11.1,0,0,1,62.32,4.86Z"/><path class="cls-3" d="M62.2,5.28C60.28,10.87,50.15,13,50.15,13,42,11.29,39.1,7.82,38.09,5.28,48.93,1.65,62.2,5.28,62.2,5.28Z"/><path class="cls-1" d="M62.82,2.4l-.21-.09-.21-.07c-1-.38-2.07-.7-3.09-1l-.39-.09-.4-.09c-.66-.16-1.31-.29-2-.4h0A35.9,35.9,0,0,0,48.77.21h-.09A39.58,39.58,0,0,0,42,1.09a3,3,0,0,0-.43.09l-.32.08-.44.1-.37.09-.2.05-.63.17-.07,0c-.72.2-1.38.41-2,.61,0,0,0,0,0,0l-1.1.38-.07,0c-1.25.46-2.1.86-2.48,1l-.13.06-.08,0,1.06,4.23a.42.42,0,0,0,.06.08,14.65,14.65,0,0,0,4.6,4.33,35.66,35.66,0,0,0,6.1,3.08L46.7,16l1,.36a0,0,0,0,1,0,0l.34.12.62.2.51.16.56.17.27.07h.08a42.9,42.9,0,0,0,7.84-2.37c.14-.06.27-.11.4-.18.68-.29,1.3-.6,1.87-.91l.11-.06c.3-.16.58-.33.85-.49,4.17-2.54,4.82-5,4.87-5.24v0l.27-3L66.4,4A31.8,31.8,0,0,0,62.82,2.4ZM50.15,13C42,11.29,39.1,7.82,38.09,5.28c10.84-3.63,24.11,0,24.11,0C60.28,10.87,50.15,13,50.15,13Z"/><path class="cls-4" d="M84.24,11.18,81,16.31l0,.07L34.38,90.65H24.2s.86-12.27,1.18-20.51l35.78-57,.06-.1v0l5.08-8.1.5-.79c1.17.38,4.77,1.54,9.93,3.16C81.41,8.74,83.48,10.4,84.24,11.18Z"/></g></g></svg>