<svg xmlns="http://www.w3.org/2000/svg" viewBox="0 0 100.31 90.78"><defs><style>.cls-1,.cls-2,.cls-4{fill:#3583f2;}.cls-1{stroke:gray;}.cls-1,.cls-2,.cls-4,.cls-5{stroke-miterlimit:10;stroke-width:0.25px;}.cls-2,.cls-4,.cls-5{stroke:#000;}.cls-3{fill:#6a0000;}.cls-4{opacity:0.7;}.cls-5{fill:none;}</style></defs><g id="Layer_2" data-name="Layer 2"><g id="Layer_2-2" data-name="Layer 2"><path class="cls-1" d="M100.15,43.36l-16.35,10-7.53-9.52c1.4-6.58,2.28-10.69,2.83-13.27,0-.21.09-.41.13-.61l.06-.28c0-.18.07-.36.11-.52s.07-.32.1-.47l.2-.92.06-.31.1-.46c.07-.34.11-.52.13-.61l0-.1,0-.1h0s0,0,0,0h0a0,0,0,0,1,0,0v0l0-.05.6-2.89.18-.86c.07-.41.14-.79.19-1.16s.06-.52.09-.77c0,0,0-.09,0-.13v0s0-.06,0-.09v0c0-.23,0-.44,0-.65s0-.35,0-.52a8.41,8.41,0,0,0-1.46-5.31,1.8,1.8,0,0,0-.19-.2l-.18-.18L79.21,13c-.39-.26-.81-.53-1.26-.8l0,0-.55-.31c-.74-.42-1.56-.85-2.45-1.27L74,10.23l-.91-.38-.23-.09-.17-.07a33.84,33.84,0,0,0-6.44-1.78l-.14,0-.1,0L66.4,4s4,1.29,10.34,3.29,7.88,4.35,7.88,4.35Z"/><polygon class="cls-2" points="80.68 23.16 80.08 26.05 80.06 26.1 80.68 23.16"/><path class="cls-1" d="M81.22,18.89c0,.17,0,.35,0,.52s0,.42,0,.65v0s0,.06,0,.09v0s0,.09,0,.13c0,.25-.06.5-.09.77s-.12.75-.19,1.16l-.18.86-.6,2.89,0,.05v0a0,0,0,0,0,0,0h0s0,0,0,0h0l0,.1,0,.1c0,.09-.06.27-.13.61l-.1.46-.06.31c-.06.26-.13.57-.2.92,0,.15-.07.31-.1.47s-.07.34-.11.52l-.06.28c0,.2-.09.4-.13.61-.55,2.58-1.43,6.69-2.83,13.27-3.74,17.54,0,46.82,0,46.82H24.2s1.17-16.73,1.29-24.25-1.29-24-1.29-24l-.71-2.68-.16-.6C22.1,34.45,19.88,26,18.87,22.2a8,8,0,0,1,.83-6h0A11.3,11.3,0,0,1,21.33,14c1.9,4.8,8,14,27,27.77L22.88,12.81l3.79-1.51c1.7,4.66,7.52,14.05,27.17,28.22L28.41,10.61l5.18-2.07.24-.09.42-.16.32-.12.21-.08a.42.42,0,0,0,.06.08.61.61,0,0,0,.07.1,14.86,14.86,0,0,0,4.6,4.28A25.83,25.83,0,0,0,50,17.13h.08l.79-.14a28,28,0,0,0,9.24-3.28l.09-.05C65.23,11,66,8.13,66,7.88v0l.1,0,.14,0a55.75,55.75,0,0,1,6.44,1.78l.17.07.23.09.91.38.87.39c.89.42,1.71.85,2.45,1.27l.55.31,0,0c.45.27.87.54,1.26.8l.18.17.18.18a1.8,1.8,0,0,1,.19.2A8.41,8.41,0,0,1,81.22,18.89Z"/><path class="cls-2" d="M40.27,1.5l-.12,0a.29.29,0,0,1,.1,0Z"/><path class="cls-2" d="M40.43,1.46l-.15,0a0,0,0,0,1,0,0Z"/><path class="cls-2" d="M48.77.21h-.09c-1.09.07-2.13.18-3.12.31l-.89.13L43.28.87c-.72.13-1.38.26-2,.39l-.44.1H40.8l-.29.07h-.08l-.15,0h0l-.12,0-.46.11c-.44.1-.82.2-1.13.29l-.2.06L38.19,2l-.13,0c2.2-.58,12-2.95,20.06-1.27A33.41,33.41,0,0,0,48.77.21Z"/><path class="cls-1" d="M34.78,8.09l-.21.08-.32.12-.42.16-.24.09c-1.22.45-3.18,1.2-5.24,2l-1.71.68c-1.38.55-2.71,1.1-3.78,1.57l-.54.24h0l-.21.18-.11.1c-.17.15-.4.37-.66.65a11.3,11.3,0,0,0-1.63,2.21h0a8,8,0,0,0-.83,6c1,3.8,3.23,12.25,4.46,16.94l.16.6.71,2.68L17.14,53.35l-17-10.7C10.43,14.91,18.2,9,18.2,9A135.83,135.83,0,0,0,33.72,3.86Z"/><path class="cls-3" d="M66.4,4l-.35,3.88v0c-.05.25-.81,3.07-5.83,5.78l-.09.05a13.32,13.32,0,0,1-1.31.65c-.28.14-.57.27-.88.4a42.9,42.9,0,0,1-7.84,2.37H50a25.83,25.83,0,0,1-10.5-4.58,14.86,14.86,0,0,1-4.6-4.28.61.61,0,0,1-.07-.1.42.42,0,0,1-.06-.08L33.72,3.86l.08,0,.13-.06,2.48-1,.07,0,1.12-.48.49,3.07c1,2.54,3.9,6,12.06,7.75,0,0,10.13-2.16,12.05-7.75l.41-3a1.89,1.89,0,0,1,.21.09A31.8,31.8,0,0,1,66.4,4Z"/><path class="cls-4" d="M62.2,5.28C60.28,10.87,50.15,13,50.15,13,42,11.29,39.1,7.82,38.09,5.28,48.74,1.71,61.75,5.16,62.2,5.28Z"/><path class="cls-3" d="M62.61,2.31l-.41,3c-.45-.12-13.46-3.57-24.11,0L37.6,2.21h0l.26-.08.15,0c2.2-.58,12-2.95,20.06-1.27.23,0,.45.09.68.15A21.4,21.4,0,0,1,62,2.05h0l0,0,.29.13v0Z"/><path class="cls-5" d="M62.61,2.31l-.21-.1"/><path class="cls-2" d="M62.11,2.08A18.15,18.15,0,0,0,58.8,1"/><path class="cls-5" d="M37.65,2.2h0"/><path class="cls-3" d="M53.84,39.52C34.19,25.35,28.37,16,26.67,11.3l1.74-.69Z"/><path class="cls-3" d="M48.32,41.74c-19-13.73-25.09-23-27-27.77.26-.28.49-.5.66-.65l.11-.1.21-.18h0l.56-.22Z"/></g></g></svg>