<svg xmlns="http://www.w3.org/2000/svg" viewBox="0 0 100.31 90.86"><defs><style>.cls-1,.cls-4,.cls-6{fill:#0074eb;}.cls-1,.cls-2,.cls-4,.cls-5{stroke:#b3b3e3;}.cls-1,.cls-2,.cls-3,.cls-4,.cls-5{stroke-miterlimit:10;stroke-width:0.25px;}.cls-2{fill:none;}.cls-3,.cls-5,.cls-7{fill:#fff;}.cls-3{stroke:#1a1a1a;}.cls-4{opacity:0.7;}</style></defs><g id="Layer_2" data-name="Layer 2"><g id="Layer_2-2" data-name="Layer 2"><path class="cls-1" d="M34.78,8.09l-.21.08-.32.12-.42.16-.24.09c-2.51.94-8.28,3.14-11.27,4.49h0a5.29,5.29,0,0,0-2.61,3.14h0a8,8,0,0,0-.83,6c1,3.8,3.23,12.25,4.46,16.94l.16.6.71,2.68-3.71,5.75-3.33,5.15,0,0L7.28,47.14.15,42.65q1.14-3.07,2.23-5.79C11.53,14.07,18.2,9,18.2,9A135.83,135.83,0,0,0,33.72,3.86Z"/><path class="cls-1" d="M100.15,43.36l-6.49,4-9.86,6,0,0-4.49-5.67-3-3.81c1.4-6.58,2.28-10.69,2.83-13.27,0-.21.09-.41.13-.61l.06-.28c0-.18.07-.36.11-.52s.07-.32.1-.47l.2-.92.06-.31.1-.46c.07-.34.11-.52.13-.61l0-.1,0-.1a27.59,27.59,0,0,0,1.13-6.11c0-.23,0-.45,0-.66s0-.35,0-.52a9.76,9.76,0,0,0-.66-4.13,4,4,0,0,0-.8-1.18,1.8,1.8,0,0,0-.19-.2l-.18-.18L79.21,13A20.77,20.77,0,0,0,72.9,9.76l-.17-.07a33.84,33.84,0,0,0-6.44-1.78l-.14,0-.1,0L66.4,4s4,1.29,10.34,3.29,7.88,4.35,7.88,4.35L97,36.93Z"/><path class="cls-2" d="M79.21,13A33.54,33.54,0,0,0,72.9,9.76,20.77,20.77,0,0,1,79.21,13Z"/><path class="cls-2" d="M81.17,20.07A27.59,27.59,0,0,1,80,26.18l.82-3.87C81,21.49,81.11,20.75,81.17,20.07Z"/><path class="cls-1" d="M81.22,18.89c0,.17,0,.35,0,.52s0,.43,0,.66c-.06.68-.16,1.42-.31,2.24L80,26.18l0,.1,0,.1c0,.09-.06.27-.13.61l-.1.46-.06.31c-.06.26-.13.57-.2.92,0,.15-.07.31-.1.47s-.07.34-.11.52l-.06.28c0,.2-.09.4-.13.61-.31,1.47-.73,3.44-1.3,6.08-22.79,38.74-53.6,54-53.6,54s1.17-16.73,1.29-24.25-1.29-24-1.29-24l-.71-2.68-.16-.6C22.1,34.45,19.88,26,18.87,22.2a8,8,0,0,1,.83-6h0A11.34,11.34,0,0,1,22.31,13h0L33.59,8.54l.24-.09.42-.16.32-.12.21-.08a.42.42,0,0,0,.06.08.61.61,0,0,0,.07.1,14.86,14.86,0,0,0,4.6,4.28A25.83,25.83,0,0,0,50,17.13h.08l.79-.14a28,28,0,0,0,9.24-3.28l.09-.05C65.23,11,66,8.13,66,7.88v0l.1,0,.14,0a55.75,55.75,0,0,1,6.44,1.78l.17.07A33.54,33.54,0,0,1,79.21,13l.18.17.18.18a1.8,1.8,0,0,1,.19.2A8.41,8.41,0,0,1,81.22,18.89Z"/><path class="cls-2" d="M50,17.13a25.83,25.83,0,0,1-10.5-4.58,14.86,14.86,0,0,1-4.6-4.28.61.61,0,0,1-.07-.1C38,12,42.74,14.46,46.08,15.8l.62.24c.35.14.69.26,1,.36l.45.16c.72.24,1.27.41,1.59.5Z"/><path class="cls-2" d="M79.21,13A33.54,33.54,0,0,0,72.9,9.76,20.77,20.77,0,0,1,79.21,13Z"/><path class="cls-2" d="M81.17,20.07A27.59,27.59,0,0,1,80,26.18l.82-3.87C81,21.49,81.11,20.75,81.17,20.07Z"/><path class="cls-2" d="M40.27,1.5l-.12,0a.29.29,0,0,1,.1,0Z"/><path class="cls-2" d="M40.43,1.46l-.15,0a0,0,0,0,1,0,0Z"/><path class="cls-3" d="M48.77.21h-.09c-1.09.07-2.13.18-3.12.31l-.89.13L43.28.87c-.72.13-1.38.26-2,.39l-.44.1H40.8l-.29.07h-.08l-.15,0h0l-.12,0-.46.11c-.44.1-.82.2-1.13.29l-.2.06L38.19,2l-.13,0c2.2-.58,12-2.95,20.06-1.27A33.41,33.41,0,0,0,48.77.21Zm14,2.19a1.89,1.89,0,0,0-.21-.09l-.41,3C60.28,10.87,50.15,13,50.15,13,42,11.29,39.1,7.82,38.09,5.28L37.6,2.21l-1.12.48-.07,0-2.48,1-.13.06-.08,0,1.06,4.23a.42.42,0,0,0,.06.08.61.61,0,0,0,.07.1,14.86,14.86,0,0,0,4.6,4.28A25.83,25.83,0,0,0,50,17.13h.08a42.9,42.9,0,0,0,7.84-2.37c.31-.13.6-.26.88-.4a13.32,13.32,0,0,0,1.31-.65l.09-.05C65.23,11,66,8.13,66,7.88v0L66.4,4A31.8,31.8,0,0,0,62.82,2.4Z"/><path class="cls-4" d="M62.2,5.28C60.28,10.87,50.15,13,50.15,13,42,11.29,39.1,7.82,38.09,5.28,48.74,1.71,61.75,5.16,62.2,5.28Z"/><path class="cls-3" d="M62.61,2.31l-.41,3c-.45-.12-13.46-3.57-24.11,0L37.6,2.21h0l.26-.08.15,0c2.2-.58,12-2.95,20.06-1.27.23,0,.45.09.68.15A21.4,21.4,0,0,1,62,2.05h0l0,0,.29.13v0Z"/><path class="cls-2" d="M62.61,2.31l-.21-.1"/><path class="cls-2" d="M37.65,2.2h0"/><path class="cls-5" d="M76.27,43.83c-3.74,17.54,0,46.82,0,46.82H24.2S55,75.38,77.8,36.64C77.38,38.63,76.87,41,76.27,43.83Z"/><circle class="cls-6" cx="71.02" cy="56.29" r="2.5"/><circle class="cls-6" cx="71.02" cy="63.92" r="2.5"/><circle class="cls-6" cx="71.02" cy="71.56" r="2.5"/><circle class="cls-6" cx="71.02" cy="79.2" r="2.5"/><circle class="cls-6" cx="71.02" cy="86.84" r="2.5"/><circle class="cls-6" cx="63.1" cy="63.92" r="2.5"/><circle class="cls-6" cx="63.1" cy="71.56" r="2.5"/><circle class="cls-6" cx="63.1" cy="79.2" r="2.5"/><circle class="cls-6" cx="63.1" cy="86.84" r="2.5"/><circle class="cls-6" cx="55.62" cy="71.56" r="2.5"/><circle class="cls-6" cx="55.62" cy="79.2" r="2.5"/><circle class="cls-6" cx="55.62" cy="86.84" r="2.5"/><circle class="cls-6" cx="47.97" cy="79.2" r="2.5"/><circle class="cls-6" cx="47.97" cy="86.84" r="2.5"/><circle class="cls-6" cx="40.04" cy="86.84" r="2.5"/><path class="cls-7" d="M20.49,48.17l-3.33,5.15L7.28,47.14.15,42.65q1.14-3.07,2.23-5.79Z"/><polygon class="cls-7" points="100.15 43.36 93.66 47.33 83.77 53.31 79.28 47.64 97 36.93 100.15 43.36"/></g></g></svg>