<svg viewBox="0 0 100.31 90.78" xmlns="http://www.w3.org/2000/svg"><g stroke-miterlimit="10" stroke-width=".25"><path d="m81.22 18.89v.52s0 .43 0 .66c-.06.68-.16 1.42-.31 2.24l-.91 3.87v.1.1c0 .09-.06.27-.13.61l-.1.46-.06.31c-.06.26-.13.57-.2.92 0 .15-.07.31-.1.47s-.07.34-.11.52l-.06.28-.09.43a1.16 1.16 0 0 0 0 .18l-.12.56c0 .19-.08.39-.13.59s-.06.31-.1.47-.08.4-.13.61 0 .17-.05.25c-.06.29-.12.58-.19.89s-.14.66-.22 1c-.11.51-.22 1.06-.35 1.64-.06.29-.12.58-.19.89s-.1.47-.15.72l-.15.72c0 .12 0 .24-.08.36l-.18.84c-.06.29-.12.58-.19.88-.1.49-.2 1-.32 1.51-.07.35-.15.72-.23 1.09v.06s0 .12 0 .18c0 .23-.1.46-.14.7-.15.75-.29 1.51-.41 2.29l-.06.36c0 .23-.06.48-.11.72a1 1 0 0 1 0 .17c-.12.87-.22 1.76-.31 2.66v.45c0 .36-.08.72-.11 1.08q-.13 1.62-.24 3.27v1.11c-.06 1.08-.1 2.18-.12 3.27a234.36 234.36 0 0 0 1.61 30.74h-52.28s1.17-16.73 1.29-24.25-1.29-24-1.29-24l-.71-2.68-.16-.6c-.51-2-1.2-4.57-1.89-7.22-.36-1.34-.71-2.69-1.06-4-.12-.46-.23-.91-.35-1.34l-.74-2.83c-.11-.41-.22-.8-.31-1.15 0-.15-.08-.29-.11-.42a7 7 0 0 1 -.17-.84 5.51 5.51 0 0 1 -.06-.57 5.58 5.58 0 0 1 0-.91 7.28 7.28 0 0 1 .28-1.71 6.12 6.12 0 0 1 .24-.76l.06-.15a4.41 4.41 0 0 1 .26-.59c.07-.17.16-.33.24-.48a10.79 10.79 0 0 1 .87-1.32 2.56 2.56 0 0 1 .2-.26l.4-.46.15-.16a10.19 10.19 0 0 1 1-.94l1.27-.5.95-.38 2.72-1.08.22-.09.66-.26 2.59-1 2.53-1 .29-.11.24-.09.42-.16.32-.12.21-.08a.42.42 0 0 0 .06.08.61.61 0 0 0 .07.1 14.86 14.86 0 0 0 4.6 4.28 25.83 25.83 0 0 0 10.51 4.54h.08l.79-.14a28 28 0 0 0 9.24-3.28l.09-.05c5.03-2.66 5.8-5.53 5.8-5.78h.1.14a55.75 55.75 0 0 1 6.44 1.78l.17.07a33.54 33.54 0 0 1 6.36 3.27l.18.17.18.18a1.8 1.8 0 0 1 .19.2 8.41 8.41 0 0 1 1.46 5.34z" fill="#e83b46" stroke="#daa"/><path d="m100.15 43.36-1.52.93-1.49.91-4.42 2.71-1.47.9-4.25 2.61-3.2 1.93-1.67-2.11-2.23-2.82-.75-1-1.94-2.42-.33-.42-.61-.77c0-.06 0-.12 0-.18s0 0 0-.06c.08-.37.16-.74.23-1.09.12-.52.22-1 .32-1.51.07-.3.13-.59.19-.88l.18-.84c0-.12.05-.24.08-.36l.15-.72q.07-.37.15-.72c.07-.31.13-.6.19-.89.13-.58.24-1.13.35-1.64.08-.35.15-.69.22-1s.13-.6.19-.89c0-.08 0-.16.05-.25s.09-.41.13-.61.07-.32.1-.47.09-.4.13-.59l.12-.56a1.16 1.16 0 0 1 0-.18l.09-.43.06-.28c0-.18.07-.36.11-.52s.07-.32.1-.47l.2-.92.06-.31.1-.46c.07-.34.11-.52.13-.61v-.1-.1l.82-3.87c.15-.82.25-1.56.31-2.24 0-.23 0-.45 0-.66s0-.35 0-.52a9.76 9.76 0 0 0 -.66-4.13 4 4 0 0 0 -.8-1.18 1.8 1.8 0 0 0 -.19-.2l-.18-.18.01-.19a33.54 33.54 0 0 0 -6.31-3.24l-.17-.07a33.84 33.84 0 0 0 -6.44-1.78h-.14-.1l.35-3.91s4 1.29 10.34 3.29 7.88 4.35 7.88 4.35l9.38 19.19 1.32 2.69.44.9 1.31 2.68.44.91 1.31 2.68.44.89z" fill="#fff" stroke="#000"/><path d="m40.27 1.49h-.12a.29.29 0 0 1 .1 0z" fill="none" stroke="#daa"/><path d="m40.43 1.45h-.15a0 0 0 0 1 0 0z" fill="none" stroke="#daa"/><path d="m48.77.21h-.09c-1.09.07-2.13.18-3.12.31l-.89.13-1.39.22c-.72.13-1.38.26-2 .39l-.44.1h-.04l-.29.07h-.08-.15-.08-.05l-.46.11c-.44.1-.82.2-1.13.29l-.2.06-.17.11h-.13c2.2-.58 12-2.95 20.06-1.27a33.41 33.41 0 0 0 -9.35-.52z" fill="none" stroke="#daa"/><path d="m34.78 8.09-.21.08-.32.12-.42.16-.24.09-.29.11-2.58 1-2.62 1-.66.26-.22.09c-.94.36-1.85.74-2.7 1.09l-.93.39-1.27.52a10.19 10.19 0 0 0 -1 .94l-.15.16-.4.46a2.56 2.56 0 0 0 -.2.26 10.79 10.79 0 0 0 -.87 1.32c-.08.15-.17.31-.24.48a4.41 4.41 0 0 0 -.26.59l-.06.15a6.12 6.12 0 0 0 -.24.76 7.28 7.28 0 0 0 -.28 1.71 5.58 5.58 0 0 0 0 .91 5.51 5.51 0 0 0 .06.57 7 7 0 0 0 .17.84c0 .13.07.27.11.42.09.35.2.74.31 1.15l.73 2.88c.12.43.23.88.35 1.34.35 1.29.7 2.64 1.06 4 .69 2.65 1.38 5.27 1.89 7.22l.16.6.71 2.68-7.03 10.91-17-10.7c6.86-18.59 12.66-27.36 15.72-31.13a21.48 21.48 0 0 1 1.76-2 6.86 6.86 0 0 1 .58-.52h.18c1.23-.34 2.39-.67 3.5-1l1.12-.35 3.06-1c4.83-1.6 7.69-2.81 7.69-2.81z" fill="#fff" stroke="#000"/><path d="m66.4 4-.35 3.88c-.05.25-.81 3.07-5.83 5.78l-.09.05a13.32 13.32 0 0 1 -1.31.65c-.28.14-.57.27-.88.4a42.9 42.9 0 0 1 -7.84 2.37h-.1a25.83 25.83 0 0 1 -10.5-4.58 14.86 14.86 0 0 1 -4.6-4.28.61.61 0 0 1 -.07-.1.42.42 0 0 1 -.06-.08l-1.05-4.23h.08l.13-.06 2.48-1h.07l1.12-.48.49 3.07c1 2.54 3.9 6 12.06 7.75 0 0 10.13-2.16 12.05-7.75l.41-3a1.89 1.89 0 0 1 .21.09 31.8 31.8 0 0 1 3.58 1.52z" fill="#e83b46" stroke="#daa"/><path d="m62.2 5.28c-1.92 5.59-12.05 7.72-12.05 7.72-8.15-1.71-11.05-5.18-12.06-7.72 10.65-3.57 23.66-.12 24.11 0z" fill="#e83b46" opacity=".7" stroke="#daa"/><path d="m62.61 2.31-.41 3c-.45-.12-13.46-3.57-24.11 0l-.49-3.1.26-.08h.15c2.2-.58 12-2.95 20.06-1.27.23 0 .45.09.68.15a21.4 21.4 0 0 1 3.25 1.04l.29.13z" fill="#e83b46" stroke="#daa"/><path d="m62.61 2.3-.21-.1" fill="none" stroke="#daa"/><path d="m62.11 2.07a18.15 18.15 0 0 0 -3.31-1.07" fill="none" stroke="#daa"/></g><path d="m74.78 56.64c-1.5-.16-2.94-.37-4.34-.6-22.16-3.62-34.44-17.86-50.06-28.1.35 1.29.7 2.64 1.06 4 15.12 10.19 27.33 23.87 49 27.41 1.36.23 2.77.42 4.22.58z" fill="#fff"/><path d="m75.07 52.26q-.13 1.62-.24 3.27c-1.51-.17-3-.35-4.39-.59-22.34-3.65-34.62-18.09-50.44-28.34l-.74-2.83c-.11-.41-.22-.8-.31-1.15 16.3 10.29 28.64 25.29 51.46 29 1.53.26 3.06.47 4.66.64z" fill="#fff"/><path d="m75.55 47.9a1 1 0 0 1 0 .17c-.12.87-.22 1.76-.31 2.66v.45c-1.63-.18-3.22-.39-4.74-.65-23.01-3.75-35.36-18.89-51.8-29.17a5.51 5.51 0 0 1 -.06-.57 5.58 5.58 0 0 1 0-.91 7.28 7.28 0 0 1 .28-1.71c16.32 10.29 28.66 25.33 51.52 29.06 1.64.27 3.34.5 5.11.67z" fill="#fff"/><path d="m76.32 43.59s0 0 0 .06 0 .12 0 .18c0 .23-.1.46-.14.7-.15.75-.29 1.51-.41 2.29-1.82-.18-3.59-.42-5.28-.69-22.72-3.71-35-18.58-51.24-28.87a4.41 4.41 0 0 1 .26-.59c.07-.17.16-.33.24-.48a10.79 10.79 0 0 1 .87-1.32c15.53 10.22 27.79 24.37 49.87 28 1.82.27 3.79.52 5.83.72z" fill="#fff"/><path d="m77.24 39.27-.18.84c-.06.29-.12.58-.19.88-.1.49-.2 1-.32 1.51q-3.18-.31-6.11-.78c-21.79-3.56-34-17.38-49.27-27.58l.15-.16a10.19 10.19 0 0 1 1-.94l1.23-.54s0 0 0 0c14.16 10 26.23 22.53 46.85 25.9q3.28.6 6.84.87z" fill="#fff"/><path d="m78.16 34.94c-.11.51-.22 1.06-.35 1.64-.06.29-.12.58-.19.89s-.1.47-.15.72c-2.45-.21-4.8-.5-7-.86-20.17-3.33-32.15-15.33-45.89-25.2 0 0 0 0-.06 0 .85-.35 1.76-.73 2.7-1.09l.22-.09.08.05c12.57 9.36 24.23 20 42.92 23 2.43.41 5.02.72 7.72.94z" fill="#fff"/></svg>