<svg xmlns="http://www.w3.org/2000/svg" viewBox="0 0 100.31 90.78"><defs><style>.cls-1,.cls-4{fill:#e83b46;}.cls-1,.cls-3,.cls-4{stroke:#daa;}.cls-1,.cls-2,.cls-3,.cls-4{stroke-miterlimit:10;stroke-width:0.25px;}.cls-2,.cls-5{fill:#fff;}.cls-2{stroke:#000;}.cls-3{fill:none;}.cls-4{opacity:0.7;}</style></defs><g id="Layer_2" data-name="Layer 2"><g id="Layer_2-2" data-name="Layer 2"><path class="cls-1" d="M81.22,18.89c0,.17,0,.35,0,.52s0,.43,0,.66c-.06.68-.16,1.42-.31,2.24L80,26.18l0,.1,0,.1c0,.09-.06.27-.13.61l-.1.46-.06.31c-.06.26-.13.57-.2.92,0,.15-.07.31-.1.47s-.07.34-.11.52l-.06.28-.09.43a1.16,1.16,0,0,0,0,.18l-.12.56c0,.19-.08.39-.13.59s-.06.31-.1.47-.08.4-.13.61,0,.17-.05.25c-.06.29-.12.58-.19.89s-.14.66-.22,1c-.11.51-.22,1.06-.35,1.64-.06.29-.12.58-.19.89s-.1.47-.15.72l-.15.72c0,.12,0,.24-.08.36l-.18.84c-.06.29-.12.58-.19.88-.1.49-.2,1-.32,1.51-.07.35-.15.72-.23,1.09,0,0,0,0,0,.06s0,.12,0,.18c0,.23-.1.46-.14.7-.15.75-.29,1.51-.41,2.29l-.06.36c0,.23-.06.48-.11.72a1,1,0,0,1,0,.17c-.12.87-.22,1.76-.31,2.66,0,.15,0,.3,0,.45,0,.36-.08.72-.11,1.08q-.13,1.62-.24,3.27c0,.37,0,.74,0,1.11-.06,1.08-.1,2.18-.12,3.27a234.36,234.36,0,0,0,1.61,30.74H24.2s1.17-16.73,1.29-24.25-1.29-24-1.29-24l-.71-2.68-.16-.6c-.51-2-1.2-4.57-1.89-7.22-.36-1.34-.71-2.69-1.06-4-.12-.46-.23-.91-.35-1.34l-.74-2.83c-.11-.41-.22-.8-.31-1.15,0-.15-.08-.29-.11-.42a7,7,0,0,1-.17-.84,5.51,5.51,0,0,1-.06-.57,5.58,5.58,0,0,1,0-.91,7.28,7.28,0,0,1,.28-1.71,6.12,6.12,0,0,1,.24-.76l.06-.15a4.41,4.41,0,0,1,.26-.59c.07-.17.16-.33.24-.48h0a10.79,10.79,0,0,1,.87-1.32,2.56,2.56,0,0,1,.2-.26l.4-.46.15-.16a10.19,10.19,0,0,1,1-.94h0l1.27-.5,0,0,.95-.38,2.72-1.08.22-.09.66-.26,2.59-1,2.53-1,.29-.11.24-.09.42-.16.32-.12.21-.08a.42.42,0,0,0,.06.08.61.61,0,0,0,.07.1,14.86,14.86,0,0,0,4.6,4.28A25.83,25.83,0,0,0,50,17.13h.08l.79-.14a28,28,0,0,0,9.24-3.28l.09-.05C65.23,11,66,8.13,66,7.88v0l.1,0,.14,0a55.75,55.75,0,0,1,6.44,1.78l.17.07A33.54,33.54,0,0,1,79.21,13l.18.17.18.18a1.8,1.8,0,0,1,.19.2A8.41,8.41,0,0,1,81.22,18.89Z"/><path class="cls-2" d="M100.15,43.36l-1.52.93-1.49.91h0l-4.42,2.71h0l-1.47.9L87,51.42h0L83.8,53.35l-1.67-2.11L79.9,48.42l-.75-1L77.21,45l-.33-.42-.61-.77c0-.06,0-.12,0-.18s0,0,0-.06c.08-.37.16-.74.23-1.09.12-.52.22-1,.32-1.51.07-.3.13-.59.19-.88l.18-.84c0-.12.05-.24.08-.36l.15-.72q.07-.37.15-.72c.07-.31.13-.6.19-.89.13-.58.24-1.13.35-1.64.08-.35.15-.69.22-1s.13-.6.19-.89c0-.08,0-.16.05-.25s.09-.41.13-.61.07-.32.1-.47.09-.4.13-.59l.12-.56a1.16,1.16,0,0,1,0-.18l.09-.43.06-.28c0-.18.07-.36.11-.52s.07-.32.1-.47l.2-.92.06-.31.1-.46c.07-.34.11-.52.13-.61l0-.1,0-.1.82-3.87c.15-.82.25-1.56.31-2.24,0-.23,0-.45,0-.66s0-.35,0-.52a9.76,9.76,0,0,0-.66-4.13,4,4,0,0,0-.8-1.18,1.8,1.8,0,0,0-.19-.2l-.18-.18L79.21,13A33.54,33.54,0,0,0,72.9,9.76l-.17-.07a33.84,33.84,0,0,0-6.44-1.78l-.14,0-.1,0L66.4,4s4,1.29,10.34,3.29,7.88,4.35,7.88,4.35L94,30.83l1.32,2.69.44.9,1.31,2.68.44.91,1.31,2.68.44.89Z"/><path class="cls-3" d="M40.27,1.49l-.12,0a.29.29,0,0,1,.1,0Z"/><path class="cls-3" d="M40.43,1.45l-.15,0a0,0,0,0,1,0,0Z"/><path class="cls-3" d="M48.77.21h-.09c-1.09.07-2.13.18-3.12.31l-.89.13L43.28.87c-.72.13-1.38.26-2,.39l-.44.1H40.8l-.29.07h-.08l-.15,0H40.2l-.05,0-.46.11c-.44.1-.82.2-1.13.29l-.2.06L38.19,2l-.13,0c2.2-.58,12-2.95,20.06-1.27A33.41,33.41,0,0,0,48.77.21Z"/><path class="cls-2" d="M34.78,8.09l-.21.08-.32.12-.42.16-.24.09-.29.11-2.58,1-2.62,1-.66.26-.22.09c-.94.36-1.85.74-2.7,1.09h0l-.93.39h0L22.32,13h0a10.19,10.19,0,0,0-1,.94l-.15.16-.4.46a2.56,2.56,0,0,0-.2.26,10.79,10.79,0,0,0-.87,1.32h0c-.08.15-.17.31-.24.48a4.41,4.41,0,0,0-.26.59l-.06.15a6.12,6.12,0,0,0-.24.76,7.28,7.28,0,0,0-.28,1.71,5.58,5.58,0,0,0,0,.91,5.51,5.51,0,0,0,.06.57,7,7,0,0,0,.17.84c0,.13.07.27.11.42.09.35.2.74.31,1.15L20,26.6c.12.43.23.88.35,1.34.35,1.29.7,2.64,1.06,4,.69,2.65,1.38,5.27,1.89,7.22l.16.6.71,2.68L17.14,53.35l-17-10.7C7,24.06,12.8,15.29,15.86,11.52a21.48,21.48,0,0,1,1.76-2A6.86,6.86,0,0,1,18.2,9l.18,0c1.23-.34,2.39-.67,3.5-1L23,7.65l3.06-1c4.83-1.6,7.69-2.81,7.69-2.81Z"/><path class="cls-1" d="M66.4,4l-.35,3.88v0c-.05.25-.81,3.07-5.83,5.78l-.09.05a13.32,13.32,0,0,1-1.31.65c-.28.14-.57.27-.88.4a42.9,42.9,0,0,1-7.84,2.37H50a25.83,25.83,0,0,1-10.5-4.58,14.86,14.86,0,0,1-4.6-4.28.61.61,0,0,1-.07-.1.42.42,0,0,1-.06-.08L33.72,3.86l.08,0,.13-.06,2.48-1,.07,0,1.12-.48.49,3.07c1,2.54,3.9,6,12.06,7.75,0,0,10.13-2.16,12.05-7.75l.41-3a1.89,1.89,0,0,1,.21.09A31.8,31.8,0,0,1,66.4,4Z"/><path class="cls-4" d="M62.2,5.28C60.28,10.87,50.15,13,50.15,13,42,11.29,39.1,7.82,38.09,5.28,48.74,1.71,61.75,5.16,62.2,5.28Z"/><path class="cls-1" d="M62.61,2.31l-.41,3c-.45-.12-13.46-3.57-24.11,0L37.6,2.21h0l.26-.08.15,0c2.2-.58,12-2.95,20.06-1.27.23,0,.45.09.68.15A21.4,21.4,0,0,1,62,2.05h0l0,0,.29.13v0Z"/><path class="cls-3" d="M62.61,2.3l-.21-.1"/><path class="cls-3" d="M62.11,2.07A18.15,18.15,0,0,0,58.8,1"/><path class="cls-3" d="M37.65,2.19h0"/><path class="cls-5" d="M74.78,56.64c-1.5-.16-2.94-.37-4.34-.6C48.28,52.42,36,38.18,20.38,27.94c.35,1.29.7,2.64,1.06,4,15.12,10.19,27.33,23.87,49,27.41,1.36.23,2.77.42,4.22.58Z"/><path class="cls-5" d="M75.07,52.26q-.13,1.62-.24,3.27c-1.51-.17-3-.35-4.39-.59C48.1,51.29,35.82,36.85,20,26.6l-.74-2.83c-.11-.41-.22-.8-.31-1.15,16.3,10.29,28.64,25.29,51.46,29C71.94,51.88,73.47,52.09,75.07,52.26Z"/><path class="cls-5" d="M75.55,47.9a1,1,0,0,1,0,.17c-.12.87-.22,1.76-.31,2.66,0,.15,0,.3,0,.45-1.63-.18-3.22-.39-4.74-.65C47.49,46.78,35.14,31.64,18.7,21.36a5.51,5.51,0,0,1-.06-.57,5.58,5.58,0,0,1,0-.91,7.28,7.28,0,0,1,.28-1.71C35.24,28.46,47.58,43.5,70.44,47.23,72.08,47.5,73.78,47.73,75.55,47.9Z"/><path class="cls-5" d="M76.32,43.59s0,0,0,.06,0,.12,0,.18c0,.23-.1.46-.14.7-.15.75-.29,1.51-.41,2.29-1.82-.18-3.59-.42-5.28-.69-22.72-3.71-35-18.58-51.24-28.87a4.41,4.41,0,0,1,.26-.59c.07-.17.16-.33.24-.48h0a10.79,10.79,0,0,1,.87-1.32c15.53,10.22,27.79,24.37,49.87,28C72.31,43.14,74.28,43.39,76.32,43.59Z"/><path class="cls-5" d="M77.24,39.27l-.18.84c-.06.29-.12.58-.19.88-.1.49-.2,1-.32,1.51q-3.18-.31-6.11-.78c-21.79-3.56-34-17.38-49.27-27.58l.15-.16a10.19,10.19,0,0,1,1-.94h0l1.23-.54s0,0,0,0c14.16,10,26.23,22.53,46.85,25.9Q73.68,39,77.24,39.27Z"/><path class="cls-5" d="M78.16,34.94c-.11.51-.22,1.06-.35,1.64-.06.29-.12.58-.19.89s-.1.47-.15.72c-2.45-.21-4.8-.5-7-.86C50.3,34,38.32,22,24.58,12.13c0,0,0,0-.06,0,.85-.35,1.76-.73,2.7-1.09l.22-.09.08.05C40.09,20.36,51.75,31,70.44,34,72.87,34.41,75.46,34.72,78.16,34.94Z"/></g></g></svg>