<svg viewBox="0 0 100.31 90.65" xmlns="http://www.w3.org/2000/svg"><path d="m37.72 2.05 1.63-.42c-.63.18-1.21.37-1.75.55v.89a6.22 6.22 0 0 1 0-.89v-.09h.06z" fill="none"/><path d="m62.33 4.75a11.13 11.13 0 0 0 .07-2.64 31.11 31.11 0 0 0 -3.08-1c1.12.26 2 .53 2.47.7l.3.11.2.08h.06s0 0 0 0a5.82 5.82 0 0 1 -.02 2.75z" fill="none"/><path d="m100.15 43.23-16.35 10-7.53-9.53c1.47-6.85 2.36-11 2.9-13.57 0-.19.08-.37.11-.54.58-2.69.7-3.27.73-3.4a27.86 27.86 0 0 0 1.21-7.26v-.12a9.76 9.76 0 0 0 -.66-4.13 4.71 4.71 0 0 0 -1-1.37 3.15 3.15 0 0 0 -.37-.36 21.55 21.55 0 0 0 -6.47-3.33l-1-.36a32.88 32.88 0 0 0 -5.08-1.35l-.47-.09h-.1l.35-3.88s4 1.29 10.34 3.29 7.88 4.35 7.88 4.35z" fill="#fed500" stroke="#808080" stroke-miterlimit="10" stroke-width=".25"/><path d="m34.78 8h-.06-.09l-1.15.43c-1.14.43-2.91 1.1-4.78 1.83-2.3.9-4.75 1.88-6.38 2.62a5.32 5.32 0 0 0 -2.61 3.17 8 8 0 0 0 -.83 6l.22.82c.05.2.11.4.16.61s.12.43.17.65c.18.68.37 1.41.58 2.18.1.39.2.78.31 1.18 0 .14.07.27.1.41s.15.55.22.82l.36 1.28c0 .14.08.28.11.42.11.43.23.85.34 1.28l.29 1.3c.11.42.23.84.33 1.25l.11.41.21.8c.25.93.48 1.8.69 2.6.09.35.17.68.26 1 .51 2 .86 3.28.86 3.28l-7 10.93-17.05-10.74c10.28-27.74 18.05-33.62 18.05-33.62 3.09-.85 5.82-1.7 8.1-2.46l.83-.28c4.16-1.41 6.59-2.43 6.59-2.43z" fill="#fed500" stroke="#808080" stroke-miterlimit="10" stroke-width=".25"/><g fill="none"><path d="m19.7 16.08a16.9 16.9 0 0 0 -.83 6 8 8 0 0 1 .83-6z"/><path d="m49.93 17h.07a26 26 0 0 1 -10.58-4.63 24 24 0 0 1 -4.54-4.28c3 3.65 7.41 6 10.71 7.39h.1c2.12.89 3.81 1.38 4.24 1.52z"/><path d="m50.08 17a41.56 41.56 0 0 0 8-2.45 35.16 35.16 0 0 1 -7.29 2.31l-.25.05h-.22z"/><path d="m37.59 3.08a7.67 7.67 0 0 0 .5 2.08c-.09-.05-.44-.46-.5-2.08z"/><path d="m62.21 5.16.1-.31a1.89 1.89 0 0 1 -.1.31z"/><path d="m62.41 2.11a5.82 5.82 0 0 1 -.08 2.64 11.13 11.13 0 0 0 .07-2.64 31.11 31.11 0 0 0 -3.08-1h-.07a43 43 0 0 0 -19.8.46h-.1c-.63.18-1.21.37-1.75.55v.89a6.22 6.22 0 0 1 0-.89q-.6.19-1.11.39l1.12-.48h.06.08.12l.26-.07.45-.13a.86.86 0 0 1 .23-.06l.25-.07c.74-.21 1.47-.38 2.18-.54 1.31-.31 2.54-.52 3.76-.68h.39a40.33 40.33 0 0 1 11.22.09l.33.05.23.05a28.09 28.09 0 0 1 4.62 1.18l.3.11.2.08.26.11z"/><path d="m65.59 8.56a13.34 13.34 0 0 1 -4.34 4.31 15.16 15.16 0 0 0 4.34-4.31z"/><path d="m72.74 9.57a21.55 21.55 0 0 1 6.47 3.33 34.65 34.65 0 0 0 -6.47-3.33z"/><path d="m81.23 18.89a27.86 27.86 0 0 1 -1.23 7.26l.84-4a22.15 22.15 0 0 0 .39-3.26z"/></g><path d="m81.23 18.77v.12a27.86 27.86 0 0 1 -1.23 7.26c0 .13-.15.71-.73 3.4 0 .17-.07.35-.11.54-.54 2.54-1.43 6.72-2.9 13.57-.09.42-.17.85-.25 1.28-3.31 17.65.25 45.55.25 45.55h-52.06s1.18-16.74 1.29-24.26c.09-5.6-.68-16.23-1.07-21.23-.13-1.66-.22-2.69-.22-2.69s-.35-1.31-.86-3.31c-.09-.31-.17-.64-.26-1-.21-.8-.44-1.67-.69-2.6l-.21-.8-.11-.41c-.1-.41-.22-.83-.33-1.25l-.33-1.26c-.11-.43-.23-.85-.34-1.28 0-.14-.07-.28-.11-.42l-.33-1.26c-.07-.27-.14-.55-.22-.82s-.06-.27-.1-.41c-.11-.4-.21-.79-.31-1.18-.21-.77-.4-1.5-.58-2.18-.05-.22-.11-.44-.17-.65s-.11-.41-.16-.61l-.22-.82a8 8 0 0 1 .83-6 11.18 11.18 0 0 1 2.61-3.17l12.32-4.88h.09.06c3 3.65 7.41 6 10.71 7.39h.1a36.92 36.92 0 0 0 4.34 1.61h.07.06l.28-.05h.22l.25-.05a27.85 27.85 0 0 0 9.23-3.24c.39-.23.75-.46 1.09-.69l.1-.07a15.16 15.16 0 0 0 4.34-4.31l.12-.19c.06-.11.13-.22.18-.33a.25.25 0 0 0 0-.07.54.54 0 0 1 .13-.14l.05-.1h.11a54.46 54.46 0 0 1 6.54 1.8 21.55 21.55 0 0 1 6.47 3.33 3.15 3.15 0 0 1 .37.36 8.07 8.07 0 0 1 1.69 5.52z" fill="#fed500" stroke="#808080" stroke-miterlimit="10" stroke-width=".25"/><path d="m37.59 3.08a7.67 7.67 0 0 0 .5 2.08c-.09-.05-.44-.46-.5-2.08z" fill="none"/><path d="m62.21 5.16.1-.31a1.89 1.89 0 0 1 -.1.31z" fill="none"/><path d="m62.4 2.09a31.11 31.11 0 0 0 -3.08-1h-.07a43 43 0 0 0 -19.8.46h-.1c-.63.18-1.21.37-1.75.55v-.01h.06.08.12l.26-.07.45-.13a.86.86 0 0 1 .23-.06l.25-.07c.39-.1.83-.22 1.34-.33 1.26-.38 2.81-.69 4.61-.95h.39c1.16-.16 2.41-.29 3.7-.36h.08c4.28-.24 9.08.12 13.19 2z" fill="none"/><path d="m66.4 3.85-.35 3.88-.05.1a.54.54 0 0 0 -.06.11.25.25 0 0 1 0 .07c0 .11-.12.22-.18.33l-.12.19a15.16 15.16 0 0 1 -4.34 4.31l-.1.07a24.19 24.19 0 0 1 -3 1.61 41.56 41.56 0 0 1 -8 2.45h-.2-.09c-.43-.13-2.12-.62-4.24-1.47h-.1l-.75-.32-.53-.24-.54-.25c-.29-.14-.59-.28-.89-.44l-.63-.34-.45-.24-.24-.14-.54-.36-.85-.53-.44-.29a22.89 22.89 0 0 1 -2-1.48l-.43-.37a21.07 21.07 0 0 1 -1.8-1.74c-.13-.14-.26-.29-.38-.44v-.05l-.1-.07-.05-.06v-.05l-1.23-4.35 2.67-1.13q.51-.19 1.11-.39a6.22 6.22 0 0 0 0 .89c.06 1.62.45 2 .5 2.08 1 2.54 3.91 6 12.06 7.74 0 0 10.13-2.16 12.06-7.74a1.89 1.89 0 0 0 .1-.31s0-.07 0-.1a5.82 5.82 0 0 0 .08-2.64l.25.09z" fill="#cb1a21"/><path d="m36.45 2.58-2.67 1.13a27.17 27.17 0 0 1 2.67-1.13z" fill="none"/><path d="m45.59 15.48a35.83 35.83 0 0 1 -6.15-3.1 14.79 14.79 0 0 1 -4.65-4.38c3.08 3.74 7.5 6.11 10.8 7.48z" fill="none"/><path d="m62.21 5.16c-1.93 5.58-12.06 7.74-12.06 7.74-8.15-1.73-11.05-5.2-12.06-7.74 10.84-3.63 24.12 0 24.12 0z" fill="#e6bf00"/><path d="m62.33 4.75s0 .07 0 .1l-.1.31s-13.28-3.63-24.12 0a7.67 7.67 0 0 1 -.5-2.08c0-.26 0-.56 0-.89.54-.18 1.12-.37 1.75-.55h.1a43 43 0 0 1 19.8-.46h.07a31.11 31.11 0 0 1 3.08 1 11.13 11.13 0 0 1 -.08 2.57z" fill="#cb1a21"/><path d="m37.59 3.07a6.22 6.22 0 0 1 0-.89c-.01.33-.01.63 0 .89z" fill="none"/><path d="m37.59 3.08a7.67 7.67 0 0 0 .5 2.08c-.09-.05-.44-.46-.5-2.08z" fill="none"/><path d="m57.17.67c.69.13 1.38.28 2.08.47a43 43 0 0 0 -19.8.46l1-.26.83-.21a39.86 39.86 0 0 1 7.77-1.06h.08a35.4 35.4 0 0 1 7.48.5l.33.05z" fill="none"/><path d="m62.21 5.16.1-.31a1.89 1.89 0 0 1 -.1.31z" fill="none"/><path d="m62.33 4.75a11.13 11.13 0 0 0 .07-2.64 5.82 5.82 0 0 1 -.07 2.64z" fill="none"/><path d="m66 7.86.05-.1c-.07.29-.87 3.15-6 5.87-.58.31-1.22.62-1.91.92a24.19 24.19 0 0 0 3-1.61l.1-.07a15.16 15.16 0 0 0 4.34-4.31l.12-.19c.06-.11.13-.22.18-.33a.25.25 0 0 0 0-.07.54.54 0 0 1 .12-.11z" fill="none"/><path d="m66.4 3.85-3.74-1.65a34.69 34.69 0 0 1 3.74 1.65z" fill="none"/><path d="m76.27 90.53h-4.13v-45.53h3.86c-3.29 17.63.27 45.53.27 45.53z" fill="#cb1a21"/><path d="m28.38 45v45.53h-4.18s1.18-16.74 1.29-24.26c.09-5.64-.68-16.27-1.07-21.27z" fill="#cb1a21"/><path d="m71.7 9.19-21.84 34.81-21.16-33.72c1.87-.73 3.64-1.4 4.78-1.83l16.38 25.79 16.76-26.4a32.88 32.88 0 0 1 5.08 1.35z" fill="#cb1a21"/></svg>