<svg xmlns="http://www.w3.org/2000/svg" viewBox="0 0 100.31 90.65"><defs><style>.cls-1{fill:none;}.cls-2{fill:#fed500;stroke:gray;stroke-miterlimit:10;stroke-width:0.25px;}.cls-3{fill:#cb1a21;}.cls-4{fill:#e6bf00;}</style></defs><g id="Layer_2" data-name="Layer 2"><g id="Layer_2-2" data-name="Layer 2"><path class="cls-1" d="M37.72,2.05l1.63-.42c-.63.18-1.21.37-1.75.55,0,.33,0,.63,0,.89a6.22,6.22,0,0,1,0-.89V2.09h0l.06,0Z"/><path class="cls-1" d="M62.33,4.75a11.13,11.13,0,0,0,.07-2.64,31.11,31.11,0,0,0-3.08-1c1.12.26,2,.53,2.47.7l.3.11.2.08h0l.06,0,0,0s0,0,0,0A5.82,5.82,0,0,1,62.33,4.75Z"/><path class="cls-2" d="M100.15,43.23l-16.35,10L76.27,43.7c1.47-6.85,2.36-11,2.9-13.57,0-.19.08-.37.11-.54.58-2.69.7-3.27.73-3.4v0h0a27.86,27.86,0,0,0,1.21-7.26v-.12a9.76,9.76,0,0,0-.66-4.13,4.71,4.71,0,0,0-1-1.37h0a3.15,3.15,0,0,0-.37-.36,21.55,21.55,0,0,0-6.47-3.33l0,0-1-.36a32.88,32.88,0,0,0-5.08-1.35l-.47-.09h-.1l.35-3.88s4,1.29,10.34,3.29,7.88,4.35,7.88,4.35Z"/><path class="cls-2" d="M34.78,8l-.06,0-.09,0-1.15.43c-1.14.43-2.91,1.1-4.78,1.83-2.3.9-4.75,1.88-6.38,2.62h0a5.32,5.32,0,0,0-2.61,3.17,8,8,0,0,0-.83,6l.22.82c.05.2.11.4.16.61s.12.43.17.65c.18.68.37,1.41.58,2.18.1.39.2.78.31,1.18,0,.14.07.27.1.41s.15.55.22.82L21,30c0,.14.08.28.11.42.11.43.23.85.34,1.28L21.74,33c.11.42.23.84.33,1.25l.11.41.21.8c.25.93.48,1.8.69,2.6.09.35.17.68.26,1,.51,2,.86,3.28.86,3.28l-7,10.93L.15,42.53C10.43,14.79,18.2,8.91,18.2,8.91c3.09-.85,5.82-1.7,8.1-2.46l.83-.28c4.16-1.41,6.59-2.43,6.59-2.43Z"/><path class="cls-1" d="M19.7,16.08a16.9,16.9,0,0,0-.83,6A8,8,0,0,1,19.7,16.08Z"/><path class="cls-1" d="M49.93,17,50,17a26,26,0,0,1-10.58-4.63h0a24,24,0,0,1-4.54-4.28c3,3.65,7.41,6,10.71,7.39l.1,0C47.81,16.37,49.5,16.86,49.93,17Z"/><path class="cls-1" d="M50.08,17a41.56,41.56,0,0,0,8-2.45,35.16,35.16,0,0,1-7.29,2.31l-.25.05-.22,0Z"/><path class="cls-1" d="M37.59,3.08a7.67,7.67,0,0,0,.5,2.08C38,5.11,37.65,4.7,37.59,3.08Z"/><path class="cls-1" d="M62.21,5.16l.1-.31A1.89,1.89,0,0,1,62.21,5.16Z"/><path class="cls-1" d="M62.41,2.11a5.82,5.82,0,0,1-.08,2.64,11.13,11.13,0,0,0,.07-2.64,31.11,31.11,0,0,0-3.08-1h-.07a43,43,0,0,0-19.8.46l-.1,0c-.63.18-1.21.37-1.75.55,0,.33,0,.63,0,.89a6.22,6.22,0,0,1,0-.89q-.6.19-1.11.39l1.12-.48h0l.06,0h.08l.12,0,.26-.07.45-.13a.86.86,0,0,1,.23-.06l.25-.07c.74-.21,1.47-.38,2.18-.54h0C42.55.85,43.78.64,45,.48l.39,0A40.33,40.33,0,0,1,56.61.57l.33.05.23.05a28.09,28.09,0,0,1,4.62,1.18l.3.11.2.08h0l0,0,0,0,.26.11Z"/><path class="cls-1" d="M65.59,8.56a13.34,13.34,0,0,1-4.34,4.31A15.16,15.16,0,0,0,65.59,8.56Z"/><path class="cls-1" d="M72.74,9.57a21.55,21.55,0,0,1,6.47,3.33A34.65,34.65,0,0,0,72.74,9.57Z"/><path class="cls-1" d="M81.23,18.89A27.86,27.86,0,0,1,80,26.15l.84-4A22.15,22.15,0,0,0,81.23,18.89Z"/><path class="cls-2" d="M81.23,18.77v.12A27.86,27.86,0,0,1,80,26.15h0v0c0,.13-.15.71-.73,3.4,0,.17-.07.35-.11.54-.54,2.54-1.43,6.72-2.9,13.57-.09.42-.17.85-.25,1.28-3.31,17.65.25,45.55.25,45.55H24.2s1.18-16.74,1.29-24.26C25.58,60.63,24.81,50,24.42,45c-.13-1.66-.22-2.69-.22-2.69S23.85,41,23.34,39c-.09-.31-.17-.64-.26-1-.21-.8-.44-1.67-.69-2.6l-.21-.8-.11-.41c-.1-.41-.22-.83-.33-1.25l-.33-1.26c-.11-.43-.23-.85-.34-1.28,0-.14-.07-.28-.11-.42l-.33-1.26c-.07-.27-.14-.55-.22-.82s-.06-.27-.1-.41c-.11-.4-.21-.79-.31-1.18-.21-.77-.4-1.5-.58-2.18-.05-.22-.11-.44-.17-.65s-.11-.41-.16-.61l-.22-.82a8,8,0,0,1,.83-6,11.18,11.18,0,0,1,2.61-3.17h0L34.63,8l.09,0,.06,0h0l0,0,0,0,0,0c3,3.65,7.41,6,10.71,7.39l.1,0A36.92,36.92,0,0,0,49.93,17L50,17h.06l.28-.05.22,0,.25-.05a27.85,27.85,0,0,0,9.23-3.24c.39-.23.75-.46,1.09-.69l.1-.07a15.16,15.16,0,0,0,4.34-4.31l.12-.19c.06-.11.13-.22.18-.33a.25.25,0,0,0,0-.07A.54.54,0,0,1,66,7.86l.05-.1v0h.11a54.46,54.46,0,0,1,6.54,1.8l0,0a21.55,21.55,0,0,1,6.47,3.33,3.15,3.15,0,0,1,.37.36h0A8.07,8.07,0,0,1,81.23,18.77Z"/><path class="cls-1" d="M37.59,3.08a7.67,7.67,0,0,0,.5,2.08C38,5.11,37.65,4.7,37.59,3.08Z"/><path class="cls-1" d="M62.21,5.16l.1-.31A1.89,1.89,0,0,1,62.21,5.16Z"/><path class="cls-1" d="M62.4,2.09v0a31.11,31.11,0,0,0-3.08-1h-.07a43,43,0,0,0-19.8.46l-.1,0c-.63.18-1.21.37-1.75.55V2.09h0l.06,0h.08l.12,0,.26-.07.45-.13a.86.86,0,0,1,.23-.06l.25-.07c.39-.1.83-.22,1.34-.33h0C41.65,1.05,43.2.74,45,.48l.39,0c1.16-.16,2.41-.29,3.7-.36h.08c4.28-.24,9.08.12,13.19,2l0,0Z"/><path class="cls-3" d="M66.4,3.85l-.35,3.88h0v0l-.05.1a.54.54,0,0,0-.06.11.25.25,0,0,1,0,.07c0,.11-.12.22-.18.33l-.12.19a15.16,15.16,0,0,1-4.34,4.31l-.1.07a24.19,24.19,0,0,1-3,1.61h0a41.56,41.56,0,0,1-8,2.45H50l-.09,0c-.43-.13-2.12-.62-4.24-1.47l-.1,0-.75-.32-.53-.24-.54-.25c-.29-.14-.59-.28-.89-.44l-.63-.34-.45-.24-.24-.14L41,13.17l-.85-.53-.44-.29a22.89,22.89,0,0,1-2-1.48l-.43-.37a21.07,21.07,0,0,1-1.8-1.74c-.13-.14-.26-.29-.38-.44l0-.05L35,8.2l-.05-.06,0-.05,0,0,0,0,0,0h0L33.72,3.74h0l0,0,2.67-1.13h0q.51-.19,1.11-.39a6.22,6.22,0,0,0,0,.89h0c.06,1.62.45,2,.5,2.08h0c1,2.54,3.91,6,12.06,7.74,0,0,10.13-2.16,12.06-7.74a1.89,1.89,0,0,0,.1-.31s0-.07,0-.1a5.82,5.82,0,0,0,.08-2.64l.25.09Z"/><path class="cls-1" d="M36.45,2.58,33.78,3.71A27.17,27.17,0,0,1,36.45,2.58Z"/><path class="cls-1" d="M45.59,15.48a35.83,35.83,0,0,1-6.15-3.1h0A14.79,14.79,0,0,1,34.79,8l0,0,0,0,0,0C37.87,11.74,42.29,14.11,45.59,15.48Z"/><path class="cls-4" d="M62.21,5.16c-1.93,5.58-12.06,7.74-12.06,7.74C42,11.17,39.1,7.7,38.09,5.16,48.93,1.53,62.21,5.16,62.21,5.16Z"/><path class="cls-3" d="M62.33,4.75s0,.07,0,.1l-.1.31s-13.28-3.63-24.12,0h0a7.67,7.67,0,0,1-.5-2.08h0c0-.26,0-.56,0-.89.54-.18,1.12-.37,1.75-.55l.1,0a43,43,0,0,1,19.8-.46h.07a31.11,31.11,0,0,1,3.08,1A11.13,11.13,0,0,1,62.33,4.75Z"/><path class="cls-1" d="M37.59,3.07a6.22,6.22,0,0,1,0-.89h0C37.58,2.51,37.58,2.81,37.59,3.07Z"/><path class="cls-1" d="M37.59,3.08a7.67,7.67,0,0,0,.5,2.08C38,5.11,37.65,4.7,37.59,3.08Z"/><path class="cls-1" d="M57.17.67c.69.13,1.38.28,2.08.47a43,43,0,0,0-19.8.46l1-.26h0l.83-.21h0A39.86,39.86,0,0,1,49.05.07h.08a35.4,35.4,0,0,1,7.48.5l.33.05Z"/><path class="cls-1" d="M62.21,5.16l.1-.31A1.89,1.89,0,0,1,62.21,5.16Z"/><path class="cls-1" d="M62.33,4.75a11.13,11.13,0,0,0,.07-2.64h0A5.82,5.82,0,0,1,62.33,4.75Z"/><path class="cls-1" d="M66,7.86l.05-.1c-.07.29-.87,3.15-6,5.87-.58.31-1.22.62-1.91.92a24.19,24.19,0,0,0,3-1.61l.1-.07a15.16,15.16,0,0,0,4.34-4.31l.12-.19c.06-.11.13-.22.18-.33a.25.25,0,0,0,0-.07A.54.54,0,0,1,66,7.86Z"/><path class="cls-1" d="M66.4,3.85,62.66,2.2A34.69,34.69,0,0,1,66.4,3.85Z"/><path class="cls-3" d="M76.27,90.53H72.14V45H76C72.71,62.63,76.27,90.53,76.27,90.53Z"/><path class="cls-3" d="M28.38,45V90.53H24.2s1.18-16.74,1.29-24.26C25.58,60.63,24.81,50,24.42,45Z"/><path class="cls-3" d="M71.7,9.19,49.86,44,28.7,10.28c1.87-.73,3.64-1.4,4.78-1.83L49.86,34.24,66.62,7.84A32.88,32.88,0,0,1,71.7,9.19Z"/></g></g></svg>