<svg viewBox="0 0 100.31 90.78" xmlns="http://www.w3.org/2000/svg"><g stroke-miterlimit="10" stroke-width=".25"><g stroke="#1a1a1a"><path d="m37.78 2.16c.61-.17 1.21-.32 1.8-.47-.72.2-1.38.41-2 .61v.55a4.68 4.68 0 0 1 0-.54.65.65 0 0 1 0-.1z" fill="#fff"/><path d="m62.4 2.21c-1-.38-2.07-.7-3.09-1 .75.18 1.37.35 1.86.5l.6.2h.12l.28.1z" fill="#fff"/><path d="m62.32 4.86a11.1 11.1 0 0 0 .08-2.62 5.73 5.73 0 0 1 -.08 2.62z" fill="#fff"/><path d="m34.78 8.09h-.11l-.26.1-.19.07-.47.18-.24.09c-2.51.98-8.24 3.15-11.19 4.47a5.29 5.29 0 0 0 -2.61 3.14 8 8 0 0 0 -.83 6c.28 1 .64 2.42 1.05 4 1 4 2.39 9.07 3.28 12.48.05.16.09.32.13.47l.16.6c.43 1.64.71 2.68.71 2.68l-7.07 10.98-17-10.7c.59-1.58 1.17-3.1 1.74-4.54 6-15.29 11-22.93 13.84-26.44a16.55 16.55 0 0 1 2.48-2.67 138.3 138.3 0 0 0 15.52-5.14z" fill="#fff"/><path d="m18.87 22.2a8 8 0 0 1 .83-6 17 17 0 0 0 -.83 6z" fill="none"/><path d="m100.15 43.36-16.36 10-7.52-9.52c.41-1.93.78-3.64 1.1-5.17l1.73-8.1c0-.21.09-.41.13-.61l.06-.28c0-.18.07-.36.11-.52s.07-.32.1-.47l.2-.92.06-.31.1-.46c.07-.34.11-.52.13-.61v-.1-.1a27.73 27.73 0 0 0 1.13-6.12c0-.22 0-.45 0-.66s0-.34 0-.51a9.76 9.76 0 0 0 -.66-4.13 4 4 0 0 0 -.8-1.18 1.8 1.8 0 0 0 -.19-.2l-.18-.18-.08-.21a20.87 20.87 0 0 0 -6.21-3.21l-.26-.1a33.2 33.2 0 0 0 -6-1.7l-.41-.08h-.14-.1l.31-3.91s4 1.29 10.34 3.29 7.88 4.35 7.88 4.35l.81 1.65 13.12 26.79z" fill="#fff"/><path d="m62.4 2.21-.17-.07a.61.61 0 0 0 -.23-.09h-.11-.12l-.6-.2a29 29 0 0 0 -4.61-1.16 40.45 40.45 0 0 0 -11-.16l-1.18.16-1.1.18c-.41.06-.82.14-1.24.22a3 3 0 0 0 -.43.09c-.51.11-1 .23-1.57.37l-.43.1-.6.16-.45.12-.2.06-.17.01-.3.08h-.11-.18l-1.12.48 1.1-.38a4.68 4.68 0 0 0 0 .54c0-.17 0-.36 0-.55.6-.2 1.26-.41 2-.61h.07a43.7 43.7 0 0 1 18.87-.58l.4.09.39.09c1 .27 2 .59 3.09 1l.21.07zm-.08 2.65a5.73 5.73 0 0 0 .08-2.62 11.1 11.1 0 0 1 -.08 2.62zm-24.24.41a7.81 7.81 0 0 1 -.49-2c.05 1.54.41 1.96.49 2zm11.66 11.79-.56-.17-.51-.16-.62-.2-.34-.12a0 0 0 0 0 0 0l-1-.36-1.16-.46a28.75 28.75 0 0 1 -10.07-6.67 25 25 0 0 0 4 3.58 25.92 25.92 0 0 0 10.52 4.63zm.35.07c.17 0 .34-.05.5-.09l.25-.05h.28a36.71 36.71 0 0 0 6-1.86 44.14 44.14 0 0 1 -7.03 2zm11.45-4.33a13.32 13.32 0 0 0 3.46-3.29 16.28 16.28 0 0 1 -3.46 3.29z" fill="none"/><path d="m79.21 13a34.73 34.73 0 0 0 -6.21-3.21 20.87 20.87 0 0 1 6.21 3.21z" fill="none"/><path d="m81.17 20.06a27.73 27.73 0 0 1 -1.17 6.12l.82-3.87c.18-.82.29-1.56.35-2.25z" fill="none"/><path d="m76.27 43.83a96.2 96.2 0 0 0 -1.65 18.58c0 4.63.11 9.2.35 13.27.49 8.59 1.3 15 1.3 15h-52.07s.54-7.68.92-15c.18-3.47.33-6.86.37-9.28 0-1.15 0-2.51 0-4-.24-8.2-1.25-20-1.25-20s-.28-1-.71-2.68l-.16-.6c0-.15-.08-.31-.13-.47h54.13c-.32 1.54-.69 3.25-1.1 5.18z" fill="#fff"/><path d="m81.22 18.89v.51s0 .44 0 .66c-.06.69-.16 1.43-.31 2.25l-.91 3.87h-60.08c-.41-1.56-.77-2.94-1.05-4a17 17 0 0 1 .83-6 11.34 11.34 0 0 1 2.61-3.18l11.2-4.43.24-.09.47-.18.19-.07.26-.1h.11a.42.42 0 0 0 .06.08 14.65 14.65 0 0 0 4.6 4.33 25.92 25.92 0 0 0 10.56 4.59h.08c.17 0 .34-.05.5-.09l.25-.05h.28a27.36 27.36 0 0 0 9.08-3.27l.11-.06c4.94-2.75 5.7-5.53 5.7-5.78h.1.14l.41.08a53.32 53.32 0 0 1 6.35 1.83 34.73 34.73 0 0 1 6.21 3.21l.18.17.18.18a1.8 1.8 0 0 1 .19.2 8.41 8.41 0 0 1 1.46 5.34z" fill="#fff"/><path d="m19.7 16.19a17 17 0 0 0 -.83 6 8 8 0 0 1 .83-6z" fill="#fff"/><path d="m50 17.13a25.92 25.92 0 0 1 -10.56-4.63 14.65 14.65 0 0 1 -4.6-4.33l.07.09.1.12.44.51a28.75 28.75 0 0 0 10.06 6.66l1.19.45c.35.14.69.26 1 .36a0 0 0 0 1 0 0l.34.12.62.2.51.16.56.17z" fill="#fff"/><path d="m66 7.88c0 .25-.79 3-5.72 5.73.41-.25.8-.51 1.16-.76h.07a16.28 16.28 0 0 0 3.49-3.34c.09-.13.19-.25.27-.37s.32-.46.45-.7.28-.44.28-.5z" fill="#fff"/><path d="m73 9.79a20.87 20.87 0 0 1 6.21 3.21 34.73 34.73 0 0 0 -6.21-3.21z" fill="#fff"/><path d="m81.17 20.06a27.73 27.73 0 0 1 -1.17 6.12l.82-3.87c.18-.82.29-1.56.35-2.25z" fill="#fff"/><path d="m37.59 3.22a7.81 7.81 0 0 0 .49 2s-.44-.41-.49-2z" fill="#fff"/><path d="m62.4 2.21c-1-.38-2.07-.7-3.09-1l-.39-.09-.4-.09a43.7 43.7 0 0 0 -18.87.58h-.07c-.72.2-1.38.41-2 .61v-.01h.18.11l.3-.08.19-.13.2-.06.44-.13.6-.16.43-.1.24-.05.2-.05.37-.09.44-.1c.61-.13 1.27-.26 2-.39l1.1-.18 1.18-.17c1-.13 2-.24 3.12-.31h.09c4.23-.27 9.09.03 13.23 1.84a.61.61 0 0 1 .17.07z" fill="#fff"/><path d="m33.93 3.76 2.48-1c-1.25.42-2.1.82-2.48 1zm1.55 5.16-.48-.54-.1-.12-.07-.09a14.65 14.65 0 0 0 4.6 4.33 35.66 35.66 0 0 0 6.1 3.08 28.75 28.75 0 0 1 -10.05-6.66zm26.92-6.68a11.1 11.1 0 0 1 -.08 2.62 5.73 5.73 0 0 0 .08-2.62zm-5.88-1.56a35.9 35.9 0 0 0 -7.75-.47h-.09a39.58 39.58 0 0 0 -6.68.88 3 3 0 0 0 -.43.09l-.32.08-.44.1-.37.09-.2.05-.63.17a43.7 43.7 0 0 1 18.87-.58c-.66-.16-1.31-.29-2-.4zm-18.44 4.59a7.81 7.81 0 0 1 -.49-2c.05 1.54.41 1.96.49 2zm-.5-3a4.68 4.68 0 0 0 0 .54c0-.17 0-.36 0-.55.01.04 0 .04 0 .05zm28.42 5.67c0 .09-.13.27-.26.5s-.3.47-.45.7-.18.24-.27.37a16.28 16.28 0 0 1 -3.48 3.29h-.07a22.41 22.41 0 0 1 -3.14 1.73c.68-.29 1.3-.6 1.87-.91l.11-.06c4.93-2.65 5.69-5.43 5.69-5.68zm-3.18-5.54 3.58 1.6a31.8 31.8 0 0 0 -3.58-1.6z" fill="none"/><path d="m62.32 4.86s0 0 0 0a3.57 3.57 0 0 1 -.1.35s-13.27-3.63-24.11 0a7.81 7.81 0 0 1 -.49-2c0-.11 0-.22 0-.34s0-.36 0-.55c.6-.2 1.26-.41 2-.61h.07a43.7 43.7 0 0 1 18.87-.58l.4.09.39.09c1 .27 2 .59 3.09 1a11.1 11.1 0 0 1 -.12 2.55z" fill="#fed500"/><path d="m66.4 4-.4 3.86v.06c0 .09-.13.27-.26.5s-.3.47-.45.7-.18.24-.27.37a16.28 16.28 0 0 1 -3.48 3.29h-.07a22.41 22.41 0 0 1 -3.14 1.73c-.13.07-.26.12-.4.18l-.79.32a44.14 44.14 0 0 1 -7 2h-.14l-.27-.07-.56-.17-.51-.16-.62-.2-.34-.12a0 0 0 0 0 0 0l-1-.36-1.16-.46a28.75 28.75 0 0 1 -10.06-6.55l-.48-.54-.1-.12-.07-.09a.42.42 0 0 1 -.06-.08l-1.05-4.23h.08l.13-.06 2.48-1h.07l1.1-.38a4.68 4.68 0 0 0 0 .54v.34c0 1.59.44 2 .49 2 1 2.54 3.9 6 12.06 7.75 0 0 10.13-2.16 12.05-7.75a3.57 3.57 0 0 0 .1-.35s0 0 0 0a5.73 5.73 0 0 0 .08-2.62l.21.07.21.09z" fill="#fed500"/><path d="m62.2 5.28c-1.92 5.59-12.05 7.72-12.05 7.72-8.15-1.71-11.05-5.18-12.06-7.72 10.84-3.63 24.11 0 24.11 0z" fill="#eee"/><path d="m80 26.18v.1.1c0 .09-.06.27-.13.61l-.1.46-.06.31c-.06.26-.13.57-.2.92 0 .15-.07.31-.1.47s-.07.34-.11.52l-.06.28c0 .2-.09.4-.13.61l-1.73 8.1h-54.18c-.89-3.41-2.23-8.51-3.28-12.48z" fill="#800000"/></g><path d="m40.72 74 2.88 1.7h-18.48c.18-2.21.33-4.37.37-5.91 0-.73 0-1.6 0-2.54h17.8l-2.81 1.92c-2.05 1.36-1.93 3.53.24 4.83z" fill="#800000" stroke="#808080"/><path d="m59.65 73.54c2-1.38 1.89-3.55-.28-4.83l-2.5-1.48h17.75a80.89 80.89 0 0 0 .38 8.45h-18.48z" fill="#800000" stroke="#808080"/><path d="m98.55 40.08-3.42 1.74-13.52-26.61 3.82-1.94z" fill="#800000" stroke="#1a1a1a"/><path d="m19.69 13.73-13.69 26.49-4.11-2.11c6-15.29 11-22.93 13.84-26.44z" fill="#800000" stroke="#1a1a1a"/></g></svg>