<svg xmlns="http://www.w3.org/2000/svg" viewBox="0 0 100.31 90.78"><defs><style>.cls-1{fill:#fff;}.cls-1,.cls-2,.cls-3,.cls-4,.cls-5{stroke:#1a1a1a;}.cls-1,.cls-2,.cls-3,.cls-4,.cls-5,.cls-6{stroke-miterlimit:10;stroke-width:0.25px;}.cls-2{fill:none;}.cls-3{fill:#fed500;}.cls-4{fill:#eee;}.cls-5,.cls-6{fill:maroon;}.cls-6{stroke:gray;}</style></defs><g id="Layer_2" data-name="Layer 2"><g id="Layer_2-2" data-name="Layer 2"><path class="cls-1" d="M37.78,2.16c.61-.17,1.21-.32,1.8-.47-.72.2-1.38.41-2,.61,0,.19,0,.38,0,.55a4.68,4.68,0,0,1,0-.54.65.65,0,0,1,0-.1Z"/><path class="cls-1" d="M62.4,2.21v0c-1-.38-2.07-.7-3.09-1,.75.18,1.37.35,1.86.5l.6.2h0l.12,0,.28.1,0,0Z"/><path class="cls-1" d="M62.32,4.86a11.1,11.1,0,0,0,.08-2.62A5.73,5.73,0,0,1,62.32,4.86Z"/><path class="cls-1" d="M34.78,8.09l-.11,0-.26.1-.19.07-.47.18-.24.09C31,9.51,25.27,11.68,22.32,13h0a5.29,5.29,0,0,0-2.61,3.14h0a8,8,0,0,0-.83,6c.28,1,.64,2.42,1.05,4,1,4,2.39,9.07,3.28,12.48.05.16.09.32.13.47l.16.6c.43,1.64.71,2.68.71,2.68L17.14,53.35l-17-10.7c.59-1.58,1.17-3.1,1.74-4.54,6-15.29,11-22.93,13.84-26.44A16.55,16.55,0,0,1,18.2,9,138.3,138.3,0,0,0,33.72,3.86Z"/><path class="cls-2" d="M18.87,22.2a8,8,0,0,1,.83-6A17,17,0,0,0,18.87,22.2Z"/><path class="cls-1" d="M100.15,43.36l-16.36,10-7.52-9.52c.41-1.93.78-3.64,1.1-5.17l1.73-8.1c0-.21.09-.41.13-.61l.06-.28c0-.18.07-.36.11-.52s.07-.32.1-.47l.2-.92.06-.31.1-.46c.07-.34.11-.52.13-.61l0-.1,0-.1a27.73,27.73,0,0,0,1.13-6.12c0-.22,0-.45,0-.66s0-.34,0-.51a9.76,9.76,0,0,0-.66-4.13,4,4,0,0,0-.8-1.18,1.8,1.8,0,0,0-.19-.2l-.18-.18L79.21,13A20.87,20.87,0,0,0,73,9.79l-.26-.1a33.2,33.2,0,0,0-6-1.7l-.41-.08-.14,0-.1,0L66.4,4s4,1.29,10.34,3.29,7.88,4.35,7.88,4.35l.81,1.65L98.55,40.08Z"/><path class="cls-2" d="M62.4,2.21l-.17-.07,0,0A.61.61,0,0,0,62,2.05l-.11,0-.12,0h0l-.6-.2A29,29,0,0,0,56.56.69h0a40.45,40.45,0,0,0-11-.16L44.38.69l-1.1.18c-.41.06-.82.14-1.24.22a3,3,0,0,0-.43.09c-.51.11-1,.23-1.57.37l-.43.1-.6.16-.45.12-.2.06L38.19,2l-.3.08-.11,0-.18,0-1.12.48,1.1-.38a4.68,4.68,0,0,0,0,.54c0-.17,0-.36,0-.55.6-.2,1.26-.41,2-.61l.07,0a43.7,43.7,0,0,1,18.87-.58l.4.09.39.09c1,.27,2,.59,3.09,1l.21.07Zm-.08,2.65a5.73,5.73,0,0,0,.08-2.62A11.1,11.1,0,0,1,62.32,4.86Zm-24.24.41a7.81,7.81,0,0,1-.49-2C37.64,4.81,38,5.23,38.08,5.27ZM49.74,17.06l-.56-.17-.51-.16-.62-.2-.34-.12a0,0,0,0,0,0,0l-1-.36-1.16-.46A28.75,28.75,0,0,1,35.48,8.92a25,25,0,0,0,4,3.58A25.92,25.92,0,0,0,50,17.13Zm.35.07c.17,0,.34-.05.5-.09l.25-.05.28,0a36.71,36.71,0,0,0,6-1.86A44.14,44.14,0,0,1,50.09,17.13ZM61.54,12.8A13.32,13.32,0,0,0,65,9.51,16.28,16.28,0,0,1,61.54,12.8Z"/><path class="cls-2" d="M79.21,13A34.73,34.73,0,0,0,73,9.79,20.87,20.87,0,0,1,79.21,13Z"/><path class="cls-2" d="M81.17,20.06A27.73,27.73,0,0,1,80,26.18l.82-3.87C81,21.49,81.11,20.75,81.17,20.06Z"/><path class="cls-1" d="M76.27,43.83a96.2,96.2,0,0,0-1.65,18.58c0,4.63.11,9.2.35,13.27.49,8.59,1.3,15,1.3,15H24.2s.54-7.68.92-15c.18-3.47.33-6.86.37-9.28,0-1.15,0-2.51,0-4-.24-8.2-1.25-20-1.25-20s-.28-1-.71-2.68l-.16-.6c0-.15-.08-.31-.13-.47H77.37C77.05,40.19,76.68,41.9,76.27,43.83Z"/><path class="cls-1" d="M81.22,18.89c0,.17,0,.34,0,.51s0,.44,0,.66c-.06.69-.16,1.43-.31,2.25L80,26.18H19.92c-.41-1.56-.77-2.94-1.05-4a17,17,0,0,1,.83-6h0A11.34,11.34,0,0,1,22.31,13h0L33.51,8.57l.24-.09.47-.18.19-.07.26-.1.11,0a.42.42,0,0,0,.06.08,14.65,14.65,0,0,0,4.6,4.33A25.92,25.92,0,0,0,50,17.13h.08c.17,0,.34-.05.5-.09l.25-.05.28,0a27.36,27.36,0,0,0,9.08-3.27l.11-.06C65.24,10.91,66,8.13,66,7.88v0l.1,0,.14,0,.41.08A53.32,53.32,0,0,1,73,9.79,34.73,34.73,0,0,1,79.21,13l.18.17.18.18a1.8,1.8,0,0,1,.19.2A8.41,8.41,0,0,1,81.22,18.89Z"/><path class="cls-1" d="M19.7,16.19a17,17,0,0,0-.83,6A8,8,0,0,1,19.7,16.19Z"/><path class="cls-1" d="M50,17.13A25.92,25.92,0,0,1,39.44,12.5a14.65,14.65,0,0,1-4.6-4.33l.07.09.1.12.44.51,0,0a28.75,28.75,0,0,0,10.06,6.66L46.7,16c.35.14.69.26,1,.36a0,0,0,0,1,0,0l.34.12.62.2.51.16.56.17Z"/><path class="cls-1" d="M66,7.88c0,.25-.79,3-5.72,5.73.41-.25.8-.51,1.16-.76l.07,0A16.28,16.28,0,0,0,65,9.51c.09-.13.19-.25.27-.37s.32-.46.45-.7S66,8,66,7.94Z"/><path class="cls-1" d="M73,9.79A20.87,20.87,0,0,1,79.21,13,34.73,34.73,0,0,0,73,9.79Z"/><path class="cls-1" d="M81.17,20.06A27.73,27.73,0,0,1,80,26.18l.82-3.87C81,21.49,81.11,20.75,81.17,20.06Z"/><path class="cls-1" d="M37.59,3.22a7.81,7.81,0,0,0,.49,2S37.64,4.81,37.59,3.22Z"/><path class="cls-1" d="M62.4,2.21v0c-1-.38-2.07-.7-3.09-1l-.39-.09-.4-.09a43.7,43.7,0,0,0-18.87.58l-.07,0c-.72.2-1.38.41-2,.61V2.21l.18,0,.11,0,.3-.08L38.36,2l.2-.06L39,1.81l.6-.16.43-.1.24-.05.2-.05.37-.09.44-.1c.61-.13,1.27-.26,2-.39l1.1-.18L45.56.52c1-.13,2-.24,3.12-.31h.09C53-.06,57.86.24,62,2.05a.61.61,0,0,1,.17.07l0,0Z"/><path class="cls-2" d="M33.93,3.76l2.48-1C35.16,3.18,34.31,3.58,33.93,3.76Zm1.55,5.16,0,0L35,8.38l-.1-.12-.07-.09a14.65,14.65,0,0,0,4.6,4.33,35.66,35.66,0,0,0,6.1,3.08A28.75,28.75,0,0,1,35.48,8.92ZM62.4,2.24a11.1,11.1,0,0,1-.08,2.62A5.73,5.73,0,0,0,62.4,2.24ZM56.52.68A35.9,35.9,0,0,0,48.77.21h-.09A39.58,39.58,0,0,0,42,1.09a3,3,0,0,0-.43.09l-.32.08-.44.1-.37.09-.2.05-.63.17a43.7,43.7,0,0,1,18.87-.58c-.66-.16-1.31-.29-2-.4ZM38.08,5.27a7.81,7.81,0,0,1-.49-2C37.64,4.81,38,5.23,38.08,5.27Zm-.5-3a4.68,4.68,0,0,0,0,.54c0-.17,0-.36,0-.55C37.59,2.3,37.58,2.3,37.58,2.31ZM66,7.94c0,.09-.13.27-.26.5s-.3.47-.45.7-.18.24-.27.37a16.28,16.28,0,0,1-3.48,3.29l-.07,0a22.41,22.41,0,0,1-3.14,1.73c.68-.29,1.3-.6,1.87-.91l.11-.06C65.24,10.91,66,8.13,66,7.88ZM62.82,2.4,66.4,4A31.8,31.8,0,0,0,62.82,2.4Z"/><path class="cls-3" d="M62.32,4.86s0,0,0,0a3.57,3.57,0,0,1-.1.35l0,0s-13.27-3.63-24.11,0h0a7.81,7.81,0,0,1-.49-2v0c0-.11,0-.22,0-.34s0-.36,0-.55c.6-.2,1.26-.41,2-.61l.07,0a43.7,43.7,0,0,1,18.87-.58l.4.09.39.09c1,.27,2,.59,3.09,1A11.1,11.1,0,0,1,62.32,4.86Z"/><path class="cls-3" d="M66.4,4,66,7.86v0l0,.06c0,.09-.13.27-.26.5s-.3.47-.45.7-.18.24-.27.37a16.28,16.28,0,0,1-3.48,3.29l-.07,0a22.41,22.41,0,0,1-3.14,1.73c-.13.07-.26.12-.4.18l-.79.32a44.14,44.14,0,0,1-7,2H50l-.27-.07-.56-.17-.51-.16-.62-.2-.34-.12a0,0,0,0,0,0,0l-1-.36-1.16-.46A28.75,28.75,0,0,1,35.48,8.92l0,0L35,8.38l-.1-.12-.07-.09a.42.42,0,0,1-.06-.08L33.72,3.86l.08,0,.13-.06,2.48-1,.07,0,1.1-.38a4.68,4.68,0,0,0,0,.54c0,.12,0,.23,0,.34v0c0,1.59.44,2,.49,2h0c1,2.54,3.9,6,12.06,7.75,0,0,10.13-2.16,12.05-7.75l0,0a3.57,3.57,0,0,0,.1-.35s0,0,0,0a5.73,5.73,0,0,0,.08-2.62l.21.07.21.09Z"/><path class="cls-4" d="M62.2,5.28C60.28,10.87,50.15,13,50.15,13,42,11.29,39.1,7.82,38.09,5.28,48.93,1.65,62.2,5.28,62.2,5.28Z"/><path class="cls-5" d="M80,26.18l0,.1,0,.1c0,.09-.06.27-.13.61l-.1.46-.06.31c-.06.26-.13.57-.2.92,0,.15-.07.31-.1.47s-.07.34-.11.52l-.06.28c0,.2-.09.4-.13.61l-1.73,8.1H23.2c-.89-3.41-2.23-8.51-3.28-12.48Z"/><path class="cls-6" d="M40.72,74l2.88,1.7H25.12c.18-2.21.33-4.37.37-5.91,0-.73,0-1.6,0-2.54h17.8l-2.81,1.92C38.43,70.53,38.55,72.7,40.72,74Z"/><path class="cls-6" d="M59.65,73.54c2-1.38,1.89-3.55-.28-4.83l-2.5-1.48H74.62A80.89,80.89,0,0,0,75,75.68H56.52Z"/><polygon class="cls-5" points="98.55 40.08 95.13 41.82 81.61 15.21 85.43 13.27 98.55 40.08"/><path class="cls-5" d="M19.69,13.73,6,40.22,1.89,38.11c6-15.29,11-22.93,13.84-26.44Z"/></g></g></svg>