<svg viewBox="0 0 100.31 90.78" xmlns="http://www.w3.org/2000/svg"><g stroke="#1a1a1a" stroke-miterlimit="10" stroke-width=".25"><path d="m100.15 43.36-16.35 10-7.53-9.52c1.4-6.58 2.28-10.69 2.83-13.27 0-.21.09-.41.13-.61l.06-.28c0-.18.07-.36.11-.52s.07-.32.1-.47l.2-.92.06-.31.1-.46c.07-.34.11-.52.13-.61v-.1-.1a27.59 27.59 0 0 0 1.13-6.11c0-.23 0-.45 0-.66s0-.35 0-.52a9.76 9.76 0 0 0 -.66-4.13 4 4 0 0 0 -.8-1.18 1.8 1.8 0 0 0 -.19-.2l-.18-.18-.08-.21a20.77 20.77 0 0 0 -6.31-3.24l-.17-.07a33.84 33.84 0 0 0 -6.44-1.78h-.14-.1l.35-3.91 2 .65-.69 2.35 12.49 3.77 15.65 31.09 2.86-1.44z" fill="#fff"/><path d="m79.22 13a33.54 33.54 0 0 0 -6.31-3.27 20.77 20.77 0 0 1 6.31 3.27z" fill="#fff"/><path d="m81.18 20.07a27.59 27.59 0 0 1 -1.13 6.11l.82-3.87c.13-.82.25-1.56.31-2.24z" fill="#fff"/><path d="m81.22 18.89v.52s0 .43 0 .66c-.06.68-.16 1.42-.31 2.24l-.91 3.87v.1.1c0 .09-.06.27-.13.61l-.1.46-.06.31c-.06.26-.13.57-.2.92 0 .15-.07.31-.1.47s-.07.34-.11.52l-.06.28c0 .2-.09.4-.13.61-.55 2.58-1.43 6.69-2.83 13.27-3.74 17.54 0 46.82 0 46.82h-52.08s1.17-16.73 1.29-24.25-1.29-24-1.29-24l-.71-2.68-.16-.6c-1.23-4.67-3.45-13.12-4.46-16.92a8 8 0 0 1 .83-6 11.34 11.34 0 0 1 2.61-3.2l11.28-4.46.24-.09.42-.16.32-.12.21-.08a.42.42 0 0 0 .06.08.61.61 0 0 0 .07.1 14.86 14.86 0 0 0 4.6 4.28 25.83 25.83 0 0 0 10.49 4.58h.08l.79-.14a28 28 0 0 0 9.24-3.28l.09-.05c5.03-2.66 5.8-5.53 5.8-5.78h.1.14a55.75 55.75 0 0 1 6.44 1.78l.17.07a33.54 33.54 0 0 1 6.36 3.27l.18.17.18.18a1.8 1.8 0 0 1 .19.2 8.41 8.41 0 0 1 1.46 5.34z" fill="#fff"/><path d="m79.22 13a33.54 33.54 0 0 0 -6.31-3.27 20.77 20.77 0 0 1 6.31 3.27z" fill="#fff"/><path d="m81.18 20.07a27.59 27.59 0 0 1 -1.13 6.11l.82-3.87c.13-.82.25-1.56.31-2.24z" fill="#fff"/><path d="m40.28 1.5h-.12a.29.29 0 0 1 .1 0z" fill="#fff"/><path d="m40.44 1.46h-.15a0 0 0 0 1 0 0z" fill="#fff"/><path d="m48.77.21h-.09c-1.09.07-2.13.18-3.12.31l-.89.13-1.39.22c-.72.13-1.38.26-2 .39l-.44.1h-.04l-.29.07h-.08-.15-.12l-.46.11c-.44.1-.82.2-1.13.29l-.2.06-.18.11h-.13a60.39 60.39 0 0 1 6.09-1.16l1-.14c.46-.07.94-.13 1.42-.18l.56-.06c.74-.07 1.51-.13 2.29-.17h.51a33.67 33.67 0 0 1 8.2.55 33.41 33.41 0 0 0 -9.36-.63z" fill="#fff"/><path d="m34.78 8.09-.21.08-.32.12-.42.16-.24.09c-2.51.94-8.28 3.14-11.27 4.49a11.34 11.34 0 0 0 -2.61 3.14 8 8 0 0 0 -.83 6c1 3.8 3.23 12.25 4.46 16.94l.16.6.71 2.68-7.07 10.96-17-10.7c.48-1.3 1-2.55 1.43-3.76l3.3 1.73 15.69-29.95 12.74-4.14-.72-2.21 1.14-.46z" fill="#fff"/><path d="m66.4 4-.35 3.88c-.05.25-.81 3.07-5.83 5.78l-.09.05a13.32 13.32 0 0 1 -1.31.65c-.28.14-.57.27-.88.4a42.9 42.9 0 0 1 -7.84 2.37h-.1a25.83 25.83 0 0 1 -10.5-4.58 14.86 14.86 0 0 1 -4.6-4.28.61.61 0 0 1 -.07-.1.42.42 0 0 1 -.06-.08l-1.05-4.23h.08l.13-.06 2.48-1h.07l1.12-.48.49 3.07c1 2.54 3.9 6 12.06 7.75 0 0 10.13-2.16 12.05-7.75l.41-3a1.89 1.89 0 0 1 .21.09 31.8 31.8 0 0 1 3.58 1.52z" fill="#fff"/><path d="m62.2 5.28c-1.92 5.59-12.05 7.72-12.05 7.72-8.15-1.71-11.05-5.18-12.06-7.72 10.65-3.57 23.66-.12 24.11 0z" fill="#eee"/><path d="m62.61 2.31-.41 3c-.45-.12-13.46-3.57-24.11 0l-.49-3.1.26-.08h.15.13c1-.25 3.17-.78 6-1.2l1-.14c.46-.07.94-.13 1.42-.18l.56-.06c.74-.07 1.51-.13 2.29-.17h.51a33.67 33.67 0 0 1 8.2.55c.23 0 .45.09.68.15a21.4 21.4 0 0 1 3.2.97l.29.13z" fill="#fff"/><path d="m62.62 2.31-.21-.1" fill="#fff"/><path d="m62.12 2.08a18.15 18.15 0 0 0 -3.31-1.08" fill="#fff"/></g><path d="m33.3 6.53-12.74 4.14-15.68 29.95-3.3-1.73c5.76-14.77 10.61-22.59 13.57-26.46a19.05 19.05 0 0 1 3-3.4c1.33-.37 2.6-.73 3.79-1.09 5.14-1.53 8.87-2.94 10.64-3.62z" fill="#6a0000"/><path d="m98.71 40.42-2.86 1.44-15.65-31.09-12.49-3.77.71-2.33c1.78.57 4.66 1.49 8.32 2.64.75.24 1.44.48 2.06.72 4.63 1.8 5.82 3.63 5.82 3.63l.29.58z" fill="#6a0000"/></svg>