<svg xmlns="http://www.w3.org/2000/svg" viewBox="0 0 100.31 90.78"><defs><style>.cls-1{fill:#fff;}.cls-1,.cls-2{stroke:#1a1a1a;stroke-miterlimit:10;stroke-width:0.25px;}.cls-2{fill:#eee;}.cls-3{fill:#6a0000;}</style></defs><g id="Layer_2" data-name="Layer 2"><g id="Layer_2-2" data-name="Layer 2"><path class="cls-1" d="M100.15,43.36l-16.35,10-7.53-9.52c1.4-6.58,2.28-10.69,2.83-13.27,0-.21.09-.41.13-.61l.06-.28c0-.18.07-.36.11-.52s.07-.32.1-.47l.2-.92.06-.31.1-.46c.07-.34.11-.52.13-.61l0-.1,0-.1a27.59,27.59,0,0,0,1.13-6.11c0-.23,0-.45,0-.66s0-.35,0-.52a9.76,9.76,0,0,0-.66-4.13,4,4,0,0,0-.8-1.18,1.8,1.8,0,0,0-.19-.2l-.18-.18L79.21,13A20.77,20.77,0,0,0,72.9,9.76l-.17-.07a33.84,33.84,0,0,0-6.44-1.78l-.14,0-.1,0L66.4,4l2,.65L67.71,7,80.2,10.77,95.85,41.86l2.86-1.44Z"/><path class="cls-1" d="M79.22,13a33.54,33.54,0,0,0-6.31-3.27A20.77,20.77,0,0,1,79.22,13Z"/><path class="cls-1" d="M81.18,20.07a27.59,27.59,0,0,1-1.13,6.11l.82-3.87C81,21.49,81.12,20.75,81.18,20.07Z"/><path class="cls-1" d="M81.22,18.89c0,.17,0,.35,0,.52s0,.43,0,.66c-.06.68-.16,1.42-.31,2.24L80,26.18l0,.1,0,.1c0,.09-.06.27-.13.61l-.1.46-.06.31c-.06.26-.13.57-.2.92,0,.15-.07.31-.1.47s-.07.34-.11.52l-.06.28c0,.2-.09.4-.13.61-.55,2.58-1.43,6.69-2.83,13.27-3.74,17.54,0,46.82,0,46.82H24.2s1.17-16.73,1.29-24.25-1.29-24-1.29-24l-.71-2.68-.16-.6C22.1,34.45,19.88,26,18.87,22.2a8,8,0,0,1,.83-6h0A11.34,11.34,0,0,1,22.31,13h0L33.59,8.54l.24-.09.42-.16.32-.12.21-.08a.42.42,0,0,0,.06.08.61.61,0,0,0,.07.1,14.86,14.86,0,0,0,4.6,4.28A25.83,25.83,0,0,0,50,17.13h.08l.79-.14a28,28,0,0,0,9.24-3.28l.09-.05C65.23,11,66,8.13,66,7.88v0l.1,0,.14,0a55.75,55.75,0,0,1,6.44,1.78l.17.07A33.54,33.54,0,0,1,79.21,13l.18.17.18.18a1.8,1.8,0,0,1,.19.2A8.41,8.41,0,0,1,81.22,18.89Z"/><path class="cls-1" d="M79.22,13a33.54,33.54,0,0,0-6.31-3.27A20.77,20.77,0,0,1,79.22,13Z"/><path class="cls-1" d="M81.18,20.07a27.59,27.59,0,0,1-1.13,6.11l.82-3.87C81,21.49,81.12,20.75,81.18,20.07Z"/><path class="cls-1" d="M40.28,1.5l-.12,0a.29.29,0,0,1,.1,0Z"/><path class="cls-1" d="M40.44,1.46l-.15,0a0,0,0,0,1,0,0Z"/><path class="cls-1" d="M48.77.21h-.09c-1.09.07-2.13.18-3.12.31l-.89.13L43.28.87c-.72.13-1.38.26-2,.39l-.44.1H40.8l-.29.07h-.08l-.15,0h0l-.12,0-.46.11c-.44.1-.82.2-1.13.29l-.2.06L38.19,2l-.13,0A60.39,60.39,0,0,1,44.15.84l1-.14c.46-.07.94-.13,1.42-.18l.56-.06c.74-.07,1.51-.13,2.29-.17l.51,0a33.67,33.67,0,0,1,8.2.55A33.41,33.41,0,0,0,48.77.21Z"/><path class="cls-1" d="M34.78,8.09l-.21.08-.32.12-.42.16-.24.09c-2.51.94-8.28,3.14-11.27,4.49h0a11.34,11.34,0,0,0-2.61,3.14h0a8,8,0,0,0-.83,6c1,3.8,3.23,12.25,4.46,16.94l.16.6.71,2.68L17.14,53.35l-17-10.7c.48-1.3,1-2.55,1.43-3.76l3.3,1.73L20.56,10.67,33.3,6.53l-.72-2.21,1.14-.46Z"/><path class="cls-1" d="M66.4,4l-.35,3.88v0c-.05.25-.81,3.07-5.83,5.78l-.09.05a13.32,13.32,0,0,1-1.31.65c-.28.14-.57.27-.88.4a42.9,42.9,0,0,1-7.84,2.37H50a25.83,25.83,0,0,1-10.5-4.58,14.86,14.86,0,0,1-4.6-4.28.61.61,0,0,1-.07-.1.42.42,0,0,1-.06-.08L33.72,3.86l.08,0,.13-.06,2.48-1,.07,0,1.12-.48.49,3.07c1,2.54,3.9,6,12.06,7.75,0,0,10.13-2.16,12.05-7.75l.41-3a1.89,1.89,0,0,1,.21.09A31.8,31.8,0,0,1,66.4,4Z"/><path class="cls-2" d="M62.2,5.28C60.28,10.87,50.15,13,50.15,13,42,11.29,39.1,7.82,38.09,5.28,48.74,1.71,61.75,5.16,62.2,5.28Z"/><path class="cls-1" d="M62.61,2.31l-.41,3c-.45-.12-13.46-3.57-24.11,0L37.6,2.21h0l.26-.08.15,0,.13,0c1-.25,3.17-.78,6-1.2l1-.14c.46-.07.94-.13,1.42-.18l.56-.06c.74-.07,1.51-.13,2.29-.17l.51,0a33.67,33.67,0,0,1,8.2.55c.23,0,.45.09.68.15A21.4,21.4,0,0,1,62,2.05h0l0,0,.29.13v0Z"/><path class="cls-1" d="M62.62,2.31l-.21-.1"/><path class="cls-1" d="M62.12,2.08A18.15,18.15,0,0,0,58.81,1"/><path class="cls-1" d="M37.66,2.2h0"/><path class="cls-3" d="M33.3,6.53,20.56,10.67,4.88,40.62l-3.3-1.73C7.34,24.12,12.19,16.3,15.15,12.43a19.05,19.05,0,0,1,3-3.4c1.33-.37,2.6-.73,3.79-1.09C27.08,6.41,30.81,5,32.58,4.32Z"/><path class="cls-3" d="M98.71,40.42l-2.86,1.44L80.2,10.77,67.71,7l.71-2.33c1.78.57,4.66,1.49,8.32,2.64.75.24,1.44.48,2.06.72,4.63,1.8,5.82,3.63,5.82,3.63l.29.58Z"/></g></g></svg>