<svg xmlns="http://www.w3.org/2000/svg" viewBox="0 0 100.31 90.77"><defs><style>.cls-1,.cls-4{fill:#211fd0;}.cls-1,.cls-2,.cls-3,.cls-4{stroke:gray;stroke-miterlimit:10;stroke-width:0.25px;}.cls-2,.cls-8{fill:#fff;}.cls-3{fill:none;}.cls-4{opacity:0.7;}.cls-5{fill:#fedd00;}.cls-6{fill:#ef3340;}.cls-7{fill:#009a44;}</style></defs><g id="Layer_2" data-name="Layer 2"><g id="Layer_2-2" data-name="Layer 2"><path class="cls-1" d="M81.22,18.89c0,.17,0,.35,0,.52s0,.43,0,.66c-.06.68-.16,1.42-.31,2.24L80,26.18l0,.1,0,.1c0,.09-.06.27-.13.61l-.1.46-.06.31,0,.14h0c-.06.23-.11.49-.17.77s-.07.31-.1.47-.07.34-.11.52l-.06.28c0,.2-.09.4-.13.61-.43,2-1.07,5-2,9.37-.25,1.19-.53,2.49-.83,3.9-.2,1-.39,1.94-.54,3-2.8,17.67.54,43.86.54,43.86H24.2s1.17-16.73,1.29-24.25-1.29-24-1.29-24l-.71-2.68-.16-.6C22.1,34.45,19.88,26,18.87,22.2a8,8,0,0,1,.83-6h0A11.34,11.34,0,0,1,22.31,13h0L33.59,8.54l.24-.09.42-.16.32-.12.21-.08a.42.42,0,0,0,.06.08.61.61,0,0,0,.07.1,14.86,14.86,0,0,0,4.6,4.28A25.83,25.83,0,0,0,50,17.13h.08l.79-.14a28,28,0,0,0,9.24-3.28l.09-.05C65.23,11,66,8.13,66,7.88v0l.1,0,.14,0a55.75,55.75,0,0,1,6.44,1.78l.17.07A33.54,33.54,0,0,1,79.21,13l.18.17.18.18a1.8,1.8,0,0,1,.19.2,6.62,6.62,0,0,1,1.29,3.13A13,13,0,0,1,81.22,18.89Z"/><path class="cls-2" d="M85.56,13.54l-4.47,3.14a7.58,7.58,0,0,0-.53-1.92,4,4,0,0,0-.8-1.18,1.8,1.8,0,0,0-.19-.2l-.18-.18L79.21,13A33.54,33.54,0,0,0,72.9,9.76l-.17-.07a33.84,33.84,0,0,0-6.44-1.78l-.14,0-.1,0L66.4,4s4,1.29,10.34,3.29,7.88,4.35,7.88,4.35Z"/><polygon class="cls-2" points="100.15 43.36 83.8 53.35 79.78 48.26 96.73 36.36 100.15 43.36"/><path class="cls-3" d="M40.27,1.5l-.12,0a.29.29,0,0,1,.1,0Z"/><path class="cls-3" d="M40.43,1.46l-.15,0a0,0,0,0,1,0,0Z"/><path class="cls-3" d="M48.77.21h-.09c-1.09.07-2.13.18-3.12.31l-.89.13L43.28.87c-.72.13-1.38.26-2,.39l-.44.1H40.8l-.29.07h-.08l-.15,0h0l-.12,0-.46.11c-.44.1-.82.2-1.13.29l-.2.06L38.19,2l-.13,0c2.2-.58,12-2.95,20.06-1.27A33.41,33.41,0,0,0,48.77.21Z"/><path class="cls-1" d="M34.78,8.09l-.21.08-.32.12-.42.16-.24.09c-2.51.94-8.28,3.14-11.27,4.49h0a11.34,11.34,0,0,0-2.61,3.14h0a8,8,0,0,0-.83,6c1,3.8,3.23,12.25,4.46,16.94l.16.6.71,2.68-1.9,2.94L3.56,34C12.1,13.65,18.2,9,18.2,9A135.83,135.83,0,0,0,33.72,3.86Z"/><path class="cls-2" d="M66.4,4l-.35,3.88v0c-.05.25-.81,3.07-5.83,5.78l-.09.05a13.32,13.32,0,0,1-1.31.65c-.28.14-.57.27-.88.4a42.9,42.9,0,0,1-7.84,2.37H50a25.83,25.83,0,0,1-10.5-4.58,14.86,14.86,0,0,1-4.6-4.28.61.61,0,0,1-.07-.1.42.42,0,0,1-.06-.08L33.72,3.86l.08,0,.13-.06,2.48-1,.07,0,1.11-.48h0l.49,3.07c1,2.54,3.9,6,12.06,7.75,0,0,10.13-2.16,12.05-7.75l.41-3a1.89,1.89,0,0,1,.21.09A31.8,31.8,0,0,1,66.4,4Z"/><path class="cls-4" d="M62.2,5.28C60.28,10.87,50.15,13,50.15,13,42,11.29,39.1,7.82,38.09,5.28,48.74,1.71,61.75,5.16,62.2,5.28Z"/><path class="cls-2" d="M62.61,2.31l-.41,3c-.45-.12-13.46-3.57-24.11,0L37.6,2.21h0l.26-.08.15,0c2.2-.58,12-2.95,20.06-1.27.23,0,.44.09.67.15L59,1a20.94,20.94,0,0,1,3,1l.08,0h0l.28.13h0v0a1.27,1.27,0,0,1,.18.06h0Z"/><path class="cls-3" d="M62.61,2.31l-.21-.1"/><path class="cls-3" d="M62.11,2.08A18.15,18.15,0,0,0,58.8,1"/><path class="cls-3" d="M37.65,2.2h0"/><path class="cls-5" d="M93,28.76,77.1,39.93c.93-4.37,1.57-7.34,2-9.37,0-.21.09-.41.13-.61l.06-.28c0-.18.07-.36.11-.52s.07-.32.1-.47l.17-.77h0l9.61-6.75Z"/><path class="cls-6" d="M96.73,36.36l-17,11.9-3.51-4.43c.3-1.41.58-2.71.83-3.9L93,28.76Z"/><path class="cls-7" d="M89.28,21.15,79.67,27.9l0-.14.06-.31.1-.46c.07-.34.11-.52.13-.61l0-.1,0-.1.82-3.87c.15-.82.25-1.56.31-2.24,0-.23,0-.45,0-.66s0-.35,0-.52a12.27,12.27,0,0,0-.13-2.21l4.47-3.14Z"/><path class="cls-2" d="M22.3,45.36l-5.16,8-17-10.7Q1.91,37.91,3.56,34Z"/><path class="cls-8" d="M16.46,28.91c-.2,0-.23-.37-.12-.47-.48.21-.33-.19-.66.46-.37.24-.41-.32,0-.48l-.82.11.34.29c-.36.5-.55-.45-1,.12l.75.28-.12.17a.56.56,0,0,1,.62.22c-.06.09-.11.24-.25.21.88.4.65-.88,1.43-.79A.2.2,0,0,1,16.46,28.91Z"/><path class="cls-8" d="M16.7,30.58l.55-.61.46.35c.09-.25.52-.34.34-.64-.06,0-.18.07-.25,0,.22-.52.75-.06.77-.66-.44,0-.46-.11-.85.25a1.25,1.25,0,0,1-.66-.64c-.14,0-.27.36-.43.38h.1l-.28.81c.18-.13.26,0,.4,0l-1,.72c-.08.82.71.61.86,1C16.67,30.81,17.1,31.34,16.7,30.58Z"/><path class="cls-8" d="M16.63,29h0Z"/><path class="cls-8" d="M58.51,25.4c.11,0,.09-.25.08-.35l-1.22.31c.08.21.5.4.29.59.16.21.44-.08.42-.38v.35c.18-.49.58.3.45.59h0c.14-.61.26-1.22.38-1.82C58.62,24.65,58.86,25.29,58.51,25.4Z"/><path class="cls-8" d="M67.73,9.59c.14.15.23.15.3.1A.88.88,0,0,0,67.73,9.59Z"/><path class="cls-8" d="M59,24.25l.1-.57A2.41,2.41,0,0,0,59,24.25Z"/><path class="cls-8" d="M59.09,32.48a.29.29,0,0,0,0,.09l.07-.29h0A.88.88,0,0,0,59.09,32.48Z"/><path class="cls-8" d="M63.49,20.6l0-.07A.18.18,0,0,0,63.49,20.6Z"/><path class="cls-8" d="M55.63,36.18l.6-.6c-.06.25.26.13.16.43,0,0,.27-.18.18-.29l-.13,0c.24-.75,0-1,.46-1.61-.42-.33-.51.06-.65.4a.87.87,0,0,1-.15.13l-.4,1Z"/><path class="cls-8" d="M75,16.45h0Z"/><path class="cls-8" d="M75.29,16.47l-.23,0C75.18,16.49,75.31,16.64,75.29,16.47Z"/><path class="cls-8" d="M59,24.71a1.67,1.67,0,0,1,0-.46l-.08.43Z"/><path class="cls-8" d="M59,26.29l-.45.21-.09.4A6.17,6.17,0,0,0,59,26.29Z"/><path class="cls-8" d="M62.7,20.49c.78-.45.12.84.57.86.2-.19.12-.58.22-.75-.52.58-.43-1.22-1-.76-.17-.69.16-.9.44-.81.52.52,0,.54.2,1.18.22-.21.12-.31.08-.7.22,0,.37-.29.47-.47s.24-.25.54.13c.16-.26,0-.54,0-.92-.32-.65-.49-.17-.83-.65a.78.78,0,0,1,.17.24l-.25-.05a.67.67,0,0,1,.21.77c0,.05-.23.16-.29,0l.07-.2c-.27-.13-.16.65-.51.37-.08-.15,0-.25-.07-.35,0,.55-.22.61-.39,1.06l-.1-.74c.07.85-.59.88-1.14.62.09.09.2.15.2.29-.18.25-.53-.15-.55-.55,0,.64-1-.16-1.09.67-.11,1.31-.28,2.64-.5,4a.59.59,0,0,1,.14-.25c.32.57.38.47.28,1.12.17-.4-.07-.86.31-1-.06.35.1,1.06.5,1,.77-.87.78-2.81,1.24-3.95.2.44.78.1,1.11.07a1,1,0,0,1-.28,1,5,5,0,0,0,.61-.18Z"/><path class="cls-8" d="M61.28,22.78l.1.06A.1.1,0,0,0,61.28,22.78Z"/><path class="cls-8" d="M62.33,21.66v.05l.07-.06Z"/><path class="cls-8" d="M59.55,25.72c0,.15-.06.2-.08.35l.09-.15A.2.2,0,0,0,59.55,25.72Z"/><path class="cls-8" d="M59.13,24.94l0-.2-.07,0A.46.46,0,0,0,59.13,24.94Z"/><path class="cls-8" d="M67.74,22.94l0-.13A.1.1,0,0,0,67.74,22.94Z"/><path class="cls-8" d="M64,20.86c-.28.16.26.68-.16.86h.14c-.18.41-.76.51-1.12.69-.06-.29-.35-.25-.47-.69a.91.91,0,0,0-.39.85c-.2-.09-.31.39-.57.28.18.22,0,1,.4.48,0,.05,0,.1,0,.15.44.25.36-.41.62-.51.26.19-.11.5.08.55.26-.35,1.2-.1.79-1,.21-.17.33,0,.47.16,0-1.15,1.63-.18,1-1.43-.09.11-.34.17-.42.53Z"/><path class="cls-8" d="M60.09,25.49s0,0,.07,0Z"/><path class="cls-8" d="M55.1,22.54l0-.92c.69-.36,1-.13,1.63-.32a.2.2,0,0,1,0,.25c.42-.21,1.13-.19,1.34-.67.14,0,.57.15.51.45,0-.1.1-.2.19-.19.1.3-.15.14-.08.39.06,0,.1.06.09,0,0,.3.41,1-.1,1.15-.38-.68.33-.18,0-1-.16.05-.06.35,0,.46-.21,0-.26-.18-.3-.36,0,.27-.37,0-.38.39-.4.16-.13-.61-.4-.54l0,.86-.48,0c-.59.45.42,1.42-.25,2.06A1.51,1.51,0,0,0,56,23.27c.21-.07.49-.68.81-.5-.52-.56.5-.2.14-.9-.11.4-.4.53-.69.38l.06-.1c-.27,0-.3.87-.72.61-.18.06-.19-.18-.2-.38C55.24,22.53,55.13,22.72,55.1,22.54Zm.35-.25.26,0C55.62,22.2,55.54,22.22,55.45,22.29Z"/><path class="cls-8" d="M21,31.61l-.07-.09A.16.16,0,0,0,21,31.61Z"/><path class="cls-8" d="M46.24,33.54l-.17,0A.38.38,0,0,0,46.24,33.54Z"/><path class="cls-8" d="M42.47,36.36l-.25.19A.38.38,0,0,0,42.47,36.36Z"/><path class="cls-8" d="M23,32h0l0,0Z"/><path class="cls-8" d="M35.07,34.1a.82.82,0,0,0-.12-.2A.24.24,0,0,0,35.07,34.1Z"/><path class="cls-8" d="M42.52,36.32l0,0,0,.06Z"/><path class="cls-8" d="M48,35.94l.11-.08A.19.19,0,0,0,48,35.94Z"/><path class="cls-8" d="M47.67,33.55l.1-.08Z"/><path class="cls-8" d="M53.71,34.73l.22-.15A.36.36,0,0,0,53.71,34.73Z"/><path class="cls-8" d="M48.29,34.08l0-.11A.11.11,0,0,0,48.29,34.08Z"/><path class="cls-8" d="M20.08,28.82h0l0-.1Z"/><path class="cls-8" d="M19.23,29.88H19A.26.26,0,0,0,19.23,29.88Z"/><path class="cls-8" d="M32,32.54c-.05-.13-.18-.28-.1-.42C31.78,32.29,31.75,32.72,32,32.54Z"/><path class="cls-8" d="M22.22,23.86a1.46,1.46,0,0,1-.17.26C22.15,24,22.23,23.93,22.22,23.86Z"/><path class="cls-8" d="M22.05,24.12l-.14.17A.79.79,0,0,0,22.05,24.12Z"/><path class="cls-8" d="M33.91,25.61c0,.06,0,.11.05.13S33.94,25.6,33.91,25.61Z"/><path class="cls-8" d="M18.89,29.72c-.08.19-1.09.36-.38.67-.2.6-.56.14-.81.22.11.19-.19.37-.21.6.12-.05.3-.18.45-.08a.29.29,0,0,1-.49.24c.16.39-.46.37-.18.73a2.48,2.48,0,0,0,2.18-.82c-.45,0-1,.09-1.26-.25l.29-.48c.26.57.6.29,1,.43l-.78-.5c-.27-.55,0-.57.36-.59A.15.15,0,0,1,18.89,29.72Z"/><path class="cls-8" d="M20.62,25.24v0l0,.05Z"/><path class="cls-8" d="M52.34,23.8l0-.21A.35.35,0,0,0,52.34,23.8Z"/><path class="cls-8" d="M20.43,27.91h0S20.44,27.9,20.43,27.91Z"/><path class="cls-8" d="M50.81,23.93v-.05A.09.09,0,0,0,50.81,23.93Z"/><path class="cls-8" d="M51.43,35.65a.64.64,0,0,0,0,.07S51.47,35.67,51.43,35.65Z"/><path class="cls-8" d="M50.82,24v-.05A.11.11,0,0,0,50.82,24Z"/><path class="cls-8" d="M43.23,26.28a1.08,1.08,0,0,0,.06.18Q43.32,26.39,43.23,26.28Z"/><path class="cls-8" d="M44.79,27.08l0,.06Z"/><path class="cls-8" d="M32.21,35a.41.41,0,0,0,.2,0A.24.24,0,0,0,32.21,35Z"/><path class="cls-8" d="M50.82,23.88a1,1,0,0,1,0-.2A.58.58,0,0,0,50.82,23.88Z"/><polygon class="cls-8" points="40.79 28.99 40.84 28.93 40.81 28.9 40.79 28.99"/><path class="cls-8" d="M40,28.56a1.27,1.27,0,0,0,.06-.18c-.3.22-.84,0-.92.53.1,0,.61.35.51.69.21-.14.5.27.62.18-.33-.33,0-.49.21-.68.21.18-.05.47.13.58l.48-.05-.42-.09.15-.55,0,.05C40,29.28,40.7,28.22,40,28.56Z"/><path class="cls-8" d="M40,28.38a.3.3,0,0,0,.12-.13C40.08,28.26,40.05,28.31,40,28.38Z"/><path class="cls-8" d="M37.18,27.35l-.13.08Z"/><path class="cls-8" d="M58.1,26.89c-.05-.16-.52-.39-.42,0l.38,0Z"/><path class="cls-8" d="M29.12,29.33l.14,0,0-.07C29.27,29.22,29.17,29.29,29.12,29.33Z"/><path class="cls-8" d="M39.48,29.79a.39.39,0,0,0,.14-.19A.33.33,0,0,0,39.48,29.79Z"/><path class="cls-8" d="M29.17,28.31a1.47,1.47,0,0,1-.12-.48c-.12,0-.22.2-.35.27C28.84,28.05,29,28.11,29.17,28.31Z"/><path class="cls-8" d="M28.69,28.11h0Z"/><path class="cls-8" d="M58.37,27l.09-.11,0,.12.3.06.1-.09s0,.07,0,.11l.1,0c.12-.48.57-.92.65-1.21a.82.82,0,0,1,.53-.43.25.25,0,0,0-.19.39c.36.16.71.82,1,.07l-.29.09.38-1.1c.34.31-.18.55-.18.91.37-.61,1.19.47,1.16-.41.19.45.5,1.21.83,1-.42-.44.08-.41-.31-.9,0-.31.43,0,.33-.32l0,.2c.84.52.61-.68.69-1.14.58-.45,1-.29,1.49-.59.15.29.67,1.05.87.92-.07-.44.31-.85.1-1.38-.46,0-.08.57-.26.79-.44-.46-.26-.52-.66-.74.31.12.76-.68,1.21-.29l0,.1c.48.14,1.24,1.33,1.39.26a2.46,2.46,0,0,0,.07-.45c0,.06.06.11.08.16.41-.2.7.39.83-.32,0,.06,0,.09,0,.14.46.07.28-.61.34-.83.44.25.32.35.48.65.59-.23.4-1.2.08-1.75a3.39,3.39,0,0,0,.44-.08,1.47,1.47,0,0,0,.59.86c0-.21-.16-.3.09-.47a4,4,0,0,1,.64.78c.84-.22-.84-.68.24-.53.14-.16-.22-.48-.54-.67l.63-.05c-.42-.25-.25-.61-.22-.87-.18-.1-.56,0-.44.14-.34-.16-.4-.45-.34-.59,1,.28.17-1.05,1.3-.58,0-.13,0-.27-.07-.42a3.38,3.38,0,0,0-.83-2c.24-.18.16-.52.68-.38-.18-.66-1.29-.69-1.25-1.28.1-.09.11.24.42.12-.53-.23.09-.8-.46-1.3.07.09.26,0,.36,0-.14.08-.43-.1-.65-.19,0-.13.17.07.25,0-.22-1.43-1.93-1.7-2.51-3.12.17.41.82.28,1.06.17l-.15-.37c-.36,0-.49-.29-.8-.45.1-.08.17-.25.36-.18.16-.49-.22-.68-.63-.93s-.88-.59-.82-1.17a9.17,9.17,0,0,0,1.55,1L68.85,8l.7.3c.27-.36-.6-.38-.13-.54.15,0,.15.17.4.1.11-.29-.23-.22-.37-.39,1.06.29,1.33,1.11,1.79,1.51.1,0-.25,0-.35,0,.12.19-.12.44.16.62.46,0,.22-.26.21-.39.34-.14.34-.07.46,0-.43.24.21.82-.21,1.29.54.69,1-.72,1.26.13l-.37.49a2.26,2.26,0,0,1,1.49,1.32l-.09-.13c-.26,0-.31.23-.39.35,0,.57.86.78.45,1.27a5.39,5.39,0,0,1,2,2.1c-.69.26-.82-.91-1.39-1.09a4.83,4.83,0,0,1,.18.62c-.09-.39-.44-.49-.92-.61,0,.53.72.58,1,1.1-.21,0-.31.06-.27.29l.5,0a.14.14,0,0,0-.1.11,6.78,6.78,0,0,1,.39,1c.21-.21.65-.21.62-.48-.28.09-.36-.13-.38-.39.34.22.23-.27.5-.28,0,.27.08.58.14.86a3.88,3.88,0,0,0,.15.73l-.45.08a7.1,7.1,0,0,0,0,1.12.62.62,0,0,1-.09.28l-.21-.15c-.24.55-.12,1.22-.73,1.57A20.38,20.38,0,0,1,75.44,23c.2.24-.2.54-.62.85s-.84.64-.75,1.13c-.08,0,0-.61-.09-.9-.33.27,0,1-.58.68.82-.57-.42-.26-.27-.68a1.81,1.81,0,0,0-.51,1c.52-.49.44.75.78.06a2,2,0,0,1-1.25,1.76.48.48,0,0,0-.59-.18l.06.43c-.31.13.24-.73-.38-.46-.08.45-.58.68-1,.88a.71.71,0,0,0-.44,1c-.61-.21.48-.82-.37-1,.1-.55.8-.4.62-1-.26.35-.41-.36-.61-.24l-.15.52.09,0c-.29.82-1.38,1.08-2,1.46-.36.82-.45,1.82-1.24,2.08.09-.42-.76-.08-.52-.87A.45.45,0,0,0,65,30c.34,0,.14,0,.45.06a.52.52,0,0,1-.72.37c.08,0,0-.06,0-.16-.44-.07-.07.37-.29.59-.24-.39-.64.1-1,0l-.17.72c.08-.46-.39-.05-.56-.4-.18.36-.25.93-.68.94.1-.26-.45-.2-.57-.61-.78-.19-.84,1.41-1.65,1,0-.1.07-.4-.15-.46-.12.15-.39.16-.54.25v0a.16.16,0,0,0-.09.2,3,3,0,0,1-.72,1.38c.14.47.57.19.74,0l.07-.51c.33.68.47-.24.65,0-.14.93-1.15.94-1.62,1.56a1.67,1.67,0,0,0,2,.3L59.8,35l.36-.09-.46-.42a5.16,5.16,0,0,0,.92-.24c-.35.1-.64-.53-.42-.47.5.37.33-.4.63-.45-.18,0-.39,0-.32-.26.72.42.79,0,1.48.48-.28-.77.64-.28.53-.94h-.26l.38-.62c.66.49-.23.77.63,1,.7-.12.43-.92.92-1.16a1.19,1.19,0,0,1-.74,1.16l.33.14c-.05.31-.67.43-1,.5.34-.68-.28-.1-.62-.45.09.46.39.3.11.77a1.6,1.6,0,0,1,.89-.13c-1,.08-.43,1.83-1.41,1.68.34-.3-.31-.62-.41-.83a2.78,2.78,0,0,0-.65.45l.3.62c-.45.41-.94-.94-1.37-.12,0,.41.54,0,.46.11-.71.62-1.23-.41-2-.77a2.13,2.13,0,0,1-.09,1c0-.41-.22-.58,0-.92-.26-.13-.48.22-.66.41.53.14-.1.61-.15.87-.27,0,0-.41.14-.56-.22-.07-.56-.61-.57,0a1.75,1.75,0,0,1,.72-1.39l-.26,0c.13-.24.17-.19.43-.17a1.22,1.22,0,0,1-.35-.95c.05,0,0,.1.05.15.21.07.34-.07.25-.28.06-.6-.34-.3-.52-.56l-.27.17c-.22.67-.46,1.34-.7,2-.41.27-.68-.13-1-.36l0,.5c-.39,0-.77-.1-.61-.75,0,.16.08.12.16.13a.53.53,0,0,1,0-.16V34l-.64.38c.59-.81-.08-.89-.08-1.77-.21.13-.42.24-.64.36.45.23.06.42-.07.56-.1-.49-.55.06-.8,0v-.1a.91.91,0,0,0-.88.1A10.42,10.42,0,0,1,51.14,35c.5.14.23.36.29.66,0,0-.14,0-.14,0s.11.18.13.34c.5-.27,1-.4,1.17-1.1-.19-.29-.24.32-.44.13.21-.48.55-.43,1-.46l.19.39.4-.26c-.15.23,0,.64-.43.78.1.37.44-.14.73,0l.08-.56c0,.31.59.28.21.75l-.64.53.24.34-.58.17.11-.29c-.91.48-.4-1-1.28-.31-.23.69-.55.8-1.15.68.41-.18,0-.47.14-.86-.45-.24-.55.31-.75.58-.14-.34-.23-.62.15-.59,0-.74-.49.16-.58-.59-1.23.11-.86,2.49-2.38,1.62l.05-.31c-.92.42-1.47.07-2.31.32l-.68-.76c.15-.12.54-.7.35-1.07.33.77.67.5,1,.91,0-.2-.12-.35-.18-.47.21,0,.32.35.6.21,0-.16-.33-.35-.1-.45l.39.47c.5-.25.21-1.16.81-1-.09.43-.3,1.06-.52,1.17.27.08-.36.27-.1.52.37-.65.58-.16,1.09-.58-.06.1-.07.22-.2.26l.78.24c-.21-.36.61-.43.51-1-.82-.19-.57.13-1.5-.15a2.21,2.21,0,0,0,.69-1.23.08.08,0,0,0,.05.05,6.21,6.21,0,0,0-.08-1.64c-.37.69-.67.15-1.13.56-.08.52.3.65.54.5l-.42.37.08-.25-1.09-.13c.2,0,.26-.34.36-.57-.14,0-.28-.15-.42-.3,0,.5,0,.85-.11.84a1.74,1.74,0,0,1-1.34-1.11l-.08,0c.12.51-.48.93-.69,1.45,0-.53-.36-.32-.56-.59a3.6,3.6,0,0,0,.28,1.94c.47-.55.26-.56.48-1.34l.75-.54-.16.49c.38.2.73-.44.71.19-.19.42-.53.17-.72.6l.25.22c-.43.63-.23-.59-.76-.15.2.53,0,0-.28.4.19.37.95-.17.79.74-.28.41-.94-1.05-1.31-.15l0-.1c-.54-.13-.74.39-1,.71-.23-.29-.55.12-.8.15v-.26l-.36.1c.18-.48.41,0,.72,0l0-.49c.34.59.59-.3.86-.72-.4.42-1.11-.13-1.22.83l-.23-.5-.12.18a.83.83,0,0,1,.38-1.06.46.46,0,0,1,.06.29c.17-.22.32-.6.71-.48l-.21.25a1,1,0,0,0,1.1-.62,6.37,6.37,0,0,0-2-.25c-.22,1.1-.46,1.72-.59,2.75a1.34,1.34,0,0,1-1.44-.09l0-.2a.44.44,0,0,0-.51,0c-.18-.28.16-.54,0-.69l-.65.31c.06-.46.59-.44.84-.46,0,0-.14.11-.12.17.29.21.87-.57,1,.11.15-.12-.31.48.18.53.32.27.44-.34.48-.54s-.5-.37-.31-.69c-.26,0-.37.37-.68.1.25,0,.6-.55.73-.13.51-.48.46-1.72.24-1.8,0,.39-.92.45-.28,1-.31.49-.84.48-1.24.78l0-.1-.48.1a.93.93,0,0,0,.23-.51l-.68.68c.39-.46-.21-.34-.37-.55-.08.4-.35.68-.12.92s.17-.21.42-.23l-.38.62,0-.06-.24.51c-.48-.06.27-1.2-.37-.72l0,.72c-.71-.14-1.58-1-2.1-.69a2.17,2.17,0,0,0,.09-1.44,1.68,1.68,0,0,0,1,.08c0,.13-.43.82-.76.65.1,1.17.88-.66.86.52.84.46.7-1.1,1.4-.37,0-.53.22-.25.28-.71-.18-.87-1,0-1.44-.34a.41.41,0,0,0,.17-.21c-.33-.17-.47-.06-.72.12l0,.06c-.44.49-.23-.4-.46-.65-.1.07-.43-.1-.39.29L34.59,33l0,.59c-.24,0-.27-.38-.52,0l0,.52.6.22c-.32.16-.12.5-.47.59.42-.55-.25-.31-.25-.8l-.27.28.07-.13c-.18-.29-.24.18-.47.09.25.31.41.69.77.34a2.47,2.47,0,0,1-.91.59c-.27.2-.43-.21-.67-.29.48-.18-.06-1.6.86-1.16,0,.1-.1.07-.13,0,.08.68.57,0,.79-.24,0-.39.19-.48-.16-.71.11.25-.36.84-.68.5l.11-.82-.49-.13,0,0c-.15-.55-.54.07-.86-.27-.27.28-1.2,0-.86.87-.27-.54-.58.1-.93.19l.4.37c-.54.56-.37.18-.83,1.1a1.14,1.14,0,0,1,0-.66c-.67-.09-1.61-.39-2.07.25-.49-.07-.47-1.05-1.2-.73-.15.1.05.78-.39.5,0-.06.5-.57,0-.55-.43.6-.82-.44-1.36.06-.23-.26-.68-.22-.53-.71.39.16,1,.12,1.08-.11-.09.29.25.32-.07.52.57.44.43-.27.94,0,.05-.2-.22-.58-.36-.41.07-.68,1.08-.24.69-1.1-.55-.11-.87,1.3-1.29.53.24-.4.51,0,.83-.71l-.37-.32-.34.47,0-.1c-.64-.71-.73.63-1.43.89.32.53-.25,1.18,0,1.5-.46,0-.79-.11-.69-.79.9-.44.15-.71,1-1.29-.09-.27.3-1-.13-1.12-.56.42.08.59-.45.75a.35.35,0,0,1,0-.23c-.28.33-.25-.16-.59.19l.09-.13c-.28-.46-.45.41-.68-.08,0,.52-.27.38-.51.66.27.25.32,1,.95,1.05.13-.39.12-.62.39-.78h-.4a1.78,1.78,0,0,0,.27-.21l.34.26c-.51.22-.36.68-.62,1.07-.43-.25-.39,0-.65-.13.12-.57-.7-1.14-1.14-1.61l.23.06c.44-.3-.15-.53-.14-.7l-.32.24a.17.17,0,0,0,.06-.26c-.38,0-.49.62-.88.65.05-.33.46-.75.27-1,0-.3-.08-1.09-.61-.93a.4.4,0,0,1-.36.17s.06,0,.07,0l-.22-.42c.4-.47.47.39.86-.09l.15-.51a.82.82,0,0,0,.7-.36c-.27-.15-.37,0-.73,0a.76.76,0,0,1,.37-.55l-.12.28c.3.52.7-.36,1.17-.16.07,0,0,.06,0,.16.49-.42.76.33,1.26-.26l-.17.25c.3-.18.9-.61,1.47-1l0-.2c0-.14.15-.1.24,0h0l.77-.57a.55.55,0,0,0-.2-.29c-.11.24-.54,0-.55.53-.17-.36-.57.07-.7-.16.23.39-.27.48-.37.77,0-.36-.43,0-.31-.5,0-.12.09.33.25.08.36-.39-.47-.47,0-.82-.52.25-1.09,0-1.65.32l.23.24c-.2-.11-.72-.11-.71-.35a2.83,2.83,0,0,0,.57,0c.12-.51-.48-.09-.43-.42l-.77.71.24.09c-.23.28-.67-.24-1-.42.42-.64.59.15,1.07,0s0-.72.31-.82c0-.18-.22-.2-.35-.05l-.07-.15c.4-.58.89-.3,1.37-.78a.78.78,0,0,0-.11.2.64.64,0,0,0,.81.24c-.11-.23-.19-.1-.28-.05,0-.16.29-.18.41-.34-.21-.23,0-.39-.11-.52.19-.13.31-.06.5,0,.06.27-.15.33-.18.65.23-.16.2.63.57.31-.39-.2.22-.69.39-.88l-.06,0q.27-.54.33,0c-.19.13-.33,0-.35.39a.55.55,0,0,0,.37-.1l-.16.26h.57a13.22,13.22,0,0,0,.48-1.28c.09.33.3.09.44,0l-.07.13c.2.32.77.14.85-.16.16.29-1.46,1.78-.17,1.64.49,0,.4-.93.7-1.24a.44.44,0,0,0,0,.17c.2.09.26-.28.45-.42-.12-.15-.3-.18-.37,0,.1-.4.43.07.62-.23-.26.6.39.27.2.58.39.43.89,0,1.15-.46.24.8.52-.07,1,.33-.07,0-.22.08-.32,0-.31.48.49.3,0,.72.1-.07,0-.26-.07-.19a.45.45,0,0,0-.31.48l.36.46-.15.11.56.65a.63.63,0,0,0,0-.29c.68.32,1.5,0,2.11.16.21-1.39,1.54-.5,2.09-1.32a3.08,3.08,0,0,0-.21,1.38c-.12.06-.38.6-.62.47,0-.23-.32-.5-.1-.74-.7.11.05.62-.19,1.12.78-.09,1.28-.87,1.78-1.17v.17l.38-.3c-.29-.1-.23-.89.14-.6l0,0c.19.34.67,0,1,0l.26-.45c.33.08.3.93.38,1.44.53.09.87-.6,1.27-1,.15.38.94.5.5.93.49-.31.47-2.29,1.24-1.17l-.22.35c.77-.05,1.89-.73,2.24-.35-.31,1.29.94,1.32,1.07,2.59,0-.29.26-.38.3-.54.07.15.17.29.29,0-.31-.26.21-1.31-.37-.81.3-.87.67-1.53,1.3-1.5v.53l-.5-.16c.06.39-.2.36-.31.54.94.3-.12,1.24.84,1.16.09-.34,0-.2.28-.34-.12,0-.13.38.06.39l.17-.43c.35.88-.55.58-.25,1.2-.37.42-1,.65-.91,1.32.63.24.55-1.27,1.2-1l.07.28c.23-.2.25-.66.37-.94a.36.36,0,0,0,.22.33,12.15,12.15,0,0,0,.93-1.58c-.9.59-.79-.5-1.73,0,.15-.22.81-.39.84-1.12V25c.3-.28.59-.56,1-.4l-.22.3c.48-.39.87.77,1.23-.13a.31.31,0,0,0-.34.07.82.82,0,0,1,.86-.13l.53-.91c0,.26.37.25.23.68.44.37.58-.43.81-.58.46.53-.35.28-.34,1a1.24,1.24,0,0,0,1.5-.58.37.37,0,0,1-.2-.3c0,.16.26.09.39.08l0-.35c.24.21.23.41.08.69.21,0,.38-.64.65-.17-.31.45-.8.14-1,.42.71-.42.87,1,1.77.42,0,.16-.09.5.09.48.41-.19,0-.72.1-1.12-.29.26-.47.07-.7-.34l.05-.29c0,.15.23.13.31.26l0-.57c0,.63.43,1.06.65.79-.31-.42-.24-.4-.4-1.1.25-.72.48.6.77-.17,0,.21-.32.4,0,.51s.14-.48.28-.66c-.11.54,0,.92-.11,1.56-.43.13-.18,0-.58.31l.43.38c-.37.14-.19.64-.2.84.74.43.38-.86.82-.78.14-.39-.4,0-.15-.44.4,0,0-.35.43-.64l0,.25c.18.29.25-.1.39-.19s-.49-1.75.16-1.91a1.28,1.28,0,0,0,0,.3c0,1.48.08,3,.08,4.45a7.9,7.9,0,0,1,2.5-.07c.39.8-.46.82-.33,1.18L56.92,28c-.05-.36.8-.27.32-.83-.64.39-1,0-1.55.9.35.81.84-.32,1.4.25a.53.53,0,0,0-.46.25l1.39.1.06-.23a2.14,2.14,0,0,1-.6-.08c.43,0,.67-.56.56-1.18H58l.1-.23ZM68.85,10.14l.23,0C69,10.13,68.94,10.17,68.85,10.14ZM50.54,30.34c.58.06,1.17.16,1.73.18-1.13-1.13-1.86-2-.27-2.15l.1-.1a1.14,1.14,0,0,0-.92,0c-.22.48-1,2.14-1,2.29.13.34.25,0,.44,0ZM50,28.29c-.32-.11-.23.16-.26.41l.32-.12A.38.38,0,0,1,50,28.29Zm-.23.65a.13.13,0,0,1,.09,0Zm6.17-.42,0,0h.24A.25.25,0,0,0,55.92,28.52ZM55.19,28v.46l.22,0A1.07,1.07,0,0,0,55.19,28ZM53,26.84c-.05.56-.48.63-.43,1.26,0,.16.09.21.2.25h.37a.59.59,0,0,1,0-.26c-.14-.06-.24-.21-.24-.6.43.8.21-.63.58-.47C53.53,26.58,53.05,26.65,53,26.84ZM25.76,28l-.05-.38.28-.28c.42.18.7,1.11,1.17.37a2.69,2.69,0,0,1,.31,1,.66.66,0,0,1-.25-.13C26,29.61,26.75,27.34,25.76,28Zm5.07,1.52a.29.29,0,0,0-.07.14c1.08-1.08,1.93-1.36,2.47-1.28a2.2,2.2,0,0,0-.75-1l.24-.51.09.42.39-.45c-.08-.36-.37-.3-.54-.59,0,.1-.67.67-.87,1l.47.39c-.12-.15-.78-.08-1,0,0,.26.4.69.49.13,0,.39-.48.36-.19.79-.41.39-1,0-1.27-.21v-.65c-.29-.28-.26.77-.61.36.47-.09,0-.72.34-.74-.1-.25.05-.69-.31-.66-.37.84-.35-.57-.68.17-.17-.28.24-.5-.12-.65-.46.42-.46.75-.54,1.37.39.21.51-.78.83-.6l-.73,1c.11.16.19.19.27.15a.84.84,0,0,0-.37.41l-.18.31c.37,0,.7.07.74.35l-.07.3c.11.28.34.08.45-.13.34,0,.7-.41.74,0l-.14.27A3.25,3.25,0,0,1,30.83,29.54Zm13.43,1.27c-.26-1.11-.53-2.11-1.68-1.92l.09-.08c-.56-.7-1.14.92-1.83.12a3.3,3.3,0,0,0,.73-1.33l-.37.31c.11-.61-.26-.3-.53-.34l.26-.71c.15.21.56.29.55.13-.09.08.53.92.88.71,0-.49-.76-.29-.42-1.09-.29.33-.32-.16-.62,0,.3-.32.09-.66.31-1l-.49.15c0-.16.71-.34.33-1-.2.26-.71-.08-.74.45v-.17c-.36-.12-.18.75-.62.43,0,.27.06.45.23.4s.17-.47.45-.54c.11.42-.34-.06-.16.64.08.35.74-.28.52.5l-.36-.12c0,.53-.29.49-.3.91-.23.19-.42-.41-.67,0s0,1-.33.7c-.28-.8-1.16-.68-1.5-.59l-.3.33c0,.32.56,0,.35.39l-.46.11.05-.2c-.15-.06-.32.16-.46.26.16-.37.48-.2.44-.75-.21-.12-.23-.33-.43-.23a.18.18,0,0,0,.08-.17c-.41-.25-.44.6-.56.77-.47.69.4.69.32,1.25l-1.29.23a.79.79,0,0,0,.21-.57c-.29-.27,0-.43-.42-.42,0,.75-.57.43-.91.85-.12-.32-.15-.38.17-.37,0-.49-.45-.33-.59-.38-.1.11-.25.17-.35.27a.59.59,0,0,1-.25.75l0,.1c.44.16,1.1.74,1.42.25l-.1.24c.5.45,1.18-.81,1.37.12,0,.37.1.09.07.62l.4-.39-.09.23.66-.08,0,.09c.34-.46.6-.84.81-1.15,0-.23,0-.3.1-.46s.19-.13.26-.09h0c.15.07.25.41.44.55l-.61,0a1.19,1.19,0,0,0,.25,1.08c-.12,0-.18.31,0,.36s.41-.23.27-.55c.58-.11,1.5.93,2.4.22-.65.43.5.54-.21.68.48.64.44-.6.94-.5,0,.23-.28,0-.4.41.84.26,1.42-1,2.23-.8l0,.49Zm1.59-.63.46-.18h0l.45-.41c-.29-.18-.49-.71-.1-1,0,.2.09.44,0,.56.27.29.87.54.69-.19-.49.72-.16-.93-.54-.39.2-.49.42-.29.61-.51a.91.91,0,0,0,.41,1.09c.13-.13.51,0,.73-.23-.1-.45.08-.72-.29-.81a.39.39,0,0,1,.58,0c-.09.08-.25.15-.23.31.17.4.35.37.46.54l.23-.09a1.07,1.07,0,0,1-.07-.15l.24-.41c-.33.23-.18-.2-.19-.46,0,.52.23.05.34,0l-.29-.53c.1-.29.46.37.36-.18a1.43,1.43,0,0,0-1.23.12l.23.43c-.54.33-.39-.73-1-.68-.24.4-.92.06-.91.85.07-.24-.41-.68-.61-.32-.22.73-.93.83-.71,1.16.19,0,.45-.39.61.07l-.37.16.26.39C45.75,29.21,45.78,29.6,45.85,30.18Zm9.22,3.71h0Z"/><path class="cls-8" d="M19.87,28.7c-.16.15-.43.05-.47.43C19.5,28.72,19.91,29.19,19.87,28.7Z"/><path class="cls-8" d="M19.64,28.21c0,.09-.07.26-.19.24l.36,0Z"/><path class="cls-8" d="M20.08,25.31c-.24.26-.39.41-.62.31.2-1,.48-.16.84-1.07-.39-.21-.78.62-1.17.59C19.17,25.61,19.86,26.08,20.08,25.31Z"/><polygon class="cls-8" points="20.62 24.1 20.32 24.26 20.33 24.32 20.62 24.16 20.62 24.1"/><path class="cls-8" d="M25,34c0,.32.21,0,.32,0C25.26,33.94,25.16,33.84,25,34Z"/><path class="cls-8" d="M78.13,14.11a19.22,19.22,0,0,0-1.65-3.19A26.3,26.3,0,0,1,78.13,14.11Z"/><path class="cls-8" d="M32.34,32.45c-.59.27-.88.81-1.46.91.71.71,1.07-1,1.66-.24Z"/><path class="cls-8" d="M32,35c-.06-.61.49-.68.43-1.13-.39.12-.22.57-.56.49Z"/><polygon class="cls-8" points="30.11 24.76 30.3 24.45 30.16 24.56 30.11 24.76"/><polygon class="cls-8" points="34.62 34.65 34.54 34.78 34.82 34.99 34.62 34.65"/><path class="cls-8" d="M34.47,34.92l.07-.14Z"/><polygon class="cls-8" points="30.42 23.46 30.18 23.32 30.04 23.59 30.42 23.46"/><path class="cls-8" d="M32.42,26.89l-.24.18S32.52,27.31,32.42,26.89Z"/><polygon class="cls-8" points="36.37 35.01 36.67 34.79 36.64 34.73 36.34 34.95 36.37 35.01"/><path class="cls-8" d="M34.3,25.32c-.13-.48.45-.09.16-.53C34.17,24.84,34.27,25.1,34.3,25.32Z"/><path class="cls-8" d="M37.43,28.69s.07,0,.11-.06Z"/><path class="cls-8" d="M37.43,28.69c-.12,0-.24-.19-.32-.05C37.24,28.86,37.3,28.78,37.43,28.69Z"/><path class="cls-8" d="M38.81,28.65l-.11,0c.12-.23.07-.2,0,0-.12,0-.12.16-.14.26l-.07.18.1-.16C38.73,28.88,38.84,28.86,38.81,28.65Z"/><path class="cls-8" d="M43.92,36.68c-.43-.18-.54-.26-.51-.63-.41-.12-.35.51-.6.65C43.28,36.64,43.37,36.81,43.92,36.68Z"/><path class="cls-8" d="M42.81,36.7l-.16,0A.2.2,0,0,0,42.81,36.7Z"/><polygon class="cls-8" points="37.4 24.59 37.67 24.04 37.57 24.11 37.4 24.59"/><path class="cls-8" d="M44.57,36.86c-.08,0-.21,0-.28-.13C44.27,37.1,44.65,36.88,44.57,36.86Z"/><path class="cls-8" d="M43,29.7c0-.23-.3-.1-.4-.18C42.7,29.57,42.82,30.24,43,29.7Z"/><path class="cls-8" d="M45.79,35.33c-.08,0-.21-.26-.16-.57C45.52,34.94,45.37,35.59,45.79,35.33Z"/><polygon class="cls-8" points="43.69 29.77 43.63 29.64 43.36 29.88 43.69 29.77"/><path class="cls-8" d="M42.75,24.37c-.3.43.47,1.05,0,1.42.66.46-.05-.62.44-.54A1.11,1.11,0,0,1,42.75,24.37Z"/><path class="cls-8" d="M43.14,25.25a.35.35,0,0,0,.14,0Z"/><path class="cls-8" d="M47.44,27.93a1.3,1.3,0,0,0-.1.15A.65.65,0,0,0,47.44,27.93Z"/><path class="cls-8" d="M44.7,24.88l-.44.66c.3-.44,1-.42,1-1.07a.5.5,0,0,0-.65.33Z"/><path class="cls-8" d="M50.65,36.45l-.2.27.28.06C50.65,36.69,50.75,36.2,50.65,36.45Z"/><path class="cls-8" d="M50.79,36.79h-.06A.06.06,0,0,0,50.79,36.79Z"/><path class="cls-8" d="M46.58,28.28a.4.4,0,0,0-.4.1C46.24,28.51,46.62,28.61,46.58,28.28Z"/><polygon class="cls-8" points="52.13 35.37 51.77 35.52 52.17 35.43 52.13 35.37"/><polygon class="cls-8" points="53.96 36.29 54.04 36.4 54.32 36.13 54.24 36.02 53.96 36.29"/><path class="cls-8" d="M50.55,23.76c-.21,0-.33.55-.26.67l.4-.06c-.15-.5-.11,0-.36-.09Z"/><path class="cls-8" d="M66.56,32.24c0,.36-.58.36-.72.07,0-.16.26-.39,0-.52l-.12.94c-.73-.3,0-1.19.19-1.56-.58.09-.56.67-1.14.88a1.06,1.06,0,0,1,.53.3c.22.55-.43.51-.81.69.33.15.26.41.14.7a.15.15,0,0,0,0,.11l0,.1,0,0a.64.64,0,0,0,.12.23c.29-.28.71.09.94,0-.54-.83.67-.48.85-.86l.28-.2.12,0c.06.09.07.23,0,.47.09-.22.61-.37.45-.64l1.13-.49a.59.59,0,0,1,.16.1.26.26,0,0,0,0-.16,26.85,26.85,0,0,0,2.6-1.28,22.49,22.49,0,0,0,3.23-2.17,11.46,11.46,0,0,1-1.21.41c.12-.87-.63.3-.83-.3a.86.86,0,0,1,.74-.53c-.13-.28-.56-.3-.75-.61-.49.12-.55.47-.62.86s-.19.82-.54.91c-.16-.33-.13-.72-.52-.44l.07-.12c-.47.72-.91-.44-.85.66l-.23-.48c-.11.51-.7.8-1,1l0-.1c-.6.92-.42.32-1.28,1l.2-.76c-.43-.09-.24.56-.51.59,0-.1-.22-.43,0-.61-.26.44-.53.92-.81,1.35S66.43,32.05,66.56,32.24Z"/><path class="cls-8" d="M64.78,32.05a.33.33,0,0,0-.23.06A1.28,1.28,0,0,0,64.78,32.05Z"/><path class="cls-8" d="M74.89,28.52l-.46.38A1.48,1.48,0,0,0,74.89,28.52Z"/><path class="cls-8" d="M63.4,33.71c.29.2,0,.41,0,.62l.77-.24c-.06-.2-.06-.44-.13-.61Z"/><path class="cls-8" d="M64.48,34.38a1,1,0,0,1,.08-.43l-.42.14A.4.4,0,0,0,64.48,34.38Z"/><path class="cls-8" d="M61.07,24.09l.11-.05.11-.2A2.62,2.62,0,0,1,61.07,24.09Z"/><path class="cls-8" d="M63.05,24.34c-.24-.24-.4.07-.46.17C62.87,24.4,62.79,24.55,63.05,24.34Z"/><polygon class="cls-8" points="61.57 21.37 61.76 21.11 61.71 21.07 61.57 21.37"/><path class="cls-8" d="M76,24.23l.1-.22A.58.58,0,0,0,76,24.23Z"/><path class="cls-8" d="M73.42,27.69c1.38-.36-.31.89.47,1.22.14-.22.28-.43.4-.65l.09.19c.22-.2.43-.41.63-.62-.38-.12-.5-.06-.73-.34.94-.67.58.07,1.54-.22.29-.34.58-.67.83-1l0,.15a.19.19,0,0,0,0-.22,13.54,13.54,0,0,0,2-3.87c0-.81-.77.18-1.08-.52-.27.82-1.23,1.71-.63,2.11-.08-.07-.23-.21-.39-.1.09.23.19.47.26.71.15-.1.29-.21.43-.32a1.6,1.6,0,0,1-.39,1.32c-.33.42-.76.75-1,.74.45-.87-.43-.87.65-1.7-.2-.05-.6,0-.53-.31C75.34,25.55,74.2,26.26,73.42,27.69Z"/><path class="cls-8" d="M77.64,14.45h.07S77.64,14.43,77.64,14.45Z"/><path class="cls-8" d="M77.68,14.94c.29.19.58.39.86.61a11,11,0,0,0-.32-1.12l-.51,0c.15.07.51.41.34.59Z"/><path class="cls-8" d="M79.11,16.38a.62.62,0,0,0-1.1-.17c-.36-.49.58-.34-.11-.63-.42.06,0,.65,0,.8Z"/><path class="cls-8" d="M78.54,20.79l-.2-.22c0,.13-.1.25-.16.38Z"/><path class="cls-8" d="M78.34,20.57l.15-.39a1.61,1.61,0,0,0-.5,0Z"/><path class="cls-8" d="M78.8,19.15a3.61,3.61,0,0,0,.15-.59Z"/><path class="cls-8" d="M78.62,19.6h.07l.11-.44Z"/><path class="cls-8" d="M78.49,20.18c.37,0,.76,0,.84-.42a.54.54,0,0,0,0-.18h-.64v.06C78.62,19.83,78.55,20,78.49,20.18Z"/><polygon class="cls-8" points="63.59 21.23 63.72 20.92 63.67 20.88 63.54 21.18 63.59 21.23"/><path class="cls-8" d="M65,21a2.35,2.35,0,0,0,0-.26A.36.36,0,0,0,65,21Z"/><path class="cls-8" d="M64.39,18.15c.39.26,0,.61.45.59.23.31.31.84,0,.77-.16-.33,0-.3-.23-.57.09.43-.09.21.21.67A9.15,9.15,0,0,0,65,20.77c.08-.18.32-.21.53-.3a.43.43,0,0,0,.29-.59,22.75,22.75,0,0,0-1.35-2.12c-.07-.09-.12-.16-.14-.12S64.25,17.87,64.39,18.15Z"/><path class="cls-8" d="M63.67,17.46c-.1,0-.1.05-.12.14C63.72,17.88,63.62,17.51,63.67,17.46Z"/><path class="cls-8" d="M69.61,22c-.08-.1,0-.38-.27-.49,0,.11-.08.22-.12.34C69.3,21.85,69.44,21.94,69.61,22Z"/><path class="cls-8" d="M69.16,22l.06-.15S69.16,22,69.16,22Z"/><path class="cls-8" d="M69.68,22.09,69.61,22A.18.18,0,0,0,69.68,22.09Z"/><path class="cls-8" d="M79.11,17.45c.26,0,.1-.31,0-.47A.83.83,0,0,0,79.11,17.45Z"/><path class="cls-8" d="M74.85,8.52,75,8.31C74.88,8.41,74.84,8.46,74.85,8.52Z"/><path class="cls-8" d="M67.39,9.29a.33.33,0,0,1-.14,0A.33.33,0,0,0,67.39,9.29Z"/><path class="cls-8" d="M67.25,9.29c-.25-.06,0-.55-.4-.6H67l-.27-.22C66.79,8.71,66.91,9.26,67.25,9.29Z"/></g></g></svg>