<svg xmlns="http://www.w3.org/2000/svg" viewBox="0 0 120.51 120.51"><defs><style>.cls-1{fill:#fff;}</style></defs><g id="Layer_2" data-name="Layer 2"><g id="Layer_1-2" data-name="Layer 1"><circle cx="60.26" cy="60.26" r="60.26"/><path class="cls-1" d="M59,98.58A10.18,10.18,0,0,1,48.6,87.79a25.88,25.88,0,0,1,.41-4.1l5-35H49l.35-2H57a55.94,55.94,0,0,0,11.37-1L62.54,87.21a19.09,19.09,0,0,0-.35,3.69,3.45,3.45,0,0,0,.58,2,1.69,1.69,0,0,0,1.41.82,4.25,4.25,0,0,0,3.19-1.9,14.28,14.28,0,0,0,2.49-5.31h2.06Q68.46,98.57,59,98.58ZM55,29.73a7.47,7.47,0,0,1,2.29-5.54,7.81,7.81,0,0,1,13.3,5.54,7.8,7.8,0,0,1-15.59,0Z"/></g></g></svg>