<svg xmlns="http://www.w3.org/2000/svg" viewBox="0 0 50.15 50.15"><defs><style>.cls-1{fill:none;}.cls-2{fill:#d7deed;}.cls-3{fill:#3c3b3d;}.cls-4{fill:#2b2b2b;}.cls-5{fill:#afb9d2;}</style></defs><g id="Layer_2" data-name="Layer 2"><g id="Layer_2-2" data-name="Layer 2"><path class="cls-1" d="M6.16,25.07,1.42,33.28h0a25.08,25.08,0,0,1,0-16.41h0l4.73,8.19Z"/><path class="cls-2" d="M34.55,8.61l-4.74,8.21H20.37L15.65,8.65h0l0,0h0L20.33.45l.25,0a24.79,24.79,0,0,1,9,0l.28.05Z"/><path class="cls-1" d="M6.17,8.6A25,25,0,0,1,20.31.46h0L15.62,8.6Z"/><polygon class="cls-1" points="15.65 8.65 20.37 16.82 20.34 16.82 15.62 8.65 15.65 8.65"/><path class="cls-3" d="M34.33,41.89l-4.5,7.78v0a0,0,0,0,1,0,0c-.66.13-1.34.24-2,.31a24.21,24.21,0,0,1-2.71.15A24.57,24.57,0,0,1,22.34,50c-.68-.07-1.34-.17-2-.3l-.19,0L15.6,41.49h0l4.73-8.19h9.47l4.74,8.21Z"/><path class="cls-1" d="M15.6,41.49l4.55,8.17a25,25,0,0,1-14-8.16l0,0H15.6Z"/><path class="cls-1" d="M34.57,41.47H44a25,25,0,0,1-14,8.19l-.16,0v0l4.5-7.78.22-.4-4.74-8.21H20.34L15.6,25.07h0l4.73-8.19h.05l0,0h9.44l4.74-8.21L29.84.46A25,25,0,0,1,44,8.65l0,0H34.58v0l-4.74,8.21,4.74,8.2-4.74,8.2Z"/><path class="cls-1" d="M50.15,25.07a24.85,24.85,0,0,1-1.37,8.18L44,25.06l4.73-8.19A24.76,24.76,0,0,1,50.15,25.07Z"/><polygon class="cls-4" points="34.55 25.07 29.81 33.28 20.34 33.28 15.6 25.07 15.61 25.06 20.34 16.87 29.81 16.87 34.55 25.07"/><path class="cls-3" d="M48.77,16.87,44,25.06H34.57l-4.74-8.2,4.74-8.21v0h9.47v0l0,0h0a24.87,24.87,0,0,1,4.65,8.05h0A.14.14,0,0,1,48.77,16.87Z"/><path class="cls-3" d="M44,8.65v0H34.58v0Z"/><path class="cls-3" d="M48.78,16.86h0a.14.14,0,0,0,0-.06Z"/><path class="cls-2" d="M48.78,33.25h0v0a25,25,0,0,1-4.7,8.14h0s0,0,0,0H34.57l-4.74-8.21,4.74-8.2H44Z"/><path class="cls-2" d="M44.06,41.43l0,0h0S44.06,41.45,44.06,41.43Z"/><path class="cls-3" d="M34.33,41.89,30,49.66l-.16,0v0Z"/><path class="cls-4" d="M44,41.47a25,25,0,0,1-14,8.19l-.16,0v0l4.5-7.78.24-.42Z"/><path class="cls-2" d="M20.34,33.28l-4.73,8.19H6.15l0,0a24.89,24.89,0,0,1-4.75-8.22h0l4.74-8.21H15.6Z"/><polygon class="cls-2" points="6.15 25.06 6.16 25.07 1.42 33.28 1.41 33.26 6.15 25.06"/><polygon class="cls-2" points="20.36 33.26 20.35 33.28 15.62 41.47 15.61 41.47 20.34 33.28 15.6 25.07 15.61 25.06 15.62 25.06 20.36 33.26"/><path class="cls-5" d="M20.36,49.67h0l0,0A25,25,0,0,1,6.13,41.5l0,0h9.47Z"/><path class="cls-5" d="M6.16,25.07,1.42,33.28h0a25.08,25.08,0,0,1,0-16.41h0l4.73,8.19Z"/><path class="cls-3" d="M20.39,16.86h-.05l-4.73,8.19H6.15L1.42,16.87h0A25,25,0,0,1,6.17,8.6H15.6l0,0,4.72,8.17h0Z"/><polygon class="cls-3" points="20.37 16.82 20.34 16.82 15.62 8.65 15.65 8.65 20.37 16.82"/><polygon class="cls-3" points="20.38 16.87 15.65 25.06 15.61 25.06 20.34 16.87 20.38 16.87"/><path class="cls-2" d="M20.58.41l-.25,0L15.62,8.6h0L20.31.46l0-.05Z"/><polygon class="cls-2" points="15.65 8.65 20.37 16.82 20.34 16.82 15.62 8.65 15.65 8.65"/><path class="cls-2" d="M29.84.46,29.56.41h.25Z"/><path class="cls-5" d="M44.05,8.67H34.58v0l0,0L29.84.46A25,25,0,0,1,44,8.65h0Z"/><path class="cls-4" d="M50.15,25.07a24.85,24.85,0,0,1-1.37,8.18L44,25.06l4.73-8.19A24.76,24.76,0,0,1,50.15,25.07Z"/><path class="cls-4" d="M20.35.41l0,0L15.62,8.6H6.17A25,25,0,0,1,20.31.46l0-.05Z"/></g></g></svg>