<svg xmlns="http://www.w3.org/2000/svg" viewBox="0 0 100 116.27"><defs><style>.cls-1{fill:none;stroke:#000;stroke-miterlimit:10;}</style></defs><g id="Layer_2" data-name="Layer 2"><g id="Layer_2-2" data-name="Layer 2"><path d="M44.18,52.5h4.21A6,6,0,0,0,52.85,51a5.5,5.5,0,0,0,1.45-4,4.86,4.86,0,0,0-1.44-3.75,5.56,5.56,0,0,0-4-1.34,5.83,5.83,0,0,0-3.8,1.24,4,4,0,0,0-1.53,3.24h-7.9a9.74,9.74,0,0,1,1.68-5.59,11.22,11.22,0,0,1,4.7-3.87,15.73,15.73,0,0,1,6.66-1.39q6.31,0,9.9,3A10.3,10.3,0,0,1,62.2,46.9a8.33,8.33,0,0,1-1.67,5,10.83,10.83,0,0,1-4.37,3.52,10,10,0,0,1,5,3.61,9.82,9.82,0,0,1,1.65,5.69A10.5,10.5,0,0,1,59,73.26q-3.87,3.19-10.24,3.19A14.75,14.75,0,0,1,39,73.31,10.28,10.28,0,0,1,35.19,65h7.9a4.58,4.58,0,0,0,1.68,3.66,6.18,6.18,0,0,0,4.14,1.42,6.21,6.21,0,0,0,4.42-1.49,5.13,5.13,0,0,0,1.6-4q0-6-6.56-6H44.18Z"/><path class="cls-1" d="M76.32,81.05C78,103.43,79,113.18,79,113.18S40.3,120,20.24,111.6c0,0,3.53-56.08,1.12-64.25a127.47,127.47,0,0,1-5.95-27.3C17.77,9.28,40.55,3.31,40.55,3.31,47.12,5.76,58,3.56,58,3.56,79.08,9,83.13,17.2,83.13,17.2c2.32,7.42-4.86,28-4.86,28S74.65,58.68,76.32,81.05Z"/><path d="M100,49.3s-14.39,4.73-19.22,2l.09-1.11-2.6-4.93s7.18-20.59,4.86-28c0,0-4-8.23-25.11-13.64,0,0-10.9,2.2-17.47-.25,0,0-22.78,6-25.14,16.74a127.47,127.47,0,0,0,5.95,27.3l-2.6,5.94S.84,50.6,0,49L5.76,26.55S7.52,14.48,16.62,11s15.6-6.22,15.6-6.22L39.09,0S51.9,2.13,60.54,0L63.6,2.13l2.05,2.14,16.06,5.85S89.23,12.72,93,24.79s6.59,21.35,6.59,21.35Z"/></g></g></svg>