<svg xmlns="http://www.w3.org/2000/svg" viewBox="0 0 115.49 115.15"><defs><style>.cls-1{fill:#607d8b;}.cls-2{fill:#fff;}.cls-3{fill:#455a64;}.cls-4{fill:none;stroke:#000;stroke-miterlimit:10;}</style></defs><g id="Layer_2" data-name="Layer 2"><g id="Layer_1-2" data-name="Layer 1"><path class="cls-1" d="M73.51,57.57a15.75,15.75,0,0,1-7.58,13.48l-.66.38A15.77,15.77,0,0,1,49.56,44.09l.67-.38a15.85,15.85,0,0,1,15,0l.74.43A15.75,15.75,0,0,1,73.51,57.57Z"/><polygon class="cls-1" points="73.52 30.26 73.51 30.27 73.51 30.26 73.52 30.26"/><path class="cls-1" d="M73.51,57.57a15.75,15.75,0,0,1-7.58,13.48l-.66.38A15.77,15.77,0,0,1,49.56,44.09l.67-.38a15.85,15.85,0,0,1,15,0l.74.43A15.75,15.75,0,0,1,73.51,57.57Z"/><path class="cls-1" d="M73.51,57.57a15.75,15.75,0,0,1-7.58,13.48l-.66.38A15.77,15.77,0,0,1,49.56,44.09l.67-.38a15.85,15.85,0,0,1,15,0l.74.43A15.75,15.75,0,0,1,73.51,57.57Z"/><path class="cls-1" d="M73.51,30.26h0Z"/><path class="cls-1" d="M73.51,57.57a15.75,15.75,0,0,1-7.58,13.48l-.66.38A15.77,15.77,0,0,1,49.56,44.09l.67-.38a15.85,15.85,0,0,1,15,0l.74.43A15.75,15.75,0,0,1,73.51,57.57Z"/><path class="cls-1" d="M100.85,50.89A43.62,43.62,0,1,0,30.42,91.56a43.56,43.56,0,0,0,54.66,0,43.68,43.68,0,0,0,15.77-40.67Zm-27.33,34h0A31.53,31.53,0,0,1,26.22,57.58h0A31.53,31.53,0,0,1,73.51,30.26h0A31.54,31.54,0,0,1,89.28,57.57h0A31.53,31.53,0,0,1,73.52,84.89Z"/><path class="cls-1" d="M73.51,0V16.89A43.81,43.81,0,0,0,42,16.9V0Z"/><path class="cls-1" d="M73.51,98.25v16.9H42V98.24a43.67,43.67,0,0,0,31.53,0Z"/><path class="cls-1" d="M30.42,23.59a43.55,43.55,0,0,0-15.78,27.3L0,42.44,15.77,15.13Z"/><path class="cls-2" d="M73.51,57.57a15.75,15.75,0,0,1-7.58,13.48l-.66.38A15.77,15.77,0,0,1,49.56,44.09l.67-.38a15.85,15.85,0,0,1,15,0l.74.43A15.75,15.75,0,0,1,73.51,57.57Z"/><path class="cls-1" d="M115.49,72.71,99.73,100,85.08,91.56a43.59,43.59,0,0,0,15.77-27.3Z"/><path class="cls-1" d="M30.42,91.56,15.77,100,0,72.71l14.64-8.45A43.55,43.55,0,0,0,30.42,91.56Z"/><path class="cls-3" d="M73.52,30.26h0A31.53,31.53,0,0,0,26.22,57.57h0A31.53,31.53,0,0,0,73.51,84.89h0A31.53,31.53,0,0,0,89.28,57.58h0A31.54,31.54,0,0,0,73.52,30.26ZM65.93,71.05l-.66.38A15.77,15.77,0,0,1,49.56,44.09l.67-.38a15.85,15.85,0,0,1,15,0l.74.43a15.78,15.78,0,0,1,0,26.93Z"/><path class="cls-4" d="M73.51,57.57a15.75,15.75,0,0,1-7.58,13.48l-.66.38A15.77,15.77,0,0,1,49.56,44.09l.67-.38a15.85,15.85,0,0,1,15,0l.74.43A15.75,15.75,0,0,1,73.51,57.57Z"/><path class="cls-1" d="M115.49,42.44l-14.64,8.45a43.54,43.54,0,0,0-15.77-27.3l14.65-8.46Z"/></g></g></svg>