<?xml version="1.0" encoding="utf-8"?>
<!-- Generator: Adobe Illustrator 26.0.1, SVG Export Plug-In . SVG Version: 6.00 Build 0)  -->
<svg version="1.1" id="Layer_1" xmlns="http://www.w3.org/2000/svg" xmlns:xlink="http://www.w3.org/1999/xlink" x="0px" y="0px"
	 viewBox="0 0 100 100" style="enable-background:new 0 0 100 100;" xml:space="preserve">
<style type="text/css">
	.st0{fill:none;}
	.st1{fill:#D7DEED;}
	.st2{fill:#607D8B;}
	.st3{fill:#045164;}
	.st4{fill:#3C3B3D;}
	.st5{fill:#AFB9D2;}
</style>
<g id="Layer_2_00000129197034970370065600000010471583225871523234_">
	<g id="Layer_2-2">
		<path class="st0" d="M12.2,50L2.8,66.4l0,0c-3.7-10.6-3.7-22.1,0-32.7l0,0L12.2,50L12.2,50z"/>
		<path class="st1" d="M68.9,17.1l-9.5,16.4H40.6l-9.4-16.3l0,0l0,0l0,0l9.3-16.4H41c5.9-1.1,12-1.1,18,0l0.6,0.1L68.9,17.1z"/>
		<path class="st0" d="M12.3,17.1C19.6,8.7,29.5,3,40.5,0.9l0,0l-9.4,16.2H12.3z"/>
		<polygon class="st0" points="31.2,17.2 40.6,33.5 40.5,33.5 31.1,17.2 		"/>
		<path class="st2" d="M68.4,83.5l-9,15.5l0,0l0,0c-1.3,0.3-2.7,0.5-4,0.6c-1.8,0.2-3.6,0.3-5.4,0.3c-1.9,0-3.7-0.1-5.5-0.3
			c-1.4-0.1-2.7-0.3-4-0.6h-0.4l-9.1-16.4l0,0l9.4-16.3h18.9l9.5,16.4L68.4,83.5z"/>
		<path class="st0" d="M31.1,82.7l9.1,16.3c-10.9-2.2-20.7-7.9-27.9-16.3l0,0L31.1,82.7L31.1,82.7z"/>
		<path class="st0" d="M68.9,82.7h18.8c-7.2,8.4-17.1,14.2-27.9,16.3h-0.3l0,0l9-15.5L68.9,82.7l-9.5-16.4H40.5L31.1,50l0,0
			l9.4-16.3h0.1l0,0h18.8l9.5-16.4L59.5,0.9c11,2.1,20.9,7.9,28.3,16.3l0,0H68.9l0,0l-9.5,16.4L68.9,50l-9.5,16.4L68.9,82.7z"/>
		<path class="st0" d="M100,50c0,5.6-0.9,11.1-2.7,16.3L87.7,50l9.4-16.3C99,38.9,100,44.4,100,50z"/>
		<polygon class="st3" points="68.9,50 59.4,66.4 40.5,66.4 31.1,50 31.1,50 40.5,33.6 59.4,33.6 		"/>
		<path class="st2" d="M97.3,33.6L87.7,50H68.9l-9.5-16.4l9.5-16.4l0,0h18.9l0,0l0,0l0,0c4.1,4.7,7.2,10.2,9.3,16.1l0,0
			C97.2,33.3,97.3,33.5,97.3,33.6z"/>
		<path class="st4" d="M87.7,17.2L87.7,17.2H68.9l0,0H87.7z"/>
		<path class="st4" d="M97.3,33.6L97.3,33.6c0,0,0-0.1,0-0.1V33.6z"/>
		<path class="st1" d="M97.3,66.3L97.3,66.3L97.3,66.3c-2.1,6-5.3,11.5-9.4,16.2l0,0l0,0h-19l-9.5-16.4l9.5-16.4h18.8L97.3,66.3z"/>
		<path class="st1" d="M87.9,82.6L87.9,82.6L87.9,82.6C87.9,82.6,87.9,82.7,87.9,82.6z"/>
		<path class="st4" d="M68.4,83.5l-8.6,15.5h-0.3l0,0L68.4,83.5z"/>
		<path class="st3" d="M87.7,82.7c-7.2,8.4-17.1,14.2-27.9,16.3h-0.3l0,0l9-15.5l0.5-0.8L87.7,82.7z"/>
		<path class="st1" d="M40.5,66.4l-9.4,16.3H12.2l0,0C8,77.9,4.8,72.3,2.7,66.3l0,0l9.5-16.4h18.9L40.5,66.4z"/>
		<polygon class="st1" points="12.2,50 12.2,50 2.8,66.4 2.8,66.3 		"/>
		<polygon class="st1" points="40.6,66.3 40.6,66.4 31.1,82.7 31.1,82.7 40.5,66.4 31.1,50 31.1,50 31.1,50 		"/>
		<path class="st5" d="M40.6,99.1L40.6,99.1L40.6,99.1c-11-2.1-21-7.8-28.4-16.3l0,0h18.9L40.6,99.1z"/>
		<path class="st5" d="M12.2,50L2.8,66.4l0,0c-3.7-10.6-3.7-22.1,0-32.7l0,0L12.2,50L12.2,50z"/>
		<path class="st2" d="M40.6,33.6L40.6,33.6l-9.5,16.3H12.2L2.8,33.6l0,0c2.1-6.1,5.3-11.7,9.5-16.5h18.8l0,0l9.4,16.3l0,0
			L40.6,33.6z"/>
		<polygon class="st4" points="40.6,33.5 40.5,33.5 31.1,17.2 31.2,17.2 		"/>
		<polygon class="st4" points="40.6,33.6 31.2,50 31.1,50 40.5,33.6 		"/>
		<path class="st1" d="M41,0.8h-0.5l-9.4,16.3l0,0l9.4-16.2V0.8H41z"/>
		<polygon class="st1" points="31.2,17.2 40.6,33.5 40.5,33.5 31.1,17.2 		"/>
		<path class="st1" d="M59.5,0.9l-0.6-0.1L59.5,0.9L59.5,0.9z"/>
		<path class="st5" d="M87.8,17.3H68.9l0,0l0,0L59.5,0.9C70.5,3,80.4,8.7,87.8,17.3L87.8,17.3L87.8,17.3z"/>
		<path class="st3" d="M100,50c0,5.6-0.9,11.1-2.7,16.3L87.7,50l9.4-16.3C99,38.9,100,44.4,100,50z"/>
		<path class="st3" d="M40.6,0.8L40.6,0.8l-9.4,16.3H12.3C19.6,8.7,29.5,3,40.6,0.8L40.6,0.8L40.6,0.8z"/>
	</g>
</g>
</svg>
