<?xml version="1.0" encoding="utf-8"?>
<!-- Generator: Adobe Illustrator 26.0.1, SVG Export Plug-In . SVG Version: 6.00 Build 0)  -->
<svg version="1.1" id="Layer_1" xmlns="http://www.w3.org/2000/svg" xmlns:xlink="http://www.w3.org/1999/xlink" x="0px" y="0px"
	 viewBox="0 0 100 100" style="enable-background:new 0 0 100 100;" xml:space="preserve">
<style type="text/css">
	.st0{fill:#607D8B;}
	.st1{fill:#FFFFFF;}
</style>
<g id="Layer_2_00000043440308718377372910000011067425228835937974_">
	<g id="Layer_1-2">
		<circle class="st0" cx="50" cy="50" r="50"/>
		<path class="st1" d="M49,81.8c-4.7,0.1-8.5-3.6-8.6-8.2c0-0.2,0-0.5,0-0.7c0-1.1,0.1-2.3,0.3-3.4l4.1-29h-4.2l0.3-1.7h6.3
			c3.2,0,6.3-0.2,9.4-0.8l-4.8,34.5c-0.2,1-0.3,2-0.3,3.1c0,0.6,0.2,1.2,0.5,1.7c0.2,0.4,0.7,0.7,1.2,0.7c1.1-0.1,2.1-0.7,2.6-1.6
			c1-1.3,1.7-2.8,2.1-4.4h1.7C57.8,78.5,54.2,81.8,49,81.8z M45.6,24.7c0-1.7,0.7-3.4,1.9-4.6c2.5-2.5,6.6-2.5,9.2,0.1
			c1.2,1.2,1.9,2.8,1.9,4.5c-0.1,3.6-3.1,6.4-6.7,6.2C48.5,30.8,45.8,28.1,45.6,24.7z"/>
	</g>
</g>
</svg>
