<?xml version="1.0" encoding="utf-8"?>
<!-- Generator: Adobe Illustrator 26.0.1, SVG Export Plug-In . SVG Version: 6.00 Build 0)  -->
<svg version="1.1" id="Layer_1" xmlns="http://www.w3.org/2000/svg" xmlns:xlink="http://www.w3.org/1999/xlink" x="0px" y="0px"
	 viewBox="0 0 100 102.2" style="enable-background:new 0 0 100 102.2;" xml:space="preserve">
<style type="text/css">
	.st0{fill:#607D8B;}
	.st1{fill:#D7DEED;}
	.st2{fill:#455A64;}
</style>
<g id="Layer_2_00000150811551818032767540000016402534002555506604_">
	<g id="Layer_2-2">
		<path class="st0" d="M83.5,23.7c-0.8,9-5.2,21.5-5.2,21.5S74.6,58.7,76.3,81c0.5,6.7,0.9,12.3,1.3,16.8c-31.8,9.8-55.9,0.3-56.6,0
			c0.9-17.2,2-44.9,0.3-50.5c-2.4-7.2-4.2-14.6-5.3-22.1c-0.2-1.1-0.3-2.3-0.5-3.5c-0.1-0.6-0.1-1.1-0.2-1.7v0
			C17.8,9.3,40.6,3.3,40.6,3.3C47.1,5.8,58,3.6,58,3.6C79.1,9,83.1,17.2,83.1,17.2c0.2,0.7,0.3,1.4,0.4,2.3
			C83.6,20.7,83.6,22.2,83.5,23.7z"/>
		<path class="st1" d="M45.6,39l3.4,0c1.3,0.1,2.6-0.3,3.6-1.2c0.8-0.9,1.2-2,1.2-3.2c0.1-1.1-0.4-2.2-1.2-3c-0.9-0.8-2-1.1-3.2-1.1
			c-1.1,0-2.2,0.3-3,1c-0.8,0.6-1.2,1.6-1.2,2.6l-6.3,0c0-1.6,0.4-3.2,1.3-4.5c0.9-1.4,2.2-2.4,3.8-3.1c1.7-0.8,3.5-1.1,5.3-1.1
			c3.4,0,6,0.8,7.9,2.4c2,1.7,3,4.1,2.9,6.7c0,1.4-0.5,2.8-1.3,4c-0.9,1.2-2.1,2.2-3.5,2.8c1.6,0.5,3,1.5,4,2.9
			c0.9,1.3,1.4,2.9,1.3,4.6c0.1,2.6-1,5.2-3,6.8c-2.1,1.7-4.8,2.6-8.2,2.6c-2.8,0.1-5.6-0.8-7.8-2.5c-2-1.6-3.1-4.1-3-6.7l6.3,0
			c0,1.1,0.5,2.2,1.3,2.9c0.9,0.8,2.1,1.2,3.3,1.1c1.3,0.1,2.6-0.4,3.5-1.2c0.9-0.8,1.3-2,1.3-3.2c0-3.2-1.8-4.8-5.3-4.8h-3.4V39z"
			/>
		<path class="st2" d="M100,49.3c0,0-14.4,4.7-19.2,2l0.1-1.1l-2.6-4.9c0,0,7.2-20.6,4.9-28c0,0-4-8.2-25.1-13.6
			c0,0-10.9,2.2-17.5-0.2c0,0-22.8,6-25.1,16.7c1,9.3,3,18.4,6,27.3l-2.6,5.9c0,0-17.9-2.7-18.8-4.3l5.8-22.5
			c0,0,1.8-12.1,10.9-15.6s15.6-6.2,15.6-6.2L39.1,0c0,0,12.8,2.1,21.5,0l3.1,2.1l2.1,2.1l16.1,5.8c0,0,7.5,2.6,11.3,14.7
			s6.6,21.3,6.6,21.3L100,49.3z"/>
	</g>
</g>
<path class="st0" d="M73.9,85.4c-27.5,8.4-48.3,0.2-48.9,0H73.9z"/>
</svg>
