<?xml version="1.0" encoding="utf-8"?>
<!-- Generator: Adobe Illustrator 26.0.1, SVG Export Plug-In . SVG Version: 6.00 Build 0)  -->
<svg version="1.1" id="Layer_1" xmlns="http://www.w3.org/2000/svg" xmlns:xlink="http://www.w3.org/1999/xlink" x="0px" y="0px"
	 viewBox="0 0 100 88.9" style="enable-background:new 0 0 100 88.9;" xml:space="preserve">
<style type="text/css">
	.st0{fill:#607D8B;}
	.st1{fill:#D7DEED;}
</style>
<path class="st0" d="M100,44.4c0,3.1-2.6,5.6-5.6,5.6h-5.6L89,77.7c0,0.5,0,0.9-0.1,1.4v9.8h-9.7c-0.2,0-0.4-0.2-0.6,0
	c-0.2-0.1-0.5,0-0.7,0H61.1V66.7c0-3.1-2.5-5.6-5.6-5.6H44.4c-3.1,0-5.6,2.5-5.6,5.6v22.2H22.2c-0.3,0-0.5,0-0.8,0
	c-0.2,0-0.4,0-0.6,0h-9.7V62.5c0-0.2,0-0.3,0-0.5V49.9H5.5c-2.9,0-5.4-2.3-5.6-5.2c-0.1-1.7,0.4-3.2,1.7-4.6L46.2,1.4
	C47.5,0.2,48.8,0,50.1,0s2.6,0.3,3.7,1.2l44.3,39C99.4,41.4,100.1,42.8,100,44.4L100,44.4z"/>
<path class="st1" d="M61.1,88.9H38.9V66.7c0-3.2,2.6-5.7,5.7-5.7h10.7c3.2,0,5.7,2.6,5.7,5.7L61.1,88.9L61.1,88.9z"/>
<path class="st0" d="M11.1,49.9"/>
</svg>
