<?xml version="1.0" encoding="utf-8"?>
<!-- Generator: Adobe Illustrator 26.0.1, SVG Export Plug-In . SVG Version: 6.00 Build 0)  -->
<svg version="1.1" id="Layer_1" xmlns="http://www.w3.org/2000/svg" xmlns:xlink="http://www.w3.org/1999/xlink" x="0px" y="0px"
	 viewBox="0 0 100 99.7" style="enable-background:new 0 0 100 99.7;" xml:space="preserve">
<style type="text/css">
	.st0{fill:#607D8B;}
	.st1{fill:#FFFFFF;}
	.st2{fill:#455A64;}
	.st3{fill:none;stroke:#000000;stroke-miterlimit:10;}
</style>
<g id="Layer_2_00000083056487864723325500000005661099237944334743_">
	<g id="Layer_1-2">
		<path class="st0" d="M63.7,49.8c0,4.8-2.5,9.2-6.6,11.7l-0.6,0.3C49.9,65.5,41.6,63,38,56.4C34.5,50,36.7,42,42.9,38.2l0.6-0.3
			c4.1-2.2,8.9-2.2,13,0l0.6,0.4C61.2,40.7,63.6,45.1,63.7,49.8z"/>
		<polygon class="st0" points="63.7,26.2 63.7,26.2 63.7,26.2 		"/>
		<path class="st0" d="M63.7,49.8c0,4.8-2.5,9.2-6.6,11.7l-0.6,0.3C49.9,65.5,41.6,63,38,56.4C34.5,50,36.7,42,42.9,38.2l0.6-0.3
			c4.1-2.2,8.9-2.2,13,0l0.6,0.4C61.2,40.7,63.6,45.1,63.7,49.8z"/>
		<path class="st0" d="M63.7,49.8c0,4.8-2.5,9.2-6.6,11.7l-0.6,0.3C49.9,65.5,41.6,63,38,56.4C34.5,50,36.7,42,42.9,38.2l0.6-0.3
			c4.1-2.2,8.9-2.2,13,0l0.6,0.4C61.2,40.7,63.6,45.1,63.7,49.8z"/>
		<path class="st0" d="M63.7,26.2L63.7,26.2z"/>
		<path class="st0" d="M63.7,49.8c0,4.8-2.5,9.2-6.6,11.7l-0.6,0.3C49.9,65.5,41.6,63,38,56.4C34.5,50,36.7,42,42.9,38.2l0.6-0.3
			c4.1-2.2,8.9-2.2,13,0l0.6,0.4C61.2,40.7,63.6,45.1,63.7,49.8z"/>
		<path class="st0" d="M87.3,44.1C84.1,23.5,64.8,9.3,44.2,12.5S9.5,35,12.7,55.6c1.4,9.3,6.3,17.8,13.7,23.7
			c13.8,11.1,33.5,11.1,47.3,0C84.2,70.8,89.4,57.4,87.3,44.1z M63.7,73.5L63.7,73.5c-13.1,7.5-29.8,3.1-37.3-10
			c-2.4-4.2-3.7-8.9-3.7-13.7l0,0c0-15.1,12.2-27.3,27.3-27.3c4.8,0,9.5,1.3,13.7,3.7l0,0c8.4,4.9,13.7,13.9,13.7,23.6l0,0
			C77.3,59.6,72.1,68.6,63.7,73.5z"/>
		<path class="st0" d="M63.7,0v14.6c-8.8-3.4-18.5-3.4-27.3,0V0H63.7z"/>
		<path class="st0" d="M63.7,85.1v14.6H36.4V85.1C45.1,88.5,54.9,88.5,63.7,85.1L63.7,85.1z"/>
		<path class="st0" d="M26.3,20.4C19,26.3,14.1,34.8,12.7,44.1L0,36.7l13.7-23.6L26.3,20.4z"/>
		<path class="st1" d="M63.7,49.8c0,4.8-2.5,9.2-6.6,11.7l-0.6,0.3C49.9,65.5,41.6,63,38,56.4C34.5,50,36.7,42,42.9,38.2l0.6-0.3
			c4.1-2.2,8.9-2.2,13,0l0.6,0.4C61.2,40.7,63.6,45.1,63.7,49.8z"/>
		<path class="st0" d="M100,63L86.4,86.6l-12.7-7.3c7.3-5.9,12.2-14.3,13.7-23.6L100,63z"/>
		<path class="st0" d="M26.3,79.3l-12.7,7.3L0,63l12.7-7.3C14.1,65,19,73.4,26.3,79.3z"/>
		<path class="st2" d="M63.7,26.2L63.7,26.2c-13.1-7.5-29.8-3.1-37.3,10c-2.4,4.2-3.7,8.9-3.7,13.7l0,0c0,15.1,12.2,27.3,27.3,27.3
			c4.8,0,9.5-1.3,13.7-3.7l0,0c8.4-4.9,13.7-13.9,13.7-23.6l0,0C77.3,40.1,72.1,31.1,63.7,26.2z M57.1,61.5l-0.6,0.3
			C49.9,65.5,41.6,63,38,56.4C34.5,50,36.7,42,42.9,38.2l0.6-0.3c4.1-2.2,8.9-2.2,13,0l0.6,0.4c6.4,3.9,8.5,12.3,4.5,18.8
			C60.5,58.9,59,60.4,57.1,61.5L57.1,61.5z"/>
		<path class="st3" d="M63.7,49.8c0,4.8-2.5,9.2-6.6,11.7l-0.6,0.3C49.9,65.5,41.6,63,38,56.4C34.5,50,36.7,42,42.9,38.2l0.6-0.3
			c4.1-2.2,8.9-2.2,13,0l0.6,0.4C61.2,40.7,63.6,45.1,63.7,49.8z"/>
		<path class="st0" d="M100,36.7l-12.7,7.3c-1.4-9.3-6.3-17.7-13.7-23.6l12.7-7.3L100,36.7z"/>
	</g>
</g>
</svg>
