<svg xmlns="http://www.w3.org/2000/svg" viewBox="0 0 124.96 103.77"><defs><style>.cls-1,.cls-2{fill:#fed500;stroke:gray;}.cls-1,.cls-2,.cls-3,.cls-4,.cls-5{stroke-miterlimit:10;stroke-width:0.25px;}.cls-2,.cls-4{opacity:0.7;}.cls-3,.cls-4{fill:#41d65a;}.cls-3,.cls-4,.cls-5{stroke:#aadfaa;}.cls-5{fill:none;}.cls-6{fill:#d3ffe1;}</style></defs><g id="Layer_2" data-name="Layer 2"><g id="Layer_2-2" data-name="Layer 2"><path class="cls-1" d="M116,38.43c-.06.16-.12.32-.19.48l-.28.6c-.3.61-.66,1.27-1.09,2l-2.16,3.31-.06.09-.06.08-.34.53c-.07.11-.16.23-.26.39l-.17.27-.51.78-.27.4c-.09.14-.18.3-.29.45l-.15.24c-.11.17-.23.34-.34.52l-7.42,11.36c-9.8,15-16.85,43.69-16.85,43.69L37,84.86s7.11-15.19,9.93-22.16,7.43-22.84,7.43-22.84.11-1.08.3-2.76l.07-.61c.54-4.82,1.51-13.5,1.93-17.41a8,8,0,0,1,2.94-5.31h0a11.24,11.24,0,0,1,3.57-2h0l12.13-.13h1.27a.32.32,0,0,0,0,.09.53.53,0,0,0,0,.12,14.89,14.89,0,0,0,2.75,5.65,25.91,25.91,0,0,0,8.15,8.05l0,0h0l.79.16a28.18,28.18,0,0,0,9.8.26h.1c5.66-.73,7.39-3.08,7.52-3.3,0,0,0,0,0,0l.09.05a.41.41,0,0,0,.12.08,56.4,56.4,0,0,1,5.36,4l.14.12a34.19,34.19,0,0,1,4.71,5.33,2.25,2.25,0,0,1,.11.22l.1.23a2,2,0,0,1,.1.26A8.36,8.36,0,0,1,116,38.43Z"/><path class="cls-1" d="M124.83,68.07,106,71.51l-3.6-11.6,7.42-11.36c.11-.18.23-.35.34-.52l.15-.24c.11-.15.2-.31.29-.45l.27-.4.51-.78.17-.27c.1-.16.19-.28.26-.39l.34-.53.06-.08.06-.09,2.16-3.31c.43-.71.79-1.37,1.09-2l.28-.6c.07-.16.13-.32.19-.48a9.84,9.84,0,0,0,.88-4.09,4.11,4.11,0,0,0-.33-1.39,2,2,0,0,0-.1-.26l-.1-.23a2.25,2.25,0,0,0-.11-.22,34.19,34.19,0,0,0-4.71-5.33l-.14-.12a33.64,33.64,0,0,0-5.36-4,.41.41,0,0,1-.12-.08l-.09-.05,1.72-3.5S110.77,21.82,116,26s5.78,6.9,5.78,6.9Z"/><path class="cls-1" d="M84,7.46l-.12,0H84Z"/><path class="cls-1" d="M84.19,7.48l-.16,0h0Z"/><path class="cls-1" d="M92.42,9.32l-.08,0c-1-.33-2-.6-3-.84-.3-.07-.59-.14-.88-.19L87.06,8c-.72-.14-1.38-.25-2-.35l-.45-.07h-.05l-.3,0h-.08l-.15,0h0l-.13,0-.46-.06c-.45-.07-.84-.11-1.16-.14l-.21,0h-.31c2.26.25,12.24,1.56,19.17,6A33.34,33.34,0,0,0,92.42,9.32Z"/><path class="cls-1" d="M76.53,11.64H75.26c-2.68,0-8.85-.05-12.13.13h0a11.24,11.24,0,0,0-3.57,2h0a8,8,0,0,0-2.94,5.31c-.42,3.91-1.39,12.59-1.93,17.41l-.07.61c-.19,1.68-.3,2.76-.3,2.76L43.79,47.52l-12-16.1C51.36,9.24,60.73,6.55,60.73,6.55a135.35,135.35,0,0,0,16.34.76Z"/><path class="cls-1" d="M107.51,19.18l-1.72,3.5s0,0,0,0c-.13.22-1.86,2.57-7.52,3.3h-.1a13,13,0,0,1-1.45.14c-.31,0-.63,0-1,.05a42.52,42.52,0,0,1-8.17-.61h0l0,0a25.91,25.91,0,0,1-8.15-8,14.89,14.89,0,0,1-2.75-5.65.53.53,0,0,1,0-.12.32.32,0,0,1,0-.09l.54-4.33h.23L80,7.21h.07l1.22,0-.65,3c0,2.73,1.48,7,8.47,11.57,0,0,10.22,1.63,14-2.9l1.45-2.62s.11.1.16.16A31.34,31.34,0,0,1,107.51,19.18Z"/><path class="cls-2" d="M103.13,18.88c-3.81,4.53-14,2.9-14,2.9-7-4.56-8.44-8.84-8.47-11.57C91.85,10.71,102.75,18.61,103.13,18.88Z"/><path class="cls-1" d="M104.58,16.26l-1.45,2.62c-.38-.27-11.28-8.17-22.5-8.67l.65-3h0s.15,0,.27,0l.16,0c2.26.25,12.24,1.56,19.17,6,.2.12.39.24.58.38a20.94,20.94,0,0,1,2.61,2.18l0,0,0,0a2.39,2.39,0,0,1,.23.22v0Z"/><path class="cls-1" d="M104.58,16.26l-.16-.17"/><path class="cls-1" d="M104.19,15.86a18.13,18.13,0,0,0-2.68-2.23"/><path class="cls-1" d="M81.33,7.17h0"/><path class="cls-3" d="M81.22,18.89c0,.17,0,.35,0,.52s0,.43,0,.66c-.06.68-.16,1.42-.31,2.24L80,26.18l0,.1,0,.1c0,.09-.06.27-.13.61l-.1.46-.06.31c-.06.26-.13.57-.2.92,0,.15-.07.31-.1.47s-.07.34-.11.52l-.06.28c0,.2-.09.4-.13.61-.55,2.58-1.43,6.69-2.83,13.27C74.25,53.3,74.41,66.18,75,76c.15,2.6.33,5,.51,7.06.39,4.6.77,7.55.77,7.55H24.2s.23-3.26.49-7.55c.14-2.18.28-4.63.42-7.06.18-3.59.34-7.13.38-9.64.12-7.53-1.29-24-1.29-24l-.71-2.68-.16-.6C22.1,34.45,19.88,26,18.87,22.2a8,8,0,0,1,.83-6h0A11.34,11.34,0,0,1,22.31,13h0L33.59,8.54l.24-.09.42-.16.32-.12.21-.08a.42.42,0,0,0,.06.08.61.61,0,0,0,.07.1,14.86,14.86,0,0,0,4.6,4.28A25.83,25.83,0,0,0,50,17.13h.08l.79-.14a28,28,0,0,0,9.24-3.28l.09-.05C65.23,11,66,8.13,66,7.88v0l.1,0,.14,0a55.75,55.75,0,0,1,6.44,1.78l.17.07A33.54,33.54,0,0,1,79.21,13l.18.17.18.18a1.8,1.8,0,0,1,.19.2A8.41,8.41,0,0,1,81.22,18.89Z"/><path class="cls-3" d="M100.15,43.36l-16.35,10-3.73-4.72-3.8-4.8c.1-.45.19-.89.28-1.32,1.24-5.82,2-9.55,2.55-11.95,0-.21.09-.41.13-.61l.06-.28c0-.18.07-.36.11-.52s.07-.32.1-.47l.2-.92.06-.31.1-.46c.07-.34.11-.52.13-.61l0-.1,0-.1.82-3.87c.15-.82.25-1.56.31-2.24,0-.23,0-.45,0-.66s0-.35,0-.52a9.76,9.76,0,0,0-.66-4.13,4,4,0,0,0-.8-1.18,1.8,1.8,0,0,0-.19-.2l-.18-.18L79.21,13A33.54,33.54,0,0,0,72.9,9.76l-.17-.07a33.84,33.84,0,0,0-6.44-1.78l-.14,0-.1,0L66.4,4s4,1.29,10.34,3.29,7.88,4.35,7.88,4.35L94.5,31.81l3.11,6.36Z"/><path class="cls-3" d="M40.27,1.5l-.12,0a.29.29,0,0,1,.1,0Z"/><path class="cls-3" d="M40.43,1.46l-.15,0a0,0,0,0,1,0,0Z"/><path class="cls-3" d="M48.77.21h-.09c-1.09.07-2.13.18-3.12.31l-.89.13L43.28.87c-.72.13-1.38.26-2,.39l-.44.1H40.8l-.29.07h-.08l-.15,0h0l-.12,0-.46.11c-.44.1-.82.2-1.13.29l-.2.06L38.19,2l-.13,0c2.2-.58,12-2.95,20.06-1.27A33.41,33.41,0,0,0,48.77.21Z"/><path class="cls-3" d="M34.78,8.09l-.21.08-.32.12-.42.16-.24.09c-2.51.94-8.28,3.14-11.27,4.49h0a11.34,11.34,0,0,0-2.61,3.14h0a8,8,0,0,0-.83,6c1,3.8,3.23,12.25,4.46,16.94l.16.6.71,2.68L22.53,45l-3.84,5.93-1.55,2.41-17-10.7c.36-1,.71-1.91,1.07-2.82.91-2.39,1.81-4.6,2.69-6.65C12.26,13.52,18.2,9,18.2,9A135.83,135.83,0,0,0,33.72,3.86Z"/><path class="cls-3" d="M66.4,4l-.35,3.88v0c-.05.25-.81,3.07-5.83,5.78l-.09.05a13.32,13.32,0,0,1-1.31.65c-.28.14-.57.27-.88.4a42.9,42.9,0,0,1-7.84,2.37H50a25.83,25.83,0,0,1-10.5-4.58,14.86,14.86,0,0,1-4.6-4.28.61.61,0,0,1-.07-.1.42.42,0,0,1-.06-.08L33.72,3.86l.08,0,.13-.06,2.48-1,.07,0,1.12-.48.49,3.07c1,2.54,3.9,6,12.06,7.75,0,0,10.13-2.16,12.05-7.75l.41-3a1.89,1.89,0,0,1,.21.09A31.8,31.8,0,0,1,66.4,4Z"/><path class="cls-4" d="M62.2,5.28C60.28,10.87,50.15,13,50.15,13,42,11.29,39.1,7.82,38.09,5.28,48.74,1.71,61.75,5.16,62.2,5.28Z"/><path class="cls-3" d="M62.61,2.31l-.41,3c-.45-.12-13.46-3.57-24.11,0L37.6,2.21h0l.26-.08.15,0c2.2-.58,12-2.95,20.06-1.27.23,0,.45.09.68.15A21.4,21.4,0,0,1,62,2.05h0l0,0,.29.13v0Z"/><path class="cls-5" d="M62.61,2.31l-.21-.1"/><path class="cls-3" d="M62.11,2.08A18.15,18.15,0,0,0,58.8,1"/><path class="cls-5" d="M37.65,2.2h0"/><path class="cls-6" d="M75.5,83.1H24.69c.14-2.18.28-4.63.42-7.06H75C75.14,78.64,75.32,81,75.5,83.1Z"/><path class="cls-6" d="M22.53,45l-3.84,5.93L1.22,39.83c.91-2.39,1.81-4.6,2.69-6.65Z"/><path class="cls-6" d="M97.61,38.17,80.07,48.63l-3.8-4.8c.1-.45.19-.89.28-1.32l18-10.7Z"/></g></g></svg>