<?xml version="1.0" encoding="utf-8"?>
<!-- Generator: Adobe Illustrator 25.0.0, SVG Export Plug-In . SVG Version: 6.00 Build 0)  -->
<svg version="1.0"
	 id="svg8" sodipodi:docname="FX13_tshirt3.svg" xmlns:cc="http://creativecommons.org/ns#" xmlns:dc="http://purl.org/dc/elements/1.1/" xmlns:inkscape="http://www.inkscape.org/namespaces/inkscape" xmlns:rdf="http://www.w3.org/1999/02/22-rdf-syntax-ns#" xmlns:sodipodi="http://sodipodi.sourceforge.net/DTD/sodipodi-0.dtd" xmlns:svg="http://www.w3.org/2000/svg"
	 xmlns="http://www.w3.org/2000/svg" xmlns:xlink="http://www.w3.org/1999/xlink" x="0px" y="0px" viewBox="0 0 353.4 328.8"
	 style="enable-background:new 0 0 353.4 328.8;" xml:space="preserve">
<style type="text/css">
	.st0{fill:#068046;stroke:#FFD400;stroke-width:5.3206;stroke-linecap:round;stroke-linejoin:round;stroke-miterlimit:11.3386;}
	.st1{fill:#FFD400;}
	.st2{fill:none;stroke:#FFD400;stroke-width:5.6253;stroke-miterlimit:11.3386;}
	.st3{fill:none;stroke:#FFD400;stroke-width:0.5963;stroke-miterlimit:11.3386;}
	.st4{fill:none;stroke:#333333;stroke-width:0.5953;stroke-miterlimit:11.3386;}
</style>
<sodipodi:namedview  bordercolor="#666666" borderopacity="1.0" fit-margin-bottom="0" fit-margin-left="0" fit-margin-right="0" fit-margin-top="0" id="base" inkscape:current-layer="layer1" inkscape:cx="240.74308" inkscape:cy="262.24396" inkscape:document-units="mm" inkscape:pageopacity="0.0" inkscape:pageshadow="2" inkscape:window-height="1016" inkscape:window-maximized="1" inkscape:window-width="1920" inkscape:window-x="0" inkscape:window-y="27" inkscape:zoom="1.979899" pagecolor="#ffffff" showgrid="false">
	</sodipodi:namedview>
<g id="layer1" transform="translate(-36.707007,-87.706978)" inkscape:groupmode="layer" inkscape:label="Layer 1">
	<path id="path4496-3" inkscape:connector-curvature="0" sodipodi:nodetypes="ccccczcccczcccccccc" class="st0" d="M167.5,90.4
		L126,106c0,0-73.8,69.5-86.6,81c14.5,21.5,36.8,49.5,36.8,49.5l43.2-30.9c0,0,12,21.1,12,55.1s-12,153.3-12,153.3h93h2.1h93
		c0,0-12.2-118.4-12.2-153s12.2-55.4,12.2-55.4l43.2,30.9c0,0,22.2-28,36.8-49.5c-12.8-11.5-86.6-81-86.6-81l-41.5-15.6h-44.9h-2.1
		H167.5z"/>
	<path id="path4496-7" inkscape:connector-curvature="0" sodipodi:nodetypes="ccccc" class="st1" d="M48.7,178.4
		c-0.2,0.2-0.5,0.5-0.7,0.7l36,51.4l1.1-0.6C83.3,227.1,55.7,187.8,48.7,178.4z"/>
	<path id="path4496-6" inkscape:connector-curvature="0" sodipodi:nodetypes="ccccc" class="st1" d="M377.6,177.7
		c-5.9,7.8-34,47.6-36.6,51.5l1.1,0.6l36.2-51.5C378,178.2,377.8,177.9,377.6,177.7L377.6,177.7z"/>
	<path id="path4538-6" inkscape:connector-curvature="0" sodipodi:nodetypes="czc" class="st2" d="M167.5,90.4
		c0,33.4,17.7,57.3,45.6,57.1c27.9-0.1,45.9-22,45.9-57.1"/>
	<path id="path4712" inkscape:connector-curvature="0" sodipodi:nodetypes="czc" class="st3" d="M307.4,207c0,0-11.3-43.1-11.2-61.6
		c0.2-18.6,4.6-39.4,4.6-39.4"/>
	<path id="path4712-9" inkscape:connector-curvature="0" sodipodi:nodetypes="czc" class="st3" d="M119.4,207
		c0,0,11.3-43.1,11.2-61.6c-0.2-18.6-4.6-39.4-4.6-39.4"/>
	<path id="path4729" inkscape:connector-curvature="0" class="st4" d="M170.3,96.3h89.4"/>
	<path id="path4746" inkscape:connector-curvature="0" sodipodi:nodetypes="czc" class="st4" d="M267.6,93.5c0,0,2,61.6-53.6,61.6
		s-53.8-61.9-53.8-61.9"/>
</g>
</svg>
