<svg viewBox="0 0 100.31 90.78" xmlns="http://www.w3.org/2000/svg"><g stroke="#1a1a1a" stroke-miterlimit="10" stroke-width=".25"><path d="m62.32 4.86s0 0 0 0a3.57 3.57 0 0 1 -.1.35s-13.27-3.63-24.11 0a7.81 7.81 0 0 1 -.49-2 6.63 6.63 0 0 1 0-.88.65.65 0 0 1 0-.1h.18c.61-.17 1.21-.32 1.8-.47h.07a43.7 43.7 0 0 1 18.87-.58l.4.09.39.09c.75.18 1.37.35 1.86.5l.6.2.4.14.17.07a5.73 5.73 0 0 1 -.04 2.59z" fill="#fff"/><path d="m19.7 16.19a8 8 0 0 0 -.83 6c1 3.8 3.23 12.25 4.46 16.93.06.21.11.41.16.6.43 1.64.71 2.68.71 2.68l-7.06 10.95-17-10.7c10.29-27.74 18.06-33.65 18.06-33.65a138.3 138.3 0 0 0 15.52-5.14l1.06 4.23h-.11c-1 .37-8.73 3.25-12.35 4.9a5.29 5.29 0 0 0 -2.61 3.14z" fill="#fff"/><path d="m19.7 16.19a17 17 0 0 0 -.83 6 8 8 0 0 1 .83-6z" fill="none"/><path d="m100.15 43.36-16.36 10-7.52-9.52c1.4-6.58 2.28-10.69 2.83-13.27 0-.21.09-.41.13-.61l.06-.28.11-.52c0-.16.07-.32.1-.47l.2-.92.06-.31.1-.46c.07-.34.11-.52.13-.61v-.1-.1a27.73 27.73 0 0 0 1.13-6.12c0-.22 0-.45 0-.66s0-.34 0-.51a12.88 12.88 0 0 0 -.12-2.59 7.55 7.55 0 0 0 -.47-1.55 4 4 0 0 0 -.8-1.18 1.8 1.8 0 0 0 -.19-.2l-.18-.18-.15-.2a20.87 20.87 0 0 0 -6.21-3.21l-.26-.1a33.2 33.2 0 0 0 -6-1.7l-.41-.08h-.14-.1l.27-3 .04-.91.41.13c1.17.38 4.77 1.54 9.93 3.16 4.67 1.47 6.74 3.13 7.5 3.91a4 4 0 0 1 .38.44z" fill="#fff"/><path d="m62.82 2.4-.21-.09-.21-.1-.17-.07a.61.61 0 0 0 -.23-.09h-.11-.12l-.6-.2a29 29 0 0 0 -4.61-1.16 40.45 40.45 0 0 0 -11-.16l-1.18.16-1.1.18c-.41.06-.82.14-1.24.22a3 3 0 0 0 -.43.09c-.51.11-1 .23-1.57.37l-.43.1-.6.16-.45.12-.2.06-.17.01-.3.08h-.11-.18l-1.12.48h-.07l-2.48 1-.13.06h-.08l1.06 4.23a.42.42 0 0 0 .06.08l.07.09.1.12.44.51a25 25 0 0 0 4 3.58 25.92 25.92 0 0 0 10.55 4.9h.08c.17 0 .34-.05.5-.09l.25-.05a36.18 36.18 0 0 0 7.09-2.23c.14-.06.27-.11.4-.18a21.52 21.52 0 0 0 2.91-1.58l.12-.07.12-.08h.07a13.32 13.32 0 0 0 3.46-3.34c.09-.13.19-.25.27-.37s.32-.46.45-.7.28-.44.28-.5v-.06l.27-3 .13-.88zm-12.67 10.6c-8.15-1.71-11.05-5.18-12.06-7.72 10.84-3.63 24.11 0 24.11 0-1.92 5.59-12.05 7.72-12.05 7.72z" fill="none"/><path d="m73 9.79a20.87 20.87 0 0 1 6.21 3.21 34.73 34.73 0 0 0 -6.21-3.21z" fill="none"/><path d="m80.86 22.31c.15-.82.25-1.56.31-2.25a27.73 27.73 0 0 1 -1.17 6.12z" fill="none"/><path d="m81.22 18.89v.51s0 .44 0 .66a27.73 27.73 0 0 1 -1.22 6.12v.1.1c0 .09-.06.27-.13.61l-.1.46-.06.31c-.06.26-.13.57-.2.92 0 .15-.07.31-.1.47s-.07.34-.11.52l-.06.28c0 .2-.09.4-.13.61-.55 2.58-1.43 6.69-2.83 13.27-3.74 17.54 0 46.82 0 46.82h-52.08s.86-12.27 1.18-20.51c.05-1.39.09-2.66.11-3.74.12-7.53-1.29-24-1.29-24s-.28-1-.71-2.68l-.16-.6c-1.23-4.67-3.45-13.12-4.46-16.92a8 8 0 0 1 .83-6 11.34 11.34 0 0 1 2.61-3.2l11.91-4.7.19-.07.26-.1h.11a.42.42 0 0 0 .06.08l.07.09.1.12.44.51a28.75 28.75 0 0 0 10.06 6.66l1.19.41 1 .36a0 0 0 0 1 0 0l.34.12.62.2.51.16.56.17.27.07h.08c.17 0 .34-.05.5-.09l.25-.05a27.49 27.49 0 0 0 9.36-3.32l.11-.06c.32-.19.62-.39.91-.59l.13-.09.12-.08h.07a16.28 16.28 0 0 0 3.47-3.29c.09-.13.19-.25.27-.37s.32-.46.45-.7.28-.44.28-.5v-.06h.1.14l.41.08a53.32 53.32 0 0 1 6.35 1.83 20.87 20.87 0 0 1 6.21 3.21l.18.17.18.18a1.8 1.8 0 0 1 .19.2 6.2 6.2 0 0 1 1.24 2.83 12.14 12.14 0 0 1 .22 2.51z" fill="#fff"/><path d="m62.32 4.86s0 0 0 0a3.57 3.57 0 0 1 -.1.35s-13.27-3.63-24.11 0-.44-.46-.49-2c0-.26 0-.56 0-.89v-.11h.18.11l.3-.08.15-.13.2-.06.44-.13.6-.16.43-.1.24-.05.2-.05.37-.09.44-.1c.61-.13 1.27-.26 2-.39l1.1-.18 1.18-.17c1-.13 2-.24 3.12-.31h.09c4.23-.27 9.09.03 13.23 1.84a.61.61 0 0 1 .17.07l.17.07a11.1 11.1 0 0 1 -.02 2.67z" fill="#fff"/><path d="m62.2 5.28c-1.92 5.59-12.05 7.72-12.05 7.72-8.15-1.71-11.05-5.18-12.06-7.72 10.84-3.63 24.11 0 24.11 0z" fill="#eee"/><path d="m62.82 2.4-.21-.09-.21-.07c-1-.38-2.07-.7-3.09-1l-.39-.09-.4-.09c-.66-.16-1.31-.29-2-.4a35.9 35.9 0 0 0 -7.75-.45h-.09a39.58 39.58 0 0 0 -6.68.88 3 3 0 0 0 -.43.09l-.32.08-.44.1-.37.09-.2.05-.63.17h-.07c-.72.2-1.38.41-2 .61l-1.1.38h-.07c-1.25.46-2.1.86-2.48 1l-.13.06h-.08l1.06 4.23a.42.42 0 0 0 .06.08 14.65 14.65 0 0 0 4.6 4.33 35.66 35.66 0 0 0 6.1 3.08l1.2.56 1 .36a0 0 0 0 1 0 0l.34.12.62.2.51.16.56.17.27.07h.08a42.9 42.9 0 0 0 7.84-2.37c.14-.06.27-.11.4-.18.68-.29 1.3-.6 1.87-.91l.11-.06c.3-.16.58-.33.85-.49 4.17-2.54 4.82-5 4.87-5.24l.27-3 .11-.83a31.8 31.8 0 0 0 -3.58-1.6zm-12.67 10.6c-8.15-1.71-11.05-5.18-12.06-7.72 10.84-3.63 24.11 0 24.11 0-1.92 5.59-12.05 7.72-12.05 7.72z" fill="#fff"/></g><path d="m84.24 11.18-3.24 5.13v.07l-46.62 74.27h-10.18s.86-12.27 1.18-20.51l35.78-57 .06-.1 5.08-8.1.5-.79c1.17.38 4.77 1.54 9.93 3.16 4.68 1.43 6.75 3.09 7.51 3.87z" fill="#f00"/></svg>